SplineFontDB: 3.2
FontName: Krub-LightItalic
FullName: Krub Light Italic
FamilyName: Krub Light
Weight: Light
Copyright: Copyright 2018 The Krub Project Authors (https://github.com/cadsondemak/Krub)
Version: 1.000; ttfautohint (v1.6)
ItalicAngle: -8
UnderlinePosition: -100
UnderlineWidth: 50
Ascent: 800
Descent: 200
InvalidEm: 0
sfntRevision: 0x00010000
LayerCount: 2
Layer: 0 1 "Back" 1
Layer: 1 1 "Fore" 0
XUID: [1021 226 -1497385041 7304797]
StyleMap: 0x0001
FSType: 0
OS2Version: 3
OS2_WeightWidthSlopeOnly: 0
OS2_UseTypoMetrics: 0
CreationTime: 1534948280
ModificationTime: 1627862953
PfmFamily: 81
TTFWeight: 300
TTFWidth: 5
LineGap: 0
VLineGap: 0
Panose: 0 0 4 0 0 0 0 0 0 0
OS2TypoAscent: 1007
OS2TypoAOffset: 0
OS2TypoDescent: -293
OS2TypoDOffset: 0
OS2TypoLinegap: 0
OS2WinAscent: 1232
OS2WinAOffset: 0
OS2WinDescent: 507
OS2WinDOffset: 0
HheadAscent: 1007
HheadAOffset: 0
HheadDescent: -293
HheadDOffset: 0
OS2SubXSize: 650
OS2SubYSize: 600
OS2SubXOff: -11
OS2SubYOff: 75
OS2SupXSize: 650
OS2SupYSize: 600
OS2SupXOff: 49
OS2SupYOff: 350
OS2StrikeYSize: 50
OS2StrikeYPos: 330
OS2CapHeight: 700
OS2XHeight: 550
OS2Vendor: 'CDK '
OS2CodePages: 20010193.00000000
OS2UnicodeRanges: 21000007.00000001.00000000.00000000
Lookup: 1 0 0 "'aalt' Access All Alternates lookup 0" { "'aalt' Access All Alternates lookup 0 subtable"  } ['aalt' ('DFLT' <'dflt' > 'latn' <'CAT ' 'MOL ' 'ROM ' 'dflt' > 'thai' <'dflt' > ) ]
Lookup: 3 0 0 "'aalt' Access All Alternates lookup 1" { "'aalt' Access All Alternates lookup 1 subtable"  } ['aalt' ('DFLT' <'dflt' > 'latn' <'CAT ' 'MOL ' 'ROM ' 'dflt' > 'thai' <'dflt' > ) ]
Lookup: 6 0 0 "'ccmp' Glyph Composition/Decomposition in Latin lookup 2" { "'ccmp' Glyph Composition/Decomposition in Latin lookup 2 contextual 0"  "'ccmp' Glyph Composition/Decomposition in Latin lookup 2 contextual 1"  } ['ccmp' ('latn' <'dflt' > ) ]

StartChar: A
Encoding: 65 65 4
Width: 620
GlyphClass: 2
Flags: W
AnchorPoint: "Anchor-10" 0 0 basechar 0
AnchorPoint: "Anchor-9" 345 660 basechar 0
AnchorPoint: "Anchor-8" 548 0 basechar 0
AnchorPoint: "Anchor-7" 253 0 basechar 0
LayerCount: 2
Fore
SplineSet
468 203 m 1,1,-1
 95 203 l 1,2,3
 54 107 54 107 17 0 c 1,4,-1
 -42 0 l 1,5,6
 31 206 31 206 119 374 c 128,-1,7
 207 542 207 542 324 700 c 1,8,-1
 379 700 l 1,9,10
 451 544 451 544 491.5 376 c 128,-1,11
 532 208 532 208 548 0 c 1,12,-1
 489 0 l 1,13,0
 483 105 483 105 468 203 c 1,1,-1
460 253 m 1,14,15
 423 467 423 467 343 640 c 1,16,17
 216 469 216 469 117 253 c 1,18,-1
 460 253 l 1,14,15
EndSplineSet
Substitution2: "Single Substitution lookup 20 subtable" ordfeminine
Substitution2: "'aalt' Access All Alternates lookup 0 subtable" ordfeminine
EndChar

StartChar: AE
Encoding: 198 198 28
Width: 930
GlyphClass: 2
Flags: W
AnchorPoint: "Anchor-10" 0 0 basechar 0
AnchorPoint: "Anchor-9" 566 700 basechar 0
AnchorPoint: "Anchor-8" 0 0 basechar 0
AnchorPoint: "Anchor-7" 408 0 basechar 0
LayerCount: 2
Fore
SplineSet
554 650 m 1,0,-1
 518 393 l 1,1,-1
 830 393 l 1,2,-1
 823 343 l 1,3,-1
 511 343 l 1,4,-1
 470 49 l 1,5,-1
 819 49 l 1,6,7
 817 21 817 21 806 10.5 c 128,-1,8
 795 0 795 0 771 0 c 2,9,-1
 413 0 l 1,10,-1
 442 206 l 1,11,-1
 106 206 l 1,12,13
 47 98 47 98 17 0 c 1,14,-1
 -42 0 l 1,15,16
 24 200 24 200 158.5 386 c 128,-1,17
 293 572 293 572 481 700 c 1,18,-1
 916 700 l 1,19,-1
 909 650 l 1,20,-1
 554 650 l 1,0,-1
449 256 m 1,21,-1
 505 650 l 1,22,-1
 495 650 l 1,23,24
 393 578 393 578 299.5 475.5 c 128,-1,25
 206 373 206 373 135 256 c 1,26,-1
 449 256 l 1,21,-1
EndSplineSet
EndChar

StartChar: B
Encoding: 66 66 30
Width: 615
GlyphClass: 2
Flags: W
AnchorPoint: "Anchor-10" 0 0 basechar 0
AnchorPoint: "Anchor-9" 343 660 basechar 0
AnchorPoint: "Anchor-8" 0 0 basechar 0
AnchorPoint: "Anchor-7" 251 0 basechar 0
LayerCount: 2
Fore
SplineSet
516.5 302 m 128,-1,1
 544 264 544 264 544 211 c 0,2,3
 544 107 544 107 475.5 53.5 c 128,-1,4
 407 0 407 0 274 0 c 2,5,-1
 29 0 l 1,6,-1
 127 700 l 1,7,-1
 357 700 l 2,8,9
 451 700 451 700 504 657.5 c 128,-1,10
 557 615 557 615 557 538 c 0,11,12
 557 473 557 473 524.5 422.5 c 128,-1,13
 492 372 492 372 440 354 c 1,14,0
 489 340 489 340 516.5 302 c 128,-1,1
461 621.5 m 128,-1,16
 423 650 423 650 350 650 c 2,17,-1
 177 650 l 1,18,-1
 138 376 l 1,19,-1
 319 376 l 2,20,21
 410 376 410 376 454.5 415.5 c 128,-1,22
 499 455 499 455 499 537 c 0,23,15
 499 593 499 593 461 621.5 c 128,-1,16
435.5 88.5 m 128,-1,25
 487 127 487 127 487 211 c 0,26,27
 487 273 487 273 446.5 300.5 c 128,-1,28
 406 328 406 328 316 328 c 2,29,-1
 132 328 l 1,30,-1
 93 50 l 1,31,-1
 271 50 l 2,32,24
 384 50 384 50 435.5 88.5 c 128,-1,25
EndSplineSet
EndChar

StartChar: C
Encoding: 67 67 31
Width: 596
GlyphClass: 2
Flags: W
AnchorPoint: "Anchor-10" 0 0 basechar 0
AnchorPoint: "Anchor-9" 387 660 basechar 0
AnchorPoint: "Anchor-8" 0 0 basechar 0
AnchorPoint: "Anchor-7" 295 0 basechar 0
LayerCount: 2
Fore
SplineSet
106 62 m 128,-1,1
 37 134 37 134 37 267 c 0,2,3
 37 402 37 402 79 502 c 128,-1,4
 121 602 121 602 199 656 c 128,-1,5
 277 710 277 710 382 710 c 0,6,7
 443 710 443 710 494.5 690 c 128,-1,8
 546 670 546 670 577 633 c 1,9,10
 570 619 570 619 560 610.5 c 128,-1,11
 550 602 550 602 541 602 c 0,12,13
 530 602 530 602 518 611 c 0,14,15
 458 658 458 658 380 658 c 0,16,17
 295 658 295 658 231 610.5 c 128,-1,18
 167 563 167 563 132 475 c 128,-1,19
 97 387 97 387 97 270 c 0,20,21
 97 160 97 160 150.5 101.5 c 128,-1,22
 204 43 204 43 304 43 c 0,23,24
 409 43 409 43 476 109 c 1,25,26
 487 108 487 108 493 101.5 c 128,-1,27
 499 95 499 95 499 85 c 0,28,29
 499 62 499 62 470.5 39.5 c 128,-1,30
 442 17 442 17 395.5 3.5 c 128,-1,31
 349 -10 349 -10 300 -10 c 0,32,0
 175 -10 175 -10 106 62 c 128,-1,1
EndSplineSet
EndChar

StartChar: Ccedilla
Encoding: 199 199 34
Width: 596
GlyphClass: 2
Flags: W
AnchorPoint: "Anchor-10" 0 0 basechar 0
AnchorPoint: "Anchor-9" 0 0 basechar 0
AnchorPoint: "Anchor-8" 0 0 basechar 0
AnchorPoint: "Anchor-7" 265 -214 basechar 0
LayerCount: 2
Fore
SplineSet
494.5 690 m 128,-1,1
 546 670 546 670 577 633 c 1,2,3
 570 619 570 619 560 610.5 c 128,-1,4
 550 602 550 602 541 602 c 0,5,6
 530 602 530 602 518 611 c 0,7,8
 458 658 458 658 380 658 c 0,9,10
 295 658 295 658 231 610.5 c 128,-1,11
 167 563 167 563 132 475 c 128,-1,12
 97 387 97 387 97 270 c 0,13,14
 97 160 97 160 150.5 101.5 c 128,-1,15
 204 43 204 43 304 43 c 0,16,17
 409 43 409 43 476 109 c 1,18,19
 487 108 487 108 493 101.5 c 128,-1,20
 499 95 499 95 499 85 c 0,21,22
 499 63 499 63 473 42 c 128,-1,23
 447 21 447 21 405 6.5 c 128,-1,24
 363 -8 363 -8 316 -10 c 1,25,-1
 270 -58 l 2,26,27
 275 -57 275 -57 284 -57 c 0,28,29
 320 -57 320 -57 343 -74.5 c 128,-1,30
 366 -92 366 -92 366 -125 c 0,31,32
 366 -173 366 -173 326 -201 c 128,-1,33
 286 -229 286 -229 231 -229 c 0,34,35
 188 -229 188 -229 164 -220.5 c 128,-1,36
 140 -212 140 -212 140 -194 c 0,37,38
 140 -188 140 -188 145 -176 c 1,39,40
 187 -189 187 -189 231 -189 c 0,41,42
 269 -189 269 -189 290.5 -172.5 c 128,-1,43
 312 -156 312 -156 312 -132 c 0,44,45
 312 -95 312 -95 264 -95 c 0,46,47
 246 -95 246 -95 223 -101 c 1,48,-1
 208 -75 l 1,49,-1
 267 -9 l 1,50,51
 157 1 157 1 97 72.5 c 128,-1,52
 37 144 37 144 37 267 c 0,53,54
 37 402 37 402 79 502 c 128,-1,55
 121 602 121 602 199 656 c 128,-1,56
 277 710 277 710 382 710 c 0,57,0
 443 710 443 710 494.5 690 c 128,-1,1
EndSplineSet
EndChar

StartChar: D
Encoding: 68 68 37
Width: 672
GlyphClass: 2
Flags: W
AnchorPoint: "Anchor-10" 0 0 basechar 0
AnchorPoint: "Anchor-9" 370 650 basechar 0
AnchorPoint: "Anchor-8" 0 0 basechar 0
AnchorPoint: "Anchor-7" 279 0 basechar 0
LayerCount: 2
Fore
SplineSet
538 625.5 m 128,-1,1
 613 551 613 551 613 417 c 0,2,3
 613 291 613 291 568 196.5 c 128,-1,4
 523 102 523 102 440 51 c 128,-1,5
 357 0 357 0 246 0 c 2,6,-1
 29 0 l 1,7,-1
 127 700 l 1,8,-1
 329 700 l 2,9,0
 463 700 463 700 538 625.5 c 128,-1,1
409 94 m 128,-1,11
 479 138 479 138 516.5 220.5 c 128,-1,12
 554 303 554 303 554 416 c 256,13,14
 554 529 554 529 495.5 589.5 c 128,-1,15
 437 650 437 650 327 650 c 2,16,-1
 177 650 l 1,17,-1
 93 50 l 1,18,-1
 243 50 l 2,19,10
 339 50 339 50 409 94 c 128,-1,11
EndSplineSet
EndChar

StartChar: Eth
Encoding: 208 208 38
Width: 672
GlyphClass: 2
Flags: W
AnchorPoint: "Anchor-10" 0 0 basechar 0
AnchorPoint: "Anchor-9" 370 650 basechar 0
AnchorPoint: "Anchor-8" 0 0 basechar 0
AnchorPoint: "Anchor-7" 279 0 basechar 0
LayerCount: 2
Fore
SplineSet
538 625.5 m 128,-1,1
 613 551 613 551 613 417 c 0,2,3
 613 291 613 291 568 196.5 c 128,-1,4
 523 102 523 102 440 51 c 128,-1,5
 357 0 357 0 246 0 c 2,6,-1
 29 0 l 1,7,-1
 76 333 l 1,8,-1
 -10 333 l 1,9,-1
 -4 379 l 1,10,-1
 82 379 l 1,11,-1
 127 700 l 1,12,-1
 329 700 l 2,13,0
 463 700 463 700 538 625.5 c 128,-1,1
409 94 m 128,-1,15
 479 138 479 138 516.5 220.5 c 128,-1,16
 554 303 554 303 554 416 c 256,17,18
 554 529 554 529 495.5 589.5 c 128,-1,19
 437 650 437 650 327 650 c 2,20,-1
 177 650 l 1,21,-1
 139 379 l 1,22,-1
 342 379 l 1,23,-1
 335 333 l 1,24,-1
 133 333 l 1,25,-1
 93 50 l 1,26,-1
 243 50 l 2,27,14
 339 50 339 50 409 94 c 128,-1,15
EndSplineSet
EndChar

StartChar: Dcroat
Encoding: 272 272 40
Width: 672
GlyphClass: 2
Flags: W
AnchorPoint: "Anchor-10" 0 0 basechar 0
AnchorPoint: "Anchor-9" 370 650 basechar 0
AnchorPoint: "Anchor-8" 0 0 basechar 0
AnchorPoint: "Anchor-7" 279 0 basechar 0
LayerCount: 2
Fore
SplineSet
538 625.5 m 128,-1,1
 613 551 613 551 613 417 c 0,2,3
 613 291 613 291 568 196.5 c 128,-1,4
 523 102 523 102 440 51 c 128,-1,5
 357 0 357 0 246 0 c 2,6,-1
 29 0 l 1,7,-1
 76 333 l 1,8,-1
 -10 333 l 1,9,-1
 -4 379 l 1,10,-1
 82 379 l 1,11,-1
 127 700 l 1,12,-1
 329 700 l 2,13,0
 463 700 463 700 538 625.5 c 128,-1,1
409 94 m 128,-1,15
 479 138 479 138 516.5 220.5 c 128,-1,16
 554 303 554 303 554 416 c 256,17,18
 554 529 554 529 495.5 589.5 c 128,-1,19
 437 650 437 650 327 650 c 2,20,-1
 177 650 l 1,21,-1
 139 379 l 1,22,-1
 342 379 l 1,23,-1
 335 333 l 1,24,-1
 133 333 l 1,25,-1
 93 50 l 1,26,-1
 243 50 l 2,27,14
 339 50 339 50 409 94 c 128,-1,15
EndSplineSet
EndChar

StartChar: E
Encoding: 69 69 43
Width: 560
GlyphClass: 2
Flags: W
AnchorPoint: "Anchor-10" 0 0 basechar 0
AnchorPoint: "Anchor-9" 317 670 basechar 0
AnchorPoint: "Anchor-8" 439 10 basechar 0
AnchorPoint: "Anchor-7" 223 0 basechar 0
LayerCount: 2
Fore
SplineSet
177 650 m 1,0,-1
 140 388 l 1,1,-1
 453 388 l 1,2,-1
 447 338 l 1,3,-1
 133 338 l 1,4,-1
 93 50 l 1,5,-1
 455 50 l 1,6,7
 450 21 450 21 441 10.5 c 128,-1,8
 432 0 432 0 408 0 c 2,9,-1
 29 0 l 1,10,-1
 127 700 l 1,11,-1
 545 700 l 1,12,-1
 538 650 l 1,13,-1
 177 650 l 1,0,-1
EndSplineSet
EndChar

StartChar: Eogonek
Encoding: 280 280 59
Width: 560
GlyphClass: 2
Flags: W
AnchorPoint: "Anchor-10" 0 0 basechar 0
AnchorPoint: "Anchor-9" 317 670 basechar 0
AnchorPoint: "Anchor-8" 439 10 basechar 0
AnchorPoint: "Anchor-7" 223 0 basechar 0
LayerCount: 2
Fore
SplineSet
177 650 m 1,0,-1
 140 388 l 1,1,-1
 453 388 l 1,2,-1
 447 338 l 1,3,-1
 133 338 l 1,4,-1
 93 50 l 1,5,-1
 455 50 l 1,6,7
 451 26 451 26 445 15.5 c 128,-1,8
 439 5 439 5 426 2 c 1,9,10
 389 -22 389 -22 366.5 -53 c 128,-1,11
 344 -84 344 -84 344 -114 c 0,12,13
 344 -137 344 -137 357.5 -149 c 128,-1,14
 371 -161 371 -161 396 -161 c 0,15,16
 426 -161 426 -161 450 -150 c 1,17,18
 454 -157 454 -157 454 -167 c 0,19,20
 452 -181 452 -181 433 -190.5 c 128,-1,21
 414 -200 414 -200 380 -200 c 0,22,23
 340 -200 340 -200 316 -179.5 c 128,-1,24
 292 -159 292 -159 292 -125 c 0,25,26
 292 -51 292 -51 379 0 c 1,27,-1
 29 0 l 1,28,-1
 127 700 l 1,29,-1
 545 700 l 1,30,-1
 538 650 l 1,31,-1
 177 650 l 1,0,-1
EndSplineSet
EndChar

StartChar: F
Encoding: 70 70 61
Width: 530
GlyphClass: 2
Flags: W
AnchorPoint: "Anchor-10" 0 0 basechar 0
AnchorPoint: "Anchor-9" 327 660 basechar 0
AnchorPoint: "Anchor-8" 0 0 basechar 0
AnchorPoint: "Anchor-7" 65 0 basechar 0
LayerCount: 2
Fore
SplineSet
177 650 m 1,0,-1
 140 383 l 1,1,-1
 452 383 l 1,2,-1
 445 333 l 1,3,-1
 133 333 l 1,4,-1
 86 0 l 1,5,-1
 29 0 l 1,6,-1
 127 700 l 1,7,-1
 539 700 l 1,8,-1
 532 650 l 1,9,-1
 177 650 l 1,0,-1
EndSplineSet
EndChar

StartChar: G
Encoding: 71 71 62
Width: 666
GlyphClass: 2
Flags: W
AnchorPoint: "Anchor-10" 0 0 basechar 0
AnchorPoint: "Anchor-9" 412 660 basechar 0
AnchorPoint: "Anchor-8" 0 0 basechar 0
AnchorPoint: "Anchor-7" 320 0 basechar 0
LayerCount: 2
Fore
SplineSet
243.5 611.5 m 128,-1,1
 176 564 176 564 141.5 479.5 c 128,-1,2
 107 395 107 395 107 284 c 0,3,4
 107 162 107 162 165 102 c 128,-1,5
 223 42 223 42 324 42 c 0,6,7
 384 42 384 42 429.5 57.5 c 128,-1,8
 475 73 475 73 504 99 c 1,9,-1
 534 317 l 1,10,-1
 375 317 l 2,11,12
 359 317 359 317 353 324 c 128,-1,13
 347 331 347 331 347 348 c 0,14,15
 347 359 347 359 349 368 c 1,16,-1
 599 368 l 1,17,-1
 557 72 l 1,18,19
 519 36 519 36 457.5 13 c 128,-1,20
 396 -10 396 -10 323 -10 c 0,21,22
 195 -10 195 -10 121.5 65.5 c 128,-1,23
 48 141 48 141 48 284 c 0,24,25
 48 411 48 411 90.5 507 c 128,-1,26
 133 603 133 603 215 656.5 c 128,-1,27
 297 710 297 710 411 710 c 0,28,29
 484 710 484 710 543 686.5 c 128,-1,30
 602 663 602 663 631 623 c 1,31,32
 611 594 611 594 594 594 c 0,33,34
 580 594 580 594 569 604 c 0,35,36
 540 630 540 630 502 644.5 c 128,-1,37
 464 659 464 659 408 659 c 0,38,0
 311 659 311 659 243.5 611.5 c 128,-1,1
EndSplineSet
EndChar

StartChar: H
Encoding: 72 72 69
Width: 680
GlyphClass: 2
Flags: W
AnchorPoint: "Anchor-10" 0 0 basechar 0
AnchorPoint: "Anchor-9" 374 650 basechar 0
AnchorPoint: "Anchor-8" 0 0 basechar 0
AnchorPoint: "Anchor-7" 283 0 basechar 0
LayerCount: 2
Fore
SplineSet
635 700 m 1,0,-1
 537 0 l 1,1,-1
 479 0 l 1,2,-1
 527 340 l 1,3,-1
 135 340 l 1,4,-1
 87 0 l 1,5,-1
 29 0 l 1,6,-1
 127 700 l 1,7,-1
 185 700 l 1,8,-1
 141 389 l 1,9,-1
 533 389 l 1,10,-1
 577 700 l 1,11,-1
 635 700 l 1,0,-1
EndSplineSet
EndChar

StartChar: Hbar
Encoding: 294 294 70
Width: 680
GlyphClass: 2
Flags: W
AnchorPoint: "Anchor-10" 0 0 basechar 0
AnchorPoint: "Anchor-9" 374 650 basechar 0
AnchorPoint: "Anchor-8" 0 0 basechar 0
AnchorPoint: "Anchor-7" 283 0 basechar 0
LayerCount: 2
Fore
SplineSet
688 534 m 1,0,-1
 612 534 l 1,1,-1
 537 0 l 1,2,-1
 479 0 l 1,3,-1
 527 340 l 1,4,-1
 135 340 l 1,5,-1
 87 0 l 1,6,-1
 29 0 l 1,7,-1
 104 534 l 1,8,-1
 28 534 l 1,9,-1
 35 584 l 1,10,-1
 111 584 l 1,11,-1
 127 700 l 1,12,-1
 185 700 l 1,13,-1
 169 584 l 1,14,-1
 561 584 l 1,15,-1
 577 700 l 1,16,-1
 635 700 l 1,17,-1
 619 584 l 1,18,-1
 695 584 l 1,19,-1
 688 534 l 1,0,-1
554 534 m 1,20,-1
 162 534 l 1,21,-1
 141 389 l 1,22,-1
 533 389 l 1,23,-1
 554 534 l 1,20,-1
EndSplineSet
EndChar

StartChar: I
Encoding: 73 73 74
Width: 350
GlyphClass: 2
Flags: W
AnchorPoint: "Anchor-10" 0 0 basechar 0
AnchorPoint: "Anchor-9" 210 660 basechar 0
AnchorPoint: "Anchor-8" 147 0 basechar 0
AnchorPoint: "Anchor-7" 118 0 basechar 0
LayerCount: 2
Fore
SplineSet
188 700 m 1,0,-1
 245 700 l 1,1,-1
 147 0 l 1,2,-1
 90 0 l 1,3,-1
 188 700 l 1,0,-1
EndSplineSet
EndChar

StartChar: J
Encoding: 74 74 88
Width: 427
GlyphClass: 2
Flags: W
AnchorPoint: "Anchor-10" 0 0 basechar 0
AnchorPoint: "Anchor-9" 338 660 basechar 0
AnchorPoint: "Anchor-8" 0 0 basechar 0
AnchorPoint: "Anchor-7" 157 0 basechar 0
LayerCount: 2
Fore
SplineSet
18.5 -1.5 m 128,-1,1
 -14 7 -14 7 -31 17 c 1,2,3
 -29 37 -29 37 -21 48.5 c 128,-1,4
 -13 60 -13 60 -3 60 c 0,5,6
 4 60 4 60 19 54 c 0,7,8
 23 53 23 53 46.5 46.5 c 128,-1,9
 70 40 70 40 98 40 c 0,10,11
 232 40 232 40 250 183 c 2,12,-1
 323 700 l 1,13,-1
 380 700 l 1,14,-1
 307 183 l 2,15,16
 295 93 295 93 238 41.5 c 128,-1,17
 181 -10 181 -10 88 -10 c 0,18,0
 51 -10 51 -10 18.5 -1.5 c 128,-1,1
EndSplineSet
EndChar

StartChar: K
Encoding: 75 75 90
Width: 610
GlyphClass: 2
Flags: W
AnchorPoint: "Anchor-10" 0 0 basechar 0
AnchorPoint: "Anchor-9" 340 660 basechar 0
AnchorPoint: "Anchor-8" 0 0 basechar 0
AnchorPoint: "Anchor-7" 268 0 basechar 0
LayerCount: 2
Fore
SplineSet
383 288 m 2,1,-1
 528 3 l 1,2,3
 511 -8 511 -8 492 -8 c 0,4,5
 478 -8 478 -8 469.5 -1.5 c 128,-1,6
 461 5 461 5 453 22 c 2,7,-1
 331 269 l 2,8,9
 317 297 317 297 303 310.5 c 128,-1,10
 289 324 289 324 268 329.5 c 128,-1,11
 247 335 247 335 209 335 c 2,12,-1
 147 335 l 1,13,-1
 100 0 l 1,14,-1
 43 0 l 1,15,-1
 141 700 l 1,16,-1
 198 700 l 1,17,-1
 154 385 l 1,18,-1
 234 385 l 2,19,20
 244 385 244 385 264 383 c 1,21,-1
 550 700 l 1,22,-1
 618 700 l 1,23,-1
 314 368 l 1,24,0
 353 346 353 346 383 288 c 2,1,-1
EndSplineSet
EndChar

StartChar: L
Encoding: 76 76 92
Width: 513
GlyphClass: 2
Flags: W
AnchorPoint: "Anchor-10" 534 700 basechar 0
AnchorPoint: "Anchor-9" 163 700 basechar 0
AnchorPoint: "Anchor-8" 0 0 basechar 0
AnchorPoint: "Anchor-7" 235 0 basechar 0
LayerCount: 2
Fore
SplineSet
448 49 m 1,0,-1
 441 0 l 1,1,-1
 29 0 l 1,2,-1
 127 700 l 1,3,-1
 184 700 l 1,4,-1
 93 49 l 1,5,-1
 448 49 l 1,0,-1
EndSplineSet
EndChar

StartChar: Lslash
Encoding: 321 321 100
Width: 547
GlyphClass: 2
Flags: W
AnchorPoint: "Anchor-10" 554 700 basechar 0
AnchorPoint: "Anchor-9" 183 700 basechar 0
AnchorPoint: "Anchor-8" 0 0 basechar 0
AnchorPoint: "Anchor-7" 255 0 basechar 0
LayerCount: 2
Fore
SplineSet
468 49 m 1,0,-1
 461 0 l 1,1,-1
 49 0 l 1,2,-1
 98 353 l 1,3,-1
 4 317 l 1,4,-1
 12 371 l 1,5,-1
 106 407 l 1,6,-1
 147 700 l 1,7,-1
 204 700 l 1,8,-1
 166 429 l 1,9,-1
 384 512 l 1,10,-1
 376 458 l 1,11,-1
 159 376 l 1,12,-1
 113 49 l 1,13,-1
 468 49 l 1,0,-1
EndSplineSet
EndChar

StartChar: M
Encoding: 77 77 101
Width: 829
GlyphClass: 2
Flags: W
AnchorPoint: "Anchor-10" 0 0 basechar 0
AnchorPoint: "Anchor-9" 450 660 basechar 0
AnchorPoint: "Anchor-8" 0 0 basechar 0
AnchorPoint: "Anchor-7" 358 0 basechar 0
LayerCount: 2
Fore
SplineSet
722 500 m 0,1,2
 722 286 722 286 696 0 c 1,3,-1
 639 0 l 1,4,5
 666 299 666 299 666 525 c 0,6,7
 666 587 666 587 665 615 c 1,8,9
 594 495 594 495 531 370.5 c 128,-1,10
 468 246 468 246 391 75 c 1,11,-1
 349 75 l 1,12,13
 322 224 322 224 291.5 351.5 c 128,-1,14
 261 479 261 479 222 615 c 1,15,16
 178 474 178 474 139.5 313 c 128,-1,17
 101 152 101 152 76 0 c 1,18,-1
 19 0 l 1,19,20
 53 197 53 197 98 379.5 c 128,-1,21
 143 562 143 562 191 700 c 1,22,-1
 251 700 l 1,23,24
 301 541 301 541 331 425.5 c 128,-1,25
 361 310 361 310 384 188 c 1,26,27
 436 306 436 306 496.5 420.5 c 128,-1,28
 557 535 557 535 655 700 c 1,29,-1
 715 700 l 1,30,0
 722 597 722 597 722 500 c 0,1,2
EndSplineSet
EndChar

StartChar: N
Encoding: 78 78 103
Width: 690
GlyphClass: 2
Flags: W
AnchorPoint: "Anchor-10" 0 0 basechar 0
AnchorPoint: "Anchor-9" 379 660 basechar 0
AnchorPoint: "Anchor-8" 0 0 basechar 0
AnchorPoint: "Anchor-7" 287 0 basechar 0
LayerCount: 2
Fore
SplineSet
641 700 m 1,0,-1
 562 137 l 2,1,2
 550 59 550 59 550 27 c 0,3,4
 550 15 550 15 541.5 7.5 c 128,-1,5
 533 0 533 0 521 0 c 2,6,-1
 486 0 l 1,7,-1
 494 64 l 2,8,9
 496 84 496 84 496 90 c 0,10,11
 496 123 496 123 474 159 c 2,12,-1
 173 621 l 1,13,-1
 86 0 l 1,14,-1
 29 0 l 1,15,-1
 127 700 l 1,16,-1
 174 700 l 2,17,18
 184 700 184 700 189.5 697 c 128,-1,19
 195 694 195 694 201 684 c 2,20,-1
 514 203 l 1,21,-1
 584 700 l 1,22,-1
 641 700 l 1,0,-1
EndSplineSet
EndChar

StartChar: Eng
Encoding: 330 330 109
Width: 685
Flags: W
LayerCount: 2
Fore
SplineSet
640 700 m 1,0,-1
 535 -51 l 2,1,2
 525 -118 525 -118 482 -155 c 128,-1,3
 439 -192 439 -192 376 -192 c 0,4,5
 345 -192 345 -192 318 -182.5 c 128,-1,6
 291 -173 291 -173 294 -153 c 0,7,8
 295 -145 295 -145 300 -138 c 128,-1,9
 305 -131 305 -131 310 -130 c 0,10,11
 340 -146 340 -146 386 -146 c 0,12,13
 423 -146 423 -146 446.5 -123.5 c 128,-1,14
 470 -101 470 -101 477 -55 c 2,15,-1
 494 64 l 2,16,17
 496 82 496 82 496 90 c 0,18,19
 496 122 496 122 473 159 c 2,20,-1
 173 623 l 1,21,-1
 86 0 l 1,22,-1
 29 0 l 1,23,-1
 127 700 l 1,24,-1
 174 700 l 2,25,26
 184 700 184 700 189.5 697 c 128,-1,27
 195 694 195 694 201 684 c 2,28,-1
 513 204 l 1,29,-1
 583 700 l 1,30,-1
 640 700 l 1,0,-1
EndSplineSet
EndChar

StartChar: O
Encoding: 79 79 112
Width: 680
GlyphClass: 2
Flags: W
AnchorPoint: "Anchor-10" 515 639 basechar 0
AnchorPoint: "Anchor-9" 375 660 basechar 0
AnchorPoint: "Anchor-8" 386 31 basechar 0
AnchorPoint: "Anchor-7" 283 0 basechar 0
LayerCount: 2
Fore
SplineSet
100 66 m 128,-1,1
 33 142 33 142 33 277 c 0,2,3
 33 408 33 408 75.5 506 c 128,-1,4
 118 604 118 604 196 657 c 128,-1,5
 274 710 274 710 379 710 c 0,6,7
 498 710 498 710 564.5 636 c 128,-1,8
 631 562 631 562 631 430 c 0,9,10
 631 293 631 293 590 194 c 128,-1,11
 549 95 549 95 471.5 42.5 c 128,-1,12
 394 -10 394 -10 287 -10 c 0,13,0
 167 -10 167 -10 100 66 c 128,-1,1
441.5 88 m 128,-1,15
 505 134 505 134 538.5 220.5 c 128,-1,16
 572 307 572 307 572 426 c 0,17,18
 572 537 572 537 520 597.5 c 128,-1,19
 468 658 468 658 373 658 c 0,20,21
 288 658 288 658 224.5 612 c 128,-1,22
 161 566 161 566 126.5 480 c 128,-1,23
 92 394 92 394 92 279 c 0,24,25
 92 166 92 166 144.5 104 c 128,-1,26
 197 42 197 42 291 42 c 0,27,14
 378 42 378 42 441.5 88 c 128,-1,15
EndSplineSet
Substitution2: "Single Substitution lookup 20 subtable" ordmasculine
Substitution2: "'aalt' Access All Alternates lookup 0 subtable" ordmasculine
EndChar

StartChar: Ohorn
Encoding: 416 416 126
Width: 680
GlyphClass: 2
Flags: W
AnchorPoint: "Anchor-10" 515 639 basechar 0
AnchorPoint: "Anchor-9" 375 660 basechar 0
AnchorPoint: "Anchor-8" 386 31 basechar 0
AnchorPoint: "Anchor-7" 283 0 basechar 0
LayerCount: 2
Fore
SplineSet
632 673.5 m 128,-1,1
 608 645 608 645 568 631 c 1,2,3
 631 559 631 559 631 430 c 0,4,5
 631 293 631 293 590 194 c 128,-1,6
 549 95 549 95 471.5 42.5 c 128,-1,7
 394 -10 394 -10 287 -10 c 0,8,9
 167 -10 167 -10 100 66 c 128,-1,10
 33 142 33 142 33 277 c 0,11,12
 33 408 33 408 75.5 506 c 128,-1,13
 118 604 118 604 196 657 c 128,-1,14
 274 710 274 710 379 710 c 0,15,16
 473 710 473 710 535 663 c 1,17,18
 565 668 565 668 587 689.5 c 128,-1,19
 609 711 609 711 609 743 c 0,20,21
 609 776 609 776 578 791 c 1,22,23
 583 803 583 803 593 810.5 c 128,-1,24
 603 818 603 818 615 818 c 0,25,26
 637 818 637 818 650 802 c 128,-1,27
 663 786 663 786 663 760 c 0,28,29
 663 749 663 749 662 743 c 0,30,0
 656 702 656 702 632 673.5 c 128,-1,1
441.5 88 m 128,-1,32
 505 134 505 134 538.5 220.5 c 128,-1,33
 572 307 572 307 572 426 c 0,34,35
 572 537 572 537 520 597.5 c 128,-1,36
 468 658 468 658 373 658 c 0,37,38
 288 658 288 658 224.5 612 c 128,-1,39
 161 566 161 566 126.5 480 c 128,-1,40
 92 394 92 394 92 279 c 0,41,42
 92 166 92 166 144.5 104 c 128,-1,43
 197 42 197 42 291 42 c 0,44,31
 378 42 378 42 441.5 88 c 128,-1,32
EndSplineSet
EndChar

StartChar: Oslash
Encoding: 216 216 134
Width: 680
GlyphClass: 2
Flags: W
AnchorPoint: "Anchor-10" 515 639 basechar 0
AnchorPoint: "Anchor-9" 375 660 basechar 0
AnchorPoint: "Anchor-8" 386 31 basechar 0
AnchorPoint: "Anchor-7" 283 0 basechar 0
LayerCount: 2
Fore
SplineSet
579 618 m 1,0,1
 631 546 631 546 631 430 c 0,2,3
 631 293 631 293 590 194 c 128,-1,4
 549 95 549 95 471.5 42.5 c 128,-1,5
 394 -10 394 -10 287 -10 c 0,6,7
 179 -10 179 -10 114 52 c 1,8,-1
 71 0 l 1,9,-1
 11 0 l 1,10,-1
 83 88 l 1,11,12
 33 159 33 159 33 277 c 0,13,14
 33 408 33 408 75.5 506 c 128,-1,15
 118 604 118 604 196 657 c 128,-1,16
 274 710 274 710 379 710 c 0,17,18
 482 710 482 710 547 653 c 1,19,-1
 587 701 l 1,20,-1
 647 701 l 1,21,-1
 579 618 l 1,0,1
123 136 m 1,23,-1
 510 608 l 1,24,25
 460 658 460 658 373 658 c 0,26,27
 288 658 288 658 224.5 612 c 128,-1,28
 161 566 161 566 126.5 480 c 128,-1,29
 92 394 92 394 92 279 c 0,30,22
 92 195 92 195 123 136 c 1,23,-1
539 570 m 1,32,-1
 151 97 l 1,33,34
 201 42 201 42 291 42 c 0,35,36
 378 42 378 42 441.5 88 c 128,-1,37
 505 134 505 134 538.5 220.5 c 128,-1,38
 572 307 572 307 572 426 c 0,39,31
 572 515 572 515 539 570 c 1,32,-1
EndSplineSet
EndChar

StartChar: OE
Encoding: 338 338 137
Width: 1052
GlyphClass: 2
Flags: W
AnchorPoint: "Anchor-10" 515 639 basechar 0
AnchorPoint: "Anchor-9" 809 670 basechar 0
AnchorPoint: "Anchor-8" 931 10 basechar 0
AnchorPoint: "Anchor-7" 715 0 basechar 0
LayerCount: 2
Fore
SplineSet
669 650 m 1,0,-1
 632 388 l 1,1,-1
 945 388 l 1,2,-1
 938 338 l 1,3,-1
 626 338 l 1,4,-1
 620 297 l 1,5,-1
 585 50 l 1,6,-1
 946 50 l 1,7,8
 942 21 942 21 933 10.5 c 128,-1,9
 924 0 924 0 900 0 c 2,10,-1
 521 0 l 1,11,-1
 535 101 l 1,12,13
 490 47 490 47 427.5 18.5 c 128,-1,14
 365 -10 365 -10 287 -10 c 0,15,16
 167 -10 167 -10 100 66 c 128,-1,17
 33 142 33 142 33 277 c 0,18,19
 33 408 33 408 75.5 506 c 128,-1,20
 118 604 118 604 196 657 c 128,-1,21
 274 710 274 710 379 710 c 0,22,23
 458 710 458 710 515.5 676 c 128,-1,24
 573 642 573 642 602 578 c 1,25,-1
 619 700 l 1,26,-1
 1037 700 l 1,27,-1
 1030 650 l 1,28,-1
 669 650 l 1,0,-1
441.5 88 m 128,-1,30
 505 134 505 134 538.5 220.5 c 128,-1,31
 572 307 572 307 572 426 c 0,32,33
 572 537 572 537 520 597.5 c 128,-1,34
 468 658 468 658 373 658 c 0,35,36
 288 658 288 658 224.5 612 c 128,-1,37
 161 566 161 566 126.5 480 c 128,-1,38
 92 394 92 394 92 279 c 0,39,40
 92 166 92 166 144.5 104 c 128,-1,41
 197 42 197 42 291 42 c 0,42,29
 378 42 378 42 441.5 88 c 128,-1,30
EndSplineSet
EndChar

StartChar: P
Encoding: 80 80 138
Width: 615
GlyphClass: 2
Flags: W
AnchorPoint: "Anchor-10" 0 0 basechar 0
AnchorPoint: "Anchor-9" 343 660 basechar 0
AnchorPoint: "Anchor-8" 0 0 basechar 0
AnchorPoint: "Anchor-7" 251 0 basechar 0
LayerCount: 2
Fore
SplineSet
585 502 m 0,1,2
 585 381 585 381 510 316 c 128,-1,3
 435 251 435 251 295 251 c 2,4,-1
 121 251 l 1,5,-1
 86 0 l 1,6,-1
 29 0 l 1,7,-1
 127 700 l 1,8,-1
 340 700 l 2,9,0
 585 700 585 700 585 502 c 0,1,2
527 502 m 0,11,12
 527 578 527 578 480 613.5 c 128,-1,13
 433 649 433 649 333 649 c 2,14,-1
 177 649 l 1,15,-1
 128 302 l 1,16,-1
 287 302 l 2,17,10
 527 302 527 302 527 502 c 0,11,12
EndSplineSet
EndChar

StartChar: Thorn
Encoding: 222 222 139
Width: 641
GlyphClass: 2
Flags: W
AnchorPoint: "Anchor-10" 0 0 basechar 0
AnchorPoint: "Anchor-9" 362 700 basechar 0
AnchorPoint: "Anchor-8" 0 0 basechar 0
AnchorPoint: "Anchor-7" 264 0 basechar 0
LayerCount: 2
Fore
SplineSet
525 540.5 m 128,-1,1
 584 488 584 488 584 397 c 0,2,3
 584 268 584 268 510 195.5 c 128,-1,4
 436 123 436 123 297 123 c 2,5,-1
 126 123 l 1,6,-1
 109 0 l 1,7,-1
 52 0 l 1,8,-1
 150 700 l 1,9,-1
 207 700 l 1,10,-1
 192 593 l 1,11,-1
 343 593 l 2,12,0
 466 593 466 593 525 540.5 c 128,-1,1
465 232 m 128,-1,14
 525 292 525 292 525 397 c 0,15,16
 525 467 525 467 482 505.5 c 128,-1,17
 439 544 439 544 346 544 c 2,18,-1
 185 544 l 1,19,-1
 133 172 l 1,20,-1
 294 172 l 2,21,13
 405 172 405 172 465 232 c 128,-1,14
EndSplineSet
EndChar

StartChar: Q
Encoding: 81 81 140
Width: 680
GlyphClass: 2
Flags: W
AnchorPoint: "Anchor-10" 515 639 basechar 0
AnchorPoint: "Anchor-9" 390 660 basechar 0
AnchorPoint: "Anchor-8" 386 31 basechar 0
AnchorPoint: "Anchor-7" 301 0 basechar 0
LayerCount: 2
Fore
SplineSet
575 162 m 128,-1,1
 519 54 519 54 416 13 c 1,2,3
 448 -39 448 -39 464 -62 c 1,4,5
 457 -71 457 -71 446 -76.5 c 128,-1,6
 435 -82 435 -82 422 -82 c 0,7,8
 400 -82 400 -82 386 -56 c 0,9,10
 362 -11 362 -11 358 -3 c 1,11,12
 327 -10 327 -10 287 -10 c 0,13,14
 167 -10 167 -10 100 66 c 128,-1,15
 33 142 33 142 33 277 c 0,16,17
 33 408 33 408 75.5 506 c 128,-1,18
 118 604 118 604 196 657 c 128,-1,19
 274 710 274 710 379 710 c 0,20,21
 498 710 498 710 564.5 636 c 128,-1,22
 631 562 631 562 631 430 c 0,23,0
 631 270 631 270 575 162 c 128,-1,1
524 188 m 128,-1,25
 572 283 572 283 572 426 c 0,26,27
 572 537 572 537 520 597.5 c 128,-1,28
 468 658 468 658 373 658 c 0,29,30
 288 658 288 658 224.5 612 c 128,-1,31
 161 566 161 566 126.5 480 c 128,-1,32
 92 394 92 394 92 279 c 0,33,34
 92 166 92 166 144.5 104 c 128,-1,35
 197 42 197 42 291 42 c 0,36,37
 314 42 314 42 333 45 c 1,38,-1
 281 149 l 1,39,-1
 341 149 l 1,40,-1
 389 59 l 1,41,24
 476 93 476 93 524 188 c 128,-1,25
EndSplineSet
EndChar

StartChar: R
Encoding: 82 82 141
Width: 629
GlyphClass: 2
Flags: W
AnchorPoint: "Anchor-10" 0 0 basechar 0
AnchorPoint: "Anchor-9" 348 660 basechar 0
AnchorPoint: "Anchor-8" 0 0 basechar 0
AnchorPoint: "Anchor-7" 258 0 basechar 0
LayerCount: 2
Fore
SplineSet
417 238 m 2,1,-1
 528 3 l 1,2,3
 511 -8 511 -8 492 -8 c 0,4,5
 478 -8 478 -8 469 -1.5 c 128,-1,6
 460 5 460 5 453 22 c 2,7,-1
 361 217 l 2,8,9
 340 263 340 263 309 280 c 128,-1,10
 278 297 278 297 216 297 c 2,11,-1
 128 297 l 1,12,-1
 86 0 l 1,13,-1
 29 0 l 1,14,-1
 127 700 l 1,15,-1
 354 700 l 2,16,17
 467 700 467 700 527.5 656.5 c 128,-1,18
 588 613 588 613 588 531 c 0,19,20
 588 470 588 470 560 420 c 128,-1,21
 532 370 532 370 483 338.5 c 128,-1,22
 434 307 434 307 371 299 c 1,23,0
 400 274 400 274 417 238 c 2,1,-1
300 347 m 2,24,25
 409 347 409 347 468 393.5 c 128,-1,26
 527 440 527 440 527 526 c 0,27,28
 527 649 527 649 347 649 c 2,29,-1
 177 649 l 1,30,-1
 135 347 l 1,31,-1
 300 347 l 2,24,25
EndSplineSet
EndChar

StartChar: S
Encoding: 83 83 148
Width: 642
GlyphClass: 2
Flags: W
AnchorPoint: "Anchor-10" 0 0 basechar 0
AnchorPoint: "Anchor-9" 356 660 basechar 0
AnchorPoint: "Anchor-8" 0 0 basechar 0
AnchorPoint: "Anchor-7" 264 0 basechar 0
LayerCount: 2
Fore
SplineSet
153.5 9.5 m 128,-1,1
 97 29 97 29 64.5 63 c 128,-1,2
 32 97 32 97 32 138 c 0,3,4
 32 160 32 160 44.5 172.5 c 128,-1,5
 57 185 57 185 79 186 c 1,6,7
 83 119 83 119 137.5 79.5 c 128,-1,8
 192 40 192 40 281 40 c 0,9,10
 381 40 381 40 439 82 c 128,-1,11
 497 124 497 124 497 198 c 0,12,13
 497 239 497 239 480.5 265 c 128,-1,14
 464 291 464 291 424.5 309 c 128,-1,15
 385 327 385 327 310 346 c 0,16,17
 202 373 202 373 153 416.5 c 128,-1,18
 104 460 104 460 104 529 c 0,19,20
 104 612 104 612 171 661 c 128,-1,21
 238 710 238 710 352 710 c 0,22,23
 449 710 449 710 513 666.5 c 128,-1,24
 577 623 577 623 588 549 c 1,25,26
 575 536 575 536 556 536 c 0,27,28
 545 536 545 536 537.5 542 c 128,-1,29
 530 548 530 548 525 563 c 0,30,31
 506 612 506 612 461 637 c 128,-1,32
 416 662 416 662 349 662 c 0,33,34
 260 662 260 662 211.5 627.5 c 128,-1,35
 163 593 163 593 163 530 c 0,36,37
 163 496 163 496 178.5 472.5 c 128,-1,38
 194 449 194 449 229.5 431.5 c 128,-1,39
 265 414 265 414 327 398 c 0,40,41
 417 374 417 374 466 349 c 128,-1,42
 515 324 515 324 536 290.5 c 128,-1,43
 557 257 557 257 557 206 c 0,44,45
 557 104 557 104 484 47 c 128,-1,46
 411 -10 411 -10 280 -10 c 0,47,0
 210 -10 210 -10 153.5 9.5 c 128,-1,1
EndSplineSet
EndChar

StartChar: Scedilla
Encoding: 350 350 151
Width: 642
GlyphClass: 2
Flags: W
AnchorPoint: "Anchor-10" 0 0 basechar 0
AnchorPoint: "Anchor-9" 0 0 basechar 0
AnchorPoint: "Anchor-8" 0 0 basechar 0
AnchorPoint: "Anchor-7" 234 -214 basechar 0
LayerCount: 2
Fore
SplineSet
466 349 m 128,-1,1
 515 324 515 324 536 290.5 c 128,-1,2
 557 257 557 257 557 206 c 0,3,4
 557 105 557 105 485 48 c 128,-1,5
 413 -9 413 -9 284 -10 c 1,6,-1
 239 -58 l 2,7,8
 244 -57 244 -57 253 -57 c 0,9,10
 289 -57 289 -57 312 -74.5 c 128,-1,11
 335 -92 335 -92 335 -125 c 0,12,13
 335 -173 335 -173 295 -201 c 128,-1,14
 255 -229 255 -229 200 -229 c 0,15,16
 157 -229 157 -229 133 -220.5 c 128,-1,17
 109 -212 109 -212 109 -194 c 0,18,19
 109 -188 109 -188 114 -176 c 1,20,21
 156 -189 156 -189 200 -189 c 0,22,23
 238 -189 238 -189 259.5 -172.5 c 128,-1,24
 281 -156 281 -156 281 -132 c 0,25,26
 281 -95 281 -95 233 -95 c 0,27,28
 214 -95 214 -95 192 -101 c 1,29,-1
 177 -75 l 1,30,-1
 237 -8 l 1,31,32
 147 1 147 1 89.5 41.5 c 128,-1,33
 32 82 32 82 32 138 c 0,34,35
 32 160 32 160 44.5 172.5 c 128,-1,36
 57 185 57 185 79 186 c 1,37,38
 83 119 83 119 137.5 79.5 c 128,-1,39
 192 40 192 40 281 40 c 0,40,41
 381 40 381 40 439 82 c 128,-1,42
 497 124 497 124 497 198 c 0,43,44
 497 239 497 239 480.5 265 c 128,-1,45
 464 291 464 291 424.5 309 c 128,-1,46
 385 327 385 327 310 346 c 0,47,48
 202 373 202 373 153 416.5 c 128,-1,49
 104 460 104 460 104 529 c 0,50,51
 104 612 104 612 171 661 c 128,-1,52
 238 710 238 710 352 710 c 0,53,54
 449 710 449 710 513 666.5 c 128,-1,55
 577 623 577 623 588 549 c 1,56,57
 575 536 575 536 556 536 c 0,58,59
 545 536 545 536 537.5 542 c 128,-1,60
 530 548 530 548 525 563 c 0,61,62
 506 612 506 612 461 637 c 128,-1,63
 416 662 416 662 349 662 c 0,64,65
 260 662 260 662 211.5 627.5 c 128,-1,66
 163 593 163 593 163 530 c 0,67,68
 163 496 163 496 178.5 472.5 c 128,-1,69
 194 449 194 449 229.5 431.5 c 128,-1,70
 265 414 265 414 327 398 c 0,71,0
 417 374 417 374 466 349 c 128,-1,1
EndSplineSet
Substitution2: "'locl' Localized Forms in Latin lookup 7 subtable" uni0218
Substitution2: "'locl' Localized Forms in Latin lookup 6 subtable" uni0218
Substitution2: "'aalt' Access All Alternates lookup 0 subtable" uni0218
EndChar

StartChar: uni1E9E
Encoding: 7838 7838 156
Width: 700
Flags: W
LayerCount: 2
Fore
SplineSet
549.5 338.5 m 128,-1,1
 598 296 598 296 598 221 c 0,2,3
 598 151 598 151 566.5 98.5 c 128,-1,4
 535 46 535 46 478.5 18 c 128,-1,5
 422 -10 422 -10 349 -10 c 0,6,7
 291 -10 291 -10 239 8.5 c 128,-1,8
 187 27 187 27 187 59 c 0,9,10
 187 70 187 70 193.5 79.5 c 128,-1,11
 200 89 200 89 210 91 c 1,12,13
 267 40 267 40 351 40 c 0,14,15
 407 40 407 40 449.5 63 c 128,-1,16
 492 86 492 86 515.5 127 c 128,-1,17
 539 168 539 168 539 220 c 0,18,19
 539 285 539 285 493.5 316 c 128,-1,20
 448 347 448 347 370 347 c 0,21,22
 353 347 353 347 344.5 358.5 c 128,-1,23
 336 370 336 370 338 387 c 1,24,-1
 539 550 l 1,25,26
 530 600 530 600 486 629 c 128,-1,27
 442 658 442 658 363 658 c 0,28,29
 281 658 281 658 221.5 607.5 c 128,-1,30
 162 557 162 557 150 469 c 2,31,-1
 84 0 l 1,32,-1
 27 0 l 1,33,-1
 93 469 l 2,34,35
 103 543 103 543 141 597 c 128,-1,36
 179 651 179 651 237 679.5 c 128,-1,37
 295 708 295 708 365 708 c 0,38,39
 436 708 436 708 488 684.5 c 128,-1,40
 540 661 540 661 568.5 621.5 c 128,-1,41
 597 582 597 582 601 534 c 1,42,-1
 423 392 l 1,43,0
 501 381 501 381 549.5 338.5 c 128,-1,1
EndSplineSet
EndChar

StartChar: uni018F
Encoding: 399 399 157
Width: 692
Flags: W
LayerCount: 2
Fore
SplineSet
557.5 638.5 m 128,-1,1
 632 567 632 567 632 427 c 0,2,3
 632 301 632 301 592 202 c 128,-1,4
 552 103 552 103 472 46.5 c 128,-1,5
 392 -10 392 -10 276 -10 c 256,6,7
 160 -10 160 -10 91.5 52 c 128,-1,8
 23 114 23 114 23 239 c 0,9,10
 23 275 23 275 36 363 c 1,11,-1
 570 363 l 1,12,13
 573 393 573 393 573 423 c 0,14,15
 573 541 573 541 515.5 599 c 128,-1,16
 458 657 458 657 360 657 c 0,17,18
 300 657 300 657 251.5 640.5 c 128,-1,19
 203 624 203 624 170 596 c 0,20,21
 154 583 154 583 140 583 c 0,22,23
 121 583 121 583 103 613 c 1,24,25
 146 655 146 655 215.5 682.5 c 128,-1,26
 285 710 285 710 364 710 c 0,27,0
 483 710 483 710 557.5 638.5 c 128,-1,1
469 114.5 m 128,-1,29
 541 188 541 188 563 311 c 1,30,-1
 86 311 l 1,31,32
 81 282 81 282 81 247 c 0,33,34
 81 143 81 143 133.5 92 c 128,-1,35
 186 41 186 41 279 41 c 0,36,28
 397 41 397 41 469 114.5 c 128,-1,29
EndSplineSet
EndChar

StartChar: T
Encoding: 84 84 158
Width: 534
GlyphClass: 2
Flags: W
AnchorPoint: "Anchor-10" 0 0 basechar 0
AnchorPoint: "Anchor-9" 303 660 basechar 0
AnchorPoint: "Anchor-8" 0 0 basechar 0
AnchorPoint: "Anchor-7" 211 0 basechar 0
LayerCount: 2
Fore
SplineSet
561 679 m 0,1,2
 559 665 559 665 550.5 657.5 c 128,-1,3
 542 650 542 650 526 650 c 2,4,-1
 332 650 l 1,5,-1
 241 0 l 1,6,-1
 184 0 l 1,7,-1
 275 650 l 1,8,-1
 49 650 l 1,9,-1
 56 700 l 1,10,-1
 560 700 l 1,11,0
 563 688 563 688 561 679 c 0,1,2
EndSplineSet
EndChar

StartChar: Tbar
Encoding: 358 358 159
Width: 533
GlyphClass: 2
Flags: W
AnchorPoint: "Anchor-10" 0 0 basechar 0
AnchorPoint: "Anchor-9" 303 660 basechar 0
AnchorPoint: "Anchor-8" 0 0 basechar 0
AnchorPoint: "Anchor-7" 211 0 basechar 0
LayerCount: 2
Fore
SplineSet
561 679 m 0,1,2
 559 665 559 665 550.5 657.5 c 128,-1,3
 542 650 542 650 526 650 c 2,4,-1
 332 650 l 1,5,-1
 292 363 l 1,6,-1
 428 363 l 1,7,-1
 421 315 l 1,8,-1
 285 315 l 1,9,-1
 241 0 l 1,10,-1
 184 0 l 1,11,-1
 228 315 l 1,12,-1
 89 315 l 1,13,-1
 96 363 l 1,14,-1
 235 363 l 1,15,-1
 275 650 l 1,16,-1
 49 650 l 1,17,-1
 56 700 l 1,18,-1
 560 700 l 1,19,0
 563 688 563 688 561 679 c 0,1,2
EndSplineSet
EndChar

StartChar: U
Encoding: 85 85 165
Width: 708
GlyphClass: 2
Flags: W
AnchorPoint: "Anchor-10" 662 673 basechar 0
AnchorPoint: "Anchor-9" 388 650 basechar 0
AnchorPoint: "Anchor-8" 389 10 basechar 0
AnchorPoint: "Anchor-7" 297 0 basechar 0
LayerCount: 2
Fore
SplineSet
118 39.5 m 128,-1,1
 59 89 59 89 59 190 c 0,2,3
 59 214 59 214 64 251 c 2,4,-1
 127 700 l 1,5,-1
 184 700 l 1,6,-1
 121 246 l 2,7,8
 117 222 117 222 117 197 c 0,9,10
 117 117 117 117 163.5 78.5 c 128,-1,11
 210 40 210 40 305 40 c 0,12,13
 415 40 415 40 473 90 c 128,-1,14
 531 140 531 140 546 246 c 2,15,-1
 609 700 l 1,16,-1
 666 700 l 1,17,-1
 603 251 l 2,18,19
 584 117 584 117 510 53.5 c 128,-1,20
 436 -10 436 -10 297 -10 c 0,21,0
 177 -10 177 -10 118 39.5 c 128,-1,1
EndSplineSet
EndChar

StartChar: Uhorn
Encoding: 431 431 178
Width: 708
GlyphClass: 2
Flags: W
AnchorPoint: "Anchor-10" 662 673 basechar 0
AnchorPoint: "Anchor-9" 388 650 basechar 0
AnchorPoint: "Anchor-8" 389 10 basechar 0
AnchorPoint: "Anchor-7" 297 0 basechar 0
LayerCount: 2
Fore
SplineSet
797 836 m 128,-1,1
 810 820 810 820 810 794 c 0,2,3
 810 783 810 783 809 777 c 0,4,5
 802 722 802 722 762 690.5 c 128,-1,6
 722 659 722 659 660 655 c 1,7,-1
 663 676 l 1,8,-1
 603 251 l 2,9,10
 584 117 584 117 510 53.5 c 128,-1,11
 436 -10 436 -10 297 -10 c 0,12,13
 177 -10 177 -10 118 39.5 c 128,-1,14
 59 89 59 89 59 190 c 0,15,16
 59 214 59 214 64 251 c 2,17,-1
 127 700 l 1,18,-1
 184 700 l 1,19,-1
 121 246 l 2,20,21
 117 222 117 222 117 197 c 0,22,23
 117 117 117 117 163.5 78.5 c 128,-1,24
 210 40 210 40 305 40 c 0,25,26
 415 40 415 40 473 90 c 128,-1,27
 531 140 531 140 546 246 c 2,28,-1
 609 700 l 1,29,-1
 666 700 l 1,30,-1
 665 695 l 1,31,32
 697 696 697 696 723.5 715 c 128,-1,33
 750 734 750 734 755 767 c 0,34,35
 760 808 760 808 725 825 c 1,36,37
 730 837 730 837 740 844.5 c 128,-1,38
 750 852 750 852 762 852 c 0,39,0
 784 852 784 852 797 836 c 128,-1,1
EndSplineSet
EndChar

StartChar: Uogonek
Encoding: 370 370 186
Width: 708
GlyphClass: 2
Flags: W
AnchorPoint: "Anchor-10" 662 673 basechar 0
AnchorPoint: "Anchor-9" 388 650 basechar 0
AnchorPoint: "Anchor-8" 389 10 basechar 0
AnchorPoint: "Anchor-7" 297 0 basechar 0
LayerCount: 2
Fore
SplineSet
666 700 m 1,0,-1
 603 251 l 2,1,2
 586 134 586 134 528.5 71 c 128,-1,3
 471 8 471 8 365 -6 c 1,4,5
 333 -30 333 -30 313.5 -58 c 128,-1,6
 294 -86 294 -86 294 -114 c 0,7,8
 294 -137 294 -137 307.5 -149 c 128,-1,9
 321 -161 321 -161 346 -161 c 0,10,11
 376 -161 376 -161 400 -150 c 1,12,13
 404 -157 404 -157 404 -167 c 0,14,15
 402 -181 402 -181 383 -190.5 c 128,-1,16
 364 -200 364 -200 330 -200 c 0,17,18
 290 -200 290 -200 266 -179.5 c 128,-1,19
 242 -159 242 -159 242 -125 c 0,20,21
 242 -58 242 -58 314 -10 c 1,22,-1
 297 -10 l 2,23,24
 177 -10 177 -10 118 39.5 c 128,-1,25
 59 89 59 89 59 190 c 0,26,27
 59 214 59 214 64 251 c 2,28,-1
 127 700 l 1,29,-1
 184 700 l 1,30,-1
 121 246 l 2,31,32
 117 222 117 222 117 197 c 0,33,34
 117 117 117 117 163.5 78.5 c 128,-1,35
 210 40 210 40 305 40 c 0,36,37
 415 40 415 40 473 90 c 128,-1,38
 531 140 531 140 546 246 c 2,39,-1
 609 700 l 1,40,-1
 666 700 l 1,0,-1
EndSplineSet
EndChar

StartChar: V
Encoding: 86 86 189
Width: 638
GlyphClass: 2
Flags: W
AnchorPoint: "Anchor-10" 0 0 basechar 0
AnchorPoint: "Anchor-9" 354 660 basechar 0
AnchorPoint: "Anchor-8" 0 0 basechar 0
AnchorPoint: "Anchor-7" 262 0 basechar 0
LayerCount: 2
Fore
SplineSet
649 700 m 1,0,1
 528 310 528 310 293 0 c 1,2,-1
 233 0 l 1,3,4
 83 312 83 312 71 700 c 1,5,-1
 133 700 l 1,6,7
 141 343 141 343 271 61 c 1,8,9
 479 341 479 341 587 700 c 1,10,-1
 649 700 l 1,0,1
EndSplineSet
EndChar

StartChar: W
Encoding: 87 87 190
Width: 856
GlyphClass: 2
Flags: W
AnchorPoint: "Anchor-10" 0 0 basechar 0
AnchorPoint: "Anchor-9" 466 660 basechar 0
AnchorPoint: "Anchor-8" 0 0 basechar 0
AnchorPoint: "Anchor-7" 374 0 basechar 0
LayerCount: 2
Fore
SplineSet
882 700 m 1,0,1
 840 552 840 552 777 396.5 c 128,-1,2
 714 241 714 241 599 0 c 1,3,-1
 537 0 l 1,4,5
 497 244 497 244 480.5 360.5 c 128,-1,6
 464 477 464 477 456 571 c 1,7,8
 419 469 419 469 366 343.5 c 128,-1,9
 313 218 313 218 215 0 c 1,10,-1
 153 0 l 1,11,12
 104 223 104 223 81.5 385 c 128,-1,13
 59 547 59 547 56 700 c 1,14,-1
 113 700 l 1,15,16
 117 449 117 449 194 78 c 1,17,18
 254 205 254 205 312.5 343 c 128,-1,19
 371 481 371 481 456 700 c 1,20,-1
 488 700 l 1,21,22
 520 455 520 455 539 324 c 128,-1,23
 558 193 558 193 580 78 c 1,24,25
 753 437 753 437 829 700 c 1,26,-1
 882 700 l 1,0,1
EndSplineSet
EndChar

StartChar: X
Encoding: 88 88 195
Width: 582
GlyphClass: 2
Flags: W
AnchorPoint: "Anchor-10" 0 0 basechar 0
AnchorPoint: "Anchor-9" 336 660 basechar 0
AnchorPoint: "Anchor-8" 0 0 basechar 0
AnchorPoint: "Anchor-7" 244 0 basechar 0
LayerCount: 2
Fore
SplineSet
521.5 574 m 128,-1,1
 482 517 482 517 436.5 472 c 128,-1,2
 391 427 391 427 324 370 c 1,3,4
 378 311 378 311 413.5 262 c 128,-1,5
 449 213 449 213 473.5 147.5 c 128,-1,6
 498 82 498 82 501 0 c 1,7,-1
 439 0 l 1,8,9
 438 70 438 70 416.5 128 c 128,-1,10
 395 186 395 186 362.5 232 c 128,-1,11
 330 278 330 278 281 333 c 1,12,13
 182 249 182 249 120.5 175 c 128,-1,14
 59 101 59 101 29 0 c 1,15,-1
 -33 0 l 1,16,17
 -7 82 -7 82 36 148 c 128,-1,18
 79 214 79 214 128.5 263 c 128,-1,19
 178 312 178 312 247 370 c 1,20,21
 196 427 196 427 163 472 c 128,-1,22
 130 517 130 517 107 574 c 128,-1,23
 84 631 84 631 80 700 c 1,24,-1
 140 700 l 1,25,26
 146 612 146 612 184 546 c 128,-1,27
 222 480 222 480 291 406 c 1,28,29
 380 481 380 481 436.5 546.5 c 128,-1,30
 493 612 493 612 524 700 c 1,31,-1
 584 700 l 1,32,0
 561 631 561 631 521.5 574 c 128,-1,1
EndSplineSet
EndChar

StartChar: Y
Encoding: 89 89 196
Width: 590
GlyphClass: 2
Flags: W
AnchorPoint: "Anchor-10" 0 0 basechar 0
AnchorPoint: "Anchor-9" 330 660 basechar 0
AnchorPoint: "Anchor-8" 0 0 basechar 0
AnchorPoint: "Anchor-7" 238 0 basechar 0
LayerCount: 2
Fore
SplineSet
611 700 m 1,0,-1
 308 294 l 1,1,-1
 267 0 l 1,2,-1
 210 0 l 1,3,-1
 251 294 l 1,4,-1
 61 700 l 1,5,-1
 124 700 l 1,6,-1
 287 342 l 1,7,-1
 549 700 l 1,8,-1
 611 700 l 1,0,-1
EndSplineSet
EndChar

StartChar: Z
Encoding: 90 90 205
Width: 580
GlyphClass: 2
Flags: W
AnchorPoint: "Anchor-10" 0 0 basechar 0
AnchorPoint: "Anchor-9" 325 660 basechar 0
AnchorPoint: "Anchor-8" 0 0 basechar 0
AnchorPoint: "Anchor-7" 233 0 basechar 0
LayerCount: 2
Fore
SplineSet
554 651 m 1,0,-1
 72 50 l 1,1,-1
 478 50 l 1,2,-1
 471 0 l 1,3,-1
 -3 0 l 1,4,-1
 4 50 l 1,5,-1
 490 650 l 1,6,-1
 86 650 l 1,7,-1
 93 700 l 1,8,-1
 561 700 l 1,9,-1
 554 651 l 1,0,-1
EndSplineSet
EndChar

StartChar: a
Encoding: 97 97 210
Width: 558
GlyphClass: 2
Flags: W
AnchorPoint: "Anchor-10" 0 0 basechar 0
AnchorPoint: "Anchor-9" 297 550 basechar 0
AnchorPoint: "Anchor-8" 446 10 basechar 0
AnchorPoint: "Anchor-7" 222 0 basechar 0
LayerCount: 2
Fore
SplineSet
438 132 m 2,0,1
 433 97 433 97 433 81 c 0,2,3
 433 41 433 41 455 17 c 1,4,5
 449 9 449 9 437 2 c 128,-1,6
 425 -5 425 -5 415 -5 c 0,7,8
 397 -5 397 -5 386.5 15.5 c 128,-1,9
 376 36 376 36 376 73 c 2,10,-1
 377 91 l 1,11,12
 338 44 338 44 284.5 17 c 128,-1,13
 231 -10 231 -10 169 -10 c 0,14,15
 99 -10 99 -10 55.5 29 c 128,-1,16
 12 68 12 68 12 135 c 0,17,18
 12 233 12 233 111.5 283 c 128,-1,19
 211 333 211 333 412 341 c 1,20,-1
 416 373 l 2,21,22
 418 384 418 384 418 403 c 0,23,24
 418 457 418 457 386.5 485.5 c 128,-1,25
 355 514 355 514 293 514 c 0,26,27
 239 514 239 514 194 493.5 c 128,-1,28
 149 473 149 473 105 434 c 0,29,30
 100 429 100 429 91 429 c 256,31,32
 82 429 82 429 73 436.5 c 128,-1,33
 64 444 64 444 58 457 c 1,34,35
 108 506 108 506 169 533 c 128,-1,36
 230 560 230 560 300 560 c 0,37,38
 382 560 382 560 428 520 c 128,-1,39
 474 480 474 480 474 408 c 0,40,41
 474 391 474 391 471 373 c 2,42,-1
 438 132 l 2,0,1
386 159 m 1,44,-1
 405 295 l 1,45,46
 229 289 229 289 148.5 251 c 128,-1,47
 68 213 68 213 68 136 c 0,48,49
 68 89 68 89 96.5 62.5 c 128,-1,50
 125 36 125 36 176 36 c 0,51,43
 294 36 294 36 386 159 c 1,44,-1
EndSplineSet
Substitution2: "Single Substitution lookup 20 subtable" ordfeminine
Substitution2: "'aalt' Access All Alternates lookup 0 subtable" ordfeminine
EndChar

StartChar: uni0251
Encoding: 593 593 229
Width: 606
Flags: W
LayerCount: 2
Fore
SplineSet
498 339 m 2,0,1
 481 215 481 215 472.5 149.5 c 128,-1,2
 464 84 464 84 464 53 c 256,3,4
 464 22 464 22 473 8 c 1,5,6
 452 -4 452 -4 433 -4 c 0,7,8
 408 -4 408 -4 408 48 c 2,9,-1
 408 59 l 1,10,11
 341 -10 341 -10 227 -10 c 0,12,13
 137 -10 137 -10 79.5 48.5 c 128,-1,14
 22 107 22 107 22 225 c 0,15,16
 22 321 22 321 55 397 c 128,-1,17
 88 473 88 473 153.5 516.5 c 128,-1,18
 219 560 219 560 313 560 c 0,19,20
 363 560 363 560 403.5 545 c 128,-1,21
 444 530 444 530 469 507 c 1,22,-1
 475 550 l 1,23,-1
 528 550 l 1,24,-1
 498 339 l 2,0,1
415 120 m 1,26,27
 420 169 420 169 441 309 c 0,28,29
 445 343 445 343 461 454 c 1,30,31
 434 482 434 482 395 499 c 128,-1,32
 356 516 356 516 309 516 c 0,33,34
 233 516 233 516 181 477 c 128,-1,35
 129 438 129 438 103.5 372 c 128,-1,36
 78 306 78 306 78 225 c 0,37,38
 78 131 78 131 119.5 83.5 c 128,-1,39
 161 36 161 36 235 36 c 0,40,25
 341 36 341 36 415 120 c 1,26,27
EndSplineSet
EndChar

StartChar: aogonek
Encoding: 261 261 231
Width: 558
GlyphClass: 2
Flags: W
AnchorPoint: "Anchor-10" 0 0 basechar 0
AnchorPoint: "Anchor-9" 297 550 basechar 0
AnchorPoint: "Anchor-8" 446 10 basechar 0
AnchorPoint: "Anchor-7" 222 0 basechar 0
LayerCount: 2
Fore
SplineSet
438 132 m 2,0,1
 433 97 433 97 433 81 c 0,2,3
 433 41 433 41 455 17 c 1,4,5
 450 11 450 11 442 5 c 128,-1,6
 434 -1 434 -1 426 -3 c 0,7,8
 392 -27 392 -27 371.5 -56 c 128,-1,9
 351 -85 351 -85 351 -114 c 0,10,11
 351 -137 351 -137 364.5 -149 c 128,-1,12
 378 -161 378 -161 403 -161 c 0,13,14
 433 -161 433 -161 457 -150 c 1,15,16
 461 -157 461 -157 461 -167 c 0,17,18
 459 -181 459 -181 440 -190.5 c 128,-1,19
 421 -200 421 -200 387 -200 c 0,20,21
 347 -200 347 -200 323 -179.5 c 128,-1,22
 299 -159 299 -159 299 -125 c 0,23,24
 299 -46 299 -46 394 4 c 1,25,26
 376 25 376 25 376 72 c 2,27,-1
 377 91 l 1,28,29
 338 44 338 44 284.5 17 c 128,-1,30
 231 -10 231 -10 169 -10 c 0,31,32
 99 -10 99 -10 55.5 29 c 128,-1,33
 12 68 12 68 12 135 c 0,34,35
 12 233 12 233 111.5 283 c 128,-1,36
 211 333 211 333 412 341 c 1,37,-1
 416 373 l 2,38,39
 418 384 418 384 418 403 c 0,40,41
 418 457 418 457 386.5 485.5 c 128,-1,42
 355 514 355 514 293 514 c 0,43,44
 239 514 239 514 194 493.5 c 128,-1,45
 149 473 149 473 105 434 c 0,46,47
 100 429 100 429 91 429 c 256,48,49
 82 429 82 429 73 436.5 c 128,-1,50
 64 444 64 444 58 457 c 1,51,52
 108 506 108 506 169 533 c 128,-1,53
 230 560 230 560 300 560 c 0,54,55
 382 560 382 560 428 520 c 128,-1,56
 474 480 474 480 474 408 c 0,57,58
 474 391 474 391 471 373 c 2,59,-1
 438 132 l 2,0,1
386 159 m 1,61,-1
 405 295 l 1,62,63
 229 289 229 289 148.5 251 c 128,-1,64
 68 213 68 213 68 136 c 0,65,66
 68 89 68 89 96.5 62.5 c 128,-1,67
 125 36 125 36 176 36 c 0,68,60
 294 36 294 36 386 159 c 1,61,-1
EndSplineSet
EndChar

StartChar: ae
Encoding: 230 230 235
Width: 928
GlyphClass: 2
Flags: W
AnchorPoint: "Anchor-10" 0 0 basechar 0
AnchorPoint: "Anchor-9" 469 550 basechar 0
AnchorPoint: "Anchor-8" 0 0 basechar 0
AnchorPoint: "Anchor-7" 392 0 basechar 0
LayerCount: 2
Fore
SplineSet
459 278 m 1,0,1
 455 249 455 249 455 211 c 0,2,3
 455 123 455 123 496.5 79.5 c 128,-1,4
 538 36 538 36 611 36 c 0,5,6
 672 36 672 36 713 59.5 c 128,-1,7
 754 83 754 83 788 131 c 0,8,9
 797 144 797 144 808 144 c 0,10,11
 822 144 822 144 843 128 c 1,12,13
 810 61 810 61 751 24.5 c 128,-1,14
 692 -12 692 -12 605 -12 c 0,15,16
 538 -12 538 -12 489.5 17 c 128,-1,17
 441 46 441 46 418 103 c 1,18,19
 372 46 372 46 312.5 17 c 128,-1,20
 253 -12 253 -12 171 -12 c 0,21,22
 100 -12 100 -12 55.5 26.5 c 128,-1,23
 11 65 11 65 11 126 c 0,24,25
 11 205 11 205 64 248 c 128,-1,26
 117 291 117 291 203.5 306 c 128,-1,27
 290 321 290 321 411 322 c 1,28,29
 420 390 420 390 420 405 c 0,30,31
 420 462 420 462 386 488 c 128,-1,32
 352 514 352 514 288 514 c 0,33,34
 188 514 188 514 106 442 c 0,35,36
 96 434 96 434 89 434 c 0,37,38
 75 434 75 434 58 464 c 1,39,40
 104 509 104 509 163 534.5 c 128,-1,41
 222 560 222 560 292 560 c 0,42,43
 360 560 360 560 406.5 533 c 128,-1,44
 453 506 453 506 468 453 c 1,45,46
 504 503 504 503 558 531.5 c 128,-1,47
 612 560 612 560 680 560 c 0,48,49
 878 560 878 560 878 362 c 0,50,51
 878 333 878 333 866 279 c 1,52,-1
 459 278 l 1,0,1
540.5 463 m 128,-1,54
 488 410 488 410 467 322 c 1,55,-1
 821 323 l 1,56,57
 825 343 825 343 825 367 c 0,58,59
 825 439 825 439 787 477.5 c 128,-1,60
 749 516 749 516 674 516 c 0,61,53
 593 516 593 516 540.5 463 c 128,-1,54
309.5 68 m 128,-1,63
 366 101 366 101 402 161 c 1,64,65
 399 184 399 184 399 209 c 0,66,67
 399 248 399 248 403 277 c 1,68,69
 246 277 246 277 156.5 247.5 c 128,-1,70
 67 218 67 218 67 133 c 0,71,72
 67 89 67 89 96.5 62 c 128,-1,73
 126 35 126 35 176 35 c 0,74,62
 253 35 253 35 309.5 68 c 128,-1,63
EndSplineSet
EndChar

StartChar: b
Encoding: 98 98 237
Width: 610
Flags: W
LayerCount: 2
Fore
SplineSet
495.5 500.5 m 128,-1,1
 552 441 552 441 552 336 c 0,2,3
 552 234 552 234 519.5 155.5 c 128,-1,4
 487 77 487 77 424 33.5 c 128,-1,5
 361 -10 361 -10 272 -10 c 0,6,7
 217 -10 217 -10 174 7.5 c 128,-1,8
 131 25 131 25 105 58 c 1,9,10
 97 32 97 32 86.5 16 c 128,-1,11
 76 0 76 0 65 0 c 0,12,13
 43 0 43 0 26 12 c 1,14,15
 50 51 50 51 62 132 c 2,16,-1
 155 791 l 1,17,-1
 211 791 l 1,18,-1
 171 509 l 1,19,20
 248 560 248 560 342 560 c 0,21,0
 439 560 439 560 495.5 500.5 c 128,-1,1
392 76.5 m 128,-1,23
 443 115 443 115 469.5 182.5 c 128,-1,24
 496 250 496 250 496 336 c 0,25,26
 496 421 496 421 452 467.5 c 128,-1,27
 408 514 408 514 334 514 c 0,28,29
 246 514 246 514 164 454 c 1,30,-1
 116 114 l 1,31,32
 142 77 142 77 181.5 57.5 c 128,-1,33
 221 38 221 38 271 38 c 0,34,22
 341 38 341 38 392 76.5 c 128,-1,23
EndSplineSet
EndChar

StartChar: c
Encoding: 99 99 238
Width: 547
GlyphClass: 2
Flags: W
AnchorPoint: "Anchor-10" 0 0 basechar 0
AnchorPoint: "Anchor-9" 307 550 basechar 0
AnchorPoint: "Anchor-8" 0 0 basechar 0
AnchorPoint: "Anchor-7" 230 0 basechar 0
LayerCount: 2
Fore
SplineSet
79.5 55 m 128,-1,1
 17 120 17 120 17 232 c 0,2,3
 17 329 17 329 52.5 403.5 c 128,-1,4
 88 478 88 478 152.5 519 c 128,-1,5
 217 560 217 560 301 560 c 0,6,7
 395 560 395 560 447 514.5 c 128,-1,8
 499 469 499 469 500 387 c 1,9,10
 482 377 482 377 465 377 c 0,11,12
 456 377 456 377 450.5 383 c 128,-1,13
 445 389 445 389 443 405 c 0,14,15
 438 460 438 460 400.5 487.5 c 128,-1,16
 363 515 363 515 295 515 c 0,17,18
 231 515 231 515 180.5 480 c 128,-1,19
 130 445 130 445 102 382 c 128,-1,20
 74 319 74 319 74 238 c 0,21,22
 74 145 74 145 121.5 91 c 128,-1,23
 169 37 169 37 250 37 c 0,24,25
 310 37 310 37 349.5 60.5 c 128,-1,26
 389 84 389 84 423 139 c 1,27,28
 436 139 436 139 444 131.5 c 128,-1,29
 452 124 452 124 452 111 c 0,30,31
 452 79 452 79 424.5 51 c 128,-1,32
 397 23 397 23 350.5 6.5 c 128,-1,33
 304 -10 304 -10 251 -10 c 0,34,0
 142 -10 142 -10 79.5 55 c 128,-1,1
EndSplineSet
EndChar

StartChar: ccedilla
Encoding: 231 231 241
Width: 547
GlyphClass: 2
Flags: W
AnchorPoint: "Anchor-10" 0 0 basechar 0
AnchorPoint: "Anchor-9" 0 0 basechar 0
AnchorPoint: "Anchor-8" 0 0 basechar 0
AnchorPoint: "Anchor-7" 200 -214 basechar 0
LayerCount: 2
Fore
SplineSet
180.5 480 m 128,-1,1
 130 445 130 445 102 382 c 128,-1,2
 74 319 74 319 74 238 c 0,3,4
 74 145 74 145 121.5 91 c 128,-1,5
 169 37 169 37 250 37 c 0,6,7
 310 37 310 37 349.5 60.5 c 128,-1,8
 389 84 389 84 423 139 c 1,9,10
 436 139 436 139 444 131.5 c 128,-1,11
 452 124 452 124 452 111 c 0,12,13
 452 79 452 79 424.5 51 c 128,-1,14
 397 23 397 23 350.5 6.5 c 128,-1,15
 304 -10 304 -10 251 -10 c 2,16,-1
 250 -10 l 1,17,-1
 205 -58 l 2,18,19
 210 -57 210 -57 219 -57 c 0,20,21
 255 -57 255 -57 278 -74.5 c 128,-1,22
 301 -92 301 -92 301 -125 c 0,23,24
 301 -173 301 -173 261 -201 c 128,-1,25
 221 -229 221 -229 166 -229 c 0,26,27
 123 -229 123 -229 99 -220.5 c 128,-1,28
 75 -212 75 -212 75 -194 c 0,29,30
 75 -188 75 -188 80 -176 c 1,31,32
 122 -189 122 -189 166 -189 c 0,33,34
 204 -189 204 -189 225.5 -172.5 c 128,-1,35
 247 -156 247 -156 247 -132 c 0,36,37
 247 -95 247 -95 199 -95 c 0,38,39
 180 -95 180 -95 158 -101 c 1,40,-1
 143 -75 l 1,41,-1
 204 -7 l 1,42,43
 116 7 116 7 66.5 70 c 128,-1,44
 17 133 17 133 17 232 c 0,45,46
 17 329 17 329 52.5 403.5 c 128,-1,47
 88 478 88 478 152.5 519 c 128,-1,48
 217 560 217 560 301 560 c 0,49,50
 395 560 395 560 447 514.5 c 128,-1,51
 499 469 499 469 500 387 c 1,52,53
 482 377 482 377 465 377 c 0,54,55
 456 377 456 377 450.5 383 c 128,-1,56
 445 389 445 389 443 405 c 0,57,58
 438 460 438 460 400.5 487.5 c 128,-1,59
 363 515 363 515 295 515 c 0,60,0
 231 515 231 515 180.5 480 c 128,-1,1
EndSplineSet
EndChar

StartChar: d
Encoding: 100 100 244
Width: 598
GlyphClass: 2
Flags: W
AnchorPoint: "Anchor-10" 598 550 basechar 0
AnchorPoint: "Anchor-9" 347 750 basechar 0
AnchorPoint: "Anchor-8" 0 0 basechar 0
AnchorPoint: "Anchor-7" 242 0 basechar 0
LayerCount: 2
Fore
SplineSet
468 128 m 2,0,1
 461 80 461 80 461 48 c 0,2,3
 461 32 461 32 465 8 c 1,4,5
 446 -4 446 -4 428 -4 c 0,6,7
 405 -4 405 -4 405 46 c 2,8,-1
 405 63 l 1,9,10
 368 27 368 27 321 8.5 c 128,-1,11
 274 -10 274 -10 220 -10 c 0,12,13
 127 -10 127 -10 74 50.5 c 128,-1,14
 21 111 21 111 21 216 c 0,15,16
 21 320 21 320 57 397.5 c 128,-1,17
 93 475 93 475 158.5 517.5 c 128,-1,18
 224 560 224 560 312 560 c 0,19,20
 355 560 355 560 397.5 546 c 128,-1,21
 440 532 440 532 467 509 c 1,22,-1
 506 791 l 1,23,-1
 561 791 l 1,24,-1
 468 128 l 2,0,1
327 59 m 128,-1,26
 375 81 375 81 413 124 c 1,27,-1
 459 454 l 1,28,29
 431 483 431 483 391.5 499 c 128,-1,30
 352 515 352 515 307 515 c 0,31,32
 239 515 239 515 187 478 c 128,-1,33
 135 441 135 441 106.5 374 c 128,-1,34
 78 307 78 307 78 219 c 256,35,36
 78 131 78 131 116.5 84 c 128,-1,37
 155 37 155 37 226 37 c 0,38,25
 279 37 279 37 327 59 c 128,-1,26
EndSplineSet
EndChar

StartChar: eth
Encoding: 240 240 245
Width: 547
Flags: W
LayerCount: 2
Fore
SplineSet
496 353 m 0,1,2
 496 181 496 181 432 84.5 c 128,-1,3
 368 -12 368 -12 232 -12 c 0,4,5
 159 -12 159 -12 110.5 19.5 c 128,-1,6
 62 51 62 51 39 102.5 c 128,-1,7
 16 154 16 154 16 217 c 0,8,9
 16 316 16 316 47 393.5 c 128,-1,10
 78 471 78 471 140.5 515.5 c 128,-1,11
 203 560 203 560 294 560 c 0,12,13
 369 560 369 560 414 521 c 1,14,15
 387 601 387 601 328 666 c 1,16,-1
 211 600 l 1,17,-1
 187 641 l 1,18,-1
 293 701 l 1,19,20
 255 733 255 733 216 755 c 1,21,-1
 257 794 l 1,22,23
 305 763 305 763 341 728 c 1,24,-1
 460 795 l 1,25,-1
 484 753 l 1,26,-1
 376 692 l 1,27,0
 496 555 496 555 496 353 c 0,1,2
387.5 116 m 128,-1,29
 438 198 438 198 438 331 c 0,30,31
 438 414 438 414 402 464 c 128,-1,32
 366 514 366 514 289 514 c 0,33,34
 181 514 181 514 126 432 c 128,-1,35
 71 350 71 350 71 218 c 0,36,37
 71 134 71 134 112 84 c 128,-1,38
 153 34 153 34 232 34 c 0,39,28
 337 34 337 34 387.5 116 c 128,-1,29
EndSplineSet
EndChar

StartChar: dcroat
Encoding: 273 273 247
Width: 602
GlyphClass: 2
Flags: W
AnchorPoint: "Anchor-10" 598 550 basechar 0
AnchorPoint: "Anchor-9" 347 750 basechar 0
AnchorPoint: "Anchor-8" 0 0 basechar 0
AnchorPoint: "Anchor-7" 242 0 basechar 0
LayerCount: 2
Fore
SplineSet
638 660 m 1,0,-1
 543 660 l 1,1,-1
 468 128 l 2,2,3
 461 80 461 80 461 48 c 0,4,5
 461 32 461 32 465 8 c 1,6,7
 446 -4 446 -4 428 -4 c 0,8,9
 405 -4 405 -4 405 46 c 2,10,-1
 405 63 l 1,11,12
 368 27 368 27 321 8.5 c 128,-1,13
 274 -10 274 -10 220 -10 c 0,14,15
 127 -10 127 -10 74 50.5 c 128,-1,16
 21 111 21 111 21 216 c 0,17,18
 21 320 21 320 57 397.5 c 128,-1,19
 93 475 93 475 158.5 517.5 c 128,-1,20
 224 560 224 560 312 560 c 0,21,22
 355 560 355 560 397.5 546 c 128,-1,23
 440 532 440 532 467 509 c 1,24,-1
 488 660 l 1,25,-1
 327 660 l 1,26,-1
 332 700 l 1,27,-1
 493 700 l 1,28,-1
 506 791 l 1,29,-1
 561 791 l 1,30,-1
 548 700 l 1,31,-1
 643 700 l 1,32,-1
 638 660 l 1,0,-1
327 59 m 128,-1,34
 375 81 375 81 413 124 c 1,35,-1
 459 454 l 1,36,37
 431 483 431 483 391.5 499 c 128,-1,38
 352 515 352 515 307 515 c 0,39,40
 239 515 239 515 187 478 c 128,-1,41
 135 441 135 441 106.5 374 c 128,-1,42
 78 307 78 307 78 219 c 256,43,44
 78 131 78 131 116.5 84 c 128,-1,45
 155 37 155 37 226 37 c 0,46,33
 279 37 279 37 327 59 c 128,-1,34
EndSplineSet
EndChar

StartChar: e
Encoding: 101 101 250
Width: 560
GlyphClass: 2
Flags: W
AnchorPoint: "Anchor-10" 0 0 basechar 0
AnchorPoint: "Anchor-9" 306 550 basechar 0
AnchorPoint: "Anchor-8" 335 10 basechar 0
AnchorPoint: "Anchor-7" 233 0 basechar 0
LayerCount: 2
Fore
SplineSet
86 268 m 1,0,1
 84 240 84 240 84 224 c 0,2,3
 84 136 84 136 127 87 c 128,-1,4
 170 38 170 38 247 38 c 0,5,6
 366 38 366 38 413 124 c 0,7,8
 423 141 423 141 438 141 c 0,9,10
 454 141 454 141 473 125 c 1,11,12
 441 58 441 58 383 24 c 128,-1,13
 325 -10 325 -10 243 -10 c 0,14,15
 142 -10 142 -10 84 51.5 c 128,-1,16
 26 113 26 113 26 221 c 0,17,18
 26 324 26 324 60.5 400.5 c 128,-1,19
 95 477 95 477 158 518.5 c 128,-1,20
 221 560 221 560 306 560 c 0,21,22
 403 560 403 560 455 509 c 128,-1,23
 507 458 507 458 507 362 c 0,24,25
 507 322 507 322 499 268 c 1,26,-1
 86 268 l 1,0,1
165 461 m 128,-1,28
 110 408 110 408 92 314 c 1,29,-1
 448 314 l 1,30,31
 452 334 452 334 452 364 c 0,32,33
 452 438 452 438 414 476 c 128,-1,34
 376 514 376 514 302 514 c 0,35,27
 220 514 220 514 165 461 c 128,-1,28
EndSplineSet
EndChar

StartChar: eogonek
Encoding: 281 281 266
Width: 560
GlyphClass: 2
Flags: W
AnchorPoint: "Anchor-10" 0 0 basechar 0
AnchorPoint: "Anchor-9" 306 550 basechar 0
AnchorPoint: "Anchor-8" 335 10 basechar 0
AnchorPoint: "Anchor-7" 233 0 basechar 0
LayerCount: 2
Fore
SplineSet
86 268 m 1,0,1
 84 240 84 240 84 224 c 0,2,3
 84 136 84 136 127 87 c 128,-1,4
 170 38 170 38 247 38 c 0,5,6
 366 38 366 38 413 124 c 0,7,8
 423 141 423 141 438 141 c 0,9,10
 454 141 454 141 473 125 c 1,11,12
 424 24 424 24 316 -2 c 1,13,14
 281 -26 281 -26 260.5 -55.5 c 128,-1,15
 240 -85 240 -85 240 -114 c 0,16,17
 240 -137 240 -137 253.5 -149 c 128,-1,18
 267 -161 267 -161 292 -161 c 0,19,20
 322 -161 322 -161 346 -150 c 1,21,22
 350 -157 350 -157 350 -167 c 0,23,24
 348 -181 348 -181 329 -190.5 c 128,-1,25
 310 -200 310 -200 276 -200 c 0,26,27
 236 -200 236 -200 212 -179.5 c 128,-1,28
 188 -159 188 -159 188 -125 c 0,29,30
 188 -56 188 -56 260 -10 c 1,31,-1
 243 -10 l 2,32,33
 142 -10 142 -10 84 51.5 c 128,-1,34
 26 113 26 113 26 221 c 0,35,36
 26 324 26 324 60.5 400.5 c 128,-1,37
 95 477 95 477 158 518.5 c 128,-1,38
 221 560 221 560 306 560 c 0,39,40
 403 560 403 560 455 509 c 128,-1,41
 507 458 507 458 507 362 c 0,42,43
 507 322 507 322 499 268 c 1,44,-1
 86 268 l 1,0,1
165 461 m 128,-1,46
 110 408 110 408 92 314 c 1,47,-1
 448 314 l 1,48,49
 452 334 452 334 452 364 c 0,50,51
 452 438 452 438 414 476 c 128,-1,52
 376 514 376 514 302 514 c 0,53,45
 220 514 220 514 165 461 c 128,-1,46
EndSplineSet
EndChar

StartChar: uni0259
Encoding: 601 601 268
Width: 560
GlyphClass: 2
Flags: W
AnchorPoint: "Anchor-10" 0 0 basechar 0
AnchorPoint: "Anchor-9" 327 550 basechar 0
AnchorPoint: "Anchor-8" 225 540 basechar 0
AnchorPoint: "Anchor-7" 254 0 basechar 0
LayerCount: 2
Fore
SplineSet
476 498.5 m 128,-1,1
 534 437 534 437 534 329 c 0,2,3
 534 226 534 226 499.5 149.5 c 128,-1,4
 465 73 465 73 402 31.5 c 128,-1,5
 339 -10 339 -10 255 -10 c 0,6,7
 157 -10 157 -10 105.5 41 c 128,-1,8
 54 92 54 92 54 188 c 0,9,10
 54 228 54 228 62 282 c 1,11,-1
 475 282 l 1,12,13
 477 310 477 310 477 327 c 0,14,15
 477 415 477 415 434 463.5 c 128,-1,16
 391 512 391 512 314 512 c 0,17,18
 254 512 254 512 213 491 c 128,-1,19
 172 470 172 470 147 427 c 0,20,21
 139 410 139 410 122 410 c 0,22,23
 107 410 107 410 88 425 c 1,24,25
 120 492 120 492 177.5 526 c 128,-1,26
 235 560 235 560 317 560 c 0,27,0
 418 560 418 560 476 498.5 c 128,-1,1
395 89 m 128,-1,29
 450 142 450 142 469 236 c 1,30,-1
 112 236 l 1,31,32
 108 206 108 206 108 187 c 0,33,34
 108 113 108 113 146.5 74.5 c 128,-1,35
 185 36 185 36 259 36 c 0,36,28
 340 36 340 36 395 89 c 128,-1,29
EndSplineSet
EndChar

StartChar: f
Encoding: 102 102 269
Width: 335
Flags: W
LayerCount: 2
Fore
SplineSet
377 771.5 m 128,-1,1
 399 761 399 761 397 741 c 0,2,3
 397 732 397 732 392 725.5 c 128,-1,4
 387 719 387 719 381 719 c 0,5,6
 358 735 358 735 310 735 c 0,7,8
 264 735 264 735 236 706.5 c 128,-1,9
 208 678 208 678 200 623 c 2,10,-1
 190 550 l 1,11,-1
 327 550 l 1,12,-1
 321 506 l 1,13,-1
 184 506 l 1,14,-1
 113 0 l 1,15,-1
 58 0 l 1,16,-1
 129 506 l 1,17,-1
 26 506 l 1,18,-1
 32 550 l 1,19,-1
 135 550 l 1,20,-1
 145 624 l 2,21,22
 155 697 155 697 200.5 739.5 c 128,-1,23
 246 782 246 782 312 782 c 0,24,0
 355 782 355 782 377 771.5 c 128,-1,1
EndSplineSet
EndChar

StartChar: g
Encoding: 103 103 270
Width: 585
GlyphClass: 2
Flags: W
AnchorPoint: "Anchor-10" 0 0 basechar 0
AnchorPoint: "Anchor-9" 313 550 basechar 0
AnchorPoint: "Anchor-8" 0 0 basechar 0
AnchorPoint: "Anchor-7" 208 -192 basechar 0
LayerCount: 2
Fore
SplineSet
580 530 m 1,1,2
 500 530 500 530 462 501 c 1,3,4
 498 460 498 460 498 403 c 0,5,6
 498 184 498 184 253 184 c 0,7,8
 173 184 173 184 137 172 c 128,-1,9
 101 160 101 160 101 133 c 0,10,11
 101 110 101 110 136.5 100.5 c 128,-1,12
 172 91 172 91 260 91 c 0,13,14
 368 91 368 91 425.5 59 c 128,-1,15
 483 27 483 27 483 -34 c 0,16,17
 483 -117 483 -117 413.5 -159.5 c 128,-1,18
 344 -202 344 -202 209 -202 c 0,19,20
 102 -202 102 -202 42.5 -167 c 128,-1,21
 -17 -132 -17 -132 -17 -68 c 0,22,23
 -17 -19 -17 -19 16.5 15.5 c 128,-1,24
 50 50 50 50 106 59 c 1,25,-1
 106 62 l 1,26,27
 81 67 81 67 66 85 c 128,-1,28
 51 103 51 103 51 126 c 0,29,30
 51 160 51 160 76 182 c 128,-1,31
 101 204 101 204 145 210 c 1,32,33
 107 231 107 231 85.5 266.5 c 128,-1,34
 64 302 64 302 64 346 c 0,35,36
 64 452 64 452 125.5 506 c 128,-1,37
 187 560 187 560 306 560 c 0,38,39
 381 560 381 560 433 527 c 1,40,41
 462 551 462 551 494 565 c 128,-1,42
 526 579 526 579 554 579 c 0,43,44
 570 579 570 579 577 573.5 c 128,-1,45
 584 568 584 568 584 555 c 256,46,0
 584 542 584 542 580 530 c 1,1,2
441 402 m 0,48,49
 441 515 441 515 300 515 c 0,50,51
 212 515 212 515 166.5 473 c 128,-1,52
 121 431 121 431 121 349 c 0,53,54
 121 292 121 292 157 261.5 c 128,-1,55
 193 231 193 231 260 231 c 0,56,47
 441 231 441 231 441 402 c 0,48,49
90.5 16 m 128,-1,58
 41 -10 41 -10 41 -63 c 0,59,60
 41 -155 41 -155 212 -155 c 0,61,62
 320 -155 320 -155 372.5 -127 c 128,-1,63
 425 -99 425 -99 425 -41 c 0,64,65
 425 2 425 2 381 22 c 128,-1,66
 337 42 337 42 242 42 c 0,67,57
 140 42 140 42 90.5 16 c 128,-1,58
EndSplineSet
EndChar

StartChar: h
Encoding: 104 104 277
Width: 630
GlyphClass: 2
Flags: W
AnchorPoint: "Anchor-10" 0 0 basechar 0
AnchorPoint: "Anchor-9" 167 710 basechar 0
AnchorPoint: "Anchor-8" 0 0 basechar 0
AnchorPoint: "Anchor-7" 258 0 basechar 0
LayerCount: 2
Fore
SplineSet
493 519 m 128,-1,1
 537 478 537 478 537 407 c 0,2,3
 537 398 537 398 535 376 c 2,4,-1
 482 0 l 1,5,-1
 427 0 l 1,6,-1
 479 369 l 2,7,8
 481 380 481 380 481 401 c 0,9,10
 481 456 481 456 450 484.5 c 128,-1,11
 419 513 419 513 359 513 c 0,12,13
 312 513 312 513 255.5 492.5 c 128,-1,14
 199 472 199 472 150 438 c 1,15,-1
 89 0 l 1,16,-1
 34 0 l 1,17,-1
 145 791 l 1,18,-1
 200 791 l 1,19,-1
 158 492 l 1,20,21
 264 560 264 560 371 560 c 0,22,0
 449 560 449 560 493 519 c 128,-1,1
EndSplineSet
EndChar

StartChar: hbar
Encoding: 295 295 278
Width: 635
GlyphClass: 2
Flags: W
AnchorPoint: "Anchor-10" 0 0 basechar 0
AnchorPoint: "Anchor-9" 172 710 basechar 0
AnchorPoint: "Anchor-8" 0 0 basechar 0
AnchorPoint: "Anchor-7" 263 0 basechar 0
LayerCount: 2
Fore
SplineSet
498 519 m 128,-1,1
 542 478 542 478 542 407 c 0,2,3
 542 398 542 398 540 376 c 2,4,-1
 487 0 l 1,5,-1
 432 0 l 1,6,-1
 484 369 l 2,7,8
 486 380 486 380 486 401 c 0,9,10
 486 456 486 456 455 484.5 c 128,-1,11
 424 513 424 513 364 513 c 0,12,13
 317 513 317 513 260.5 492.5 c 128,-1,14
 204 472 204 472 155 438 c 1,15,-1
 94 0 l 1,16,-1
 39 0 l 1,17,-1
 131 654 l 1,18,-1
 40 654 l 1,19,-1
 46 699 l 1,20,-1
 137 699 l 1,21,-1
 150 791 l 1,22,-1
 205 791 l 1,23,-1
 192 699 l 1,24,-1
 345 699 l 1,25,-1
 339 654 l 1,26,-1
 186 654 l 1,27,-1
 163 492 l 1,28,29
 269 560 269 560 376 560 c 0,30,0
 454 560 454 560 498 519 c 128,-1,1
EndSplineSet
EndChar

StartChar: dotlessi
Encoding: 305 305 283
Width: 289
GlyphClass: 2
Flags: W
AnchorPoint: "Anchor-10" 0 0 basechar 0
AnchorPoint: "Anchor-9" 165 550 basechar 0
AnchorPoint: "Anchor-8" 115 0 basechar 0
AnchorPoint: "Anchor-7" 88 0 basechar 0
LayerCount: 2
Fore
SplineSet
137 550 m 1,0,-1
 192 550 l 1,1,-1
 115 0 l 1,2,-1
 60 0 l 1,3,-1
 137 550 l 1,0,-1
EndSplineSet
EndChar

StartChar: uni0237
Encoding: 567 567 297
Width: 270
GlyphClass: 2
Flags: W
AnchorPoint: "Anchor-10" 0 0 basechar 0
AnchorPoint: "Anchor-9" 154 550 basechar 0
AnchorPoint: "Anchor-8" 0 0 basechar 0
AnchorPoint: "Anchor-7" -52 -192 basechar 0
LayerCount: 2
Fore
SplineSet
-96.5 -186 m 128,-1,1
 -119 -180 -119 -180 -128 -171 c 0,2,3
 -133 -166 -133 -166 -133 -156 c 0,4,5
 -133 -147 -133 -147 -128 -138.5 c 128,-1,6
 -123 -130 -123 -130 -118 -129 c 0,7,8
 -90 -144 -90 -144 -43 -144 c 0,9,10
 -8 -144 -8 -144 13.5 -123.5 c 128,-1,11
 35 -103 35 -103 41 -63 c 2,12,-1
 127 550 l 1,13,-1
 182 550 l 1,14,-1
 96 -58 l 2,15,16
 87 -123 87 -123 47.5 -157.5 c 128,-1,17
 8 -192 8 -192 -52 -192 c 0,18,0
 -74 -192 -74 -192 -96.5 -186 c 128,-1,1
EndSplineSet
EndChar

StartChar: k
Encoding: 107 107 299
Width: 547
Flags: W
LayerCount: 2
Fore
SplineSet
350 244 m 2,1,-1
 470 0 l 1,2,3
 460 0 460 0 445 -1.5 c 128,-1,4
 430 -3 430 -3 422 -3 c 0,5,6
 407 -3 407 -3 399 11 c 2,7,-1
 301 215 l 2,8,9
 286 246 286 246 260 257.5 c 128,-1,10
 234 269 234 269 186 268 c 2,11,-1
 126 265 l 1,12,-1
 89 0 l 1,13,-1
 34 0 l 1,14,-1
 145 791 l 1,15,-1
 200 791 l 1,16,-1
 133 314 l 1,17,-1
 185 315 l 2,18,19
 215 316 215 316 231.5 323.5 c 128,-1,20
 248 331 248 331 268 354 c 2,21,-1
 449 550 l 1,22,-1
 515 550 l 1,23,-1
 311 333 l 2,24,25
 291 311 291 311 274 302 c 1,26,0
 326 290 326 290 350 244 c 2,1,-1
EndSplineSet
EndChar

StartChar: kgreenlandic
Encoding: 312 312 301
Width: 591
Flags: W
LayerCount: 2
Fore
SplineSet
348 234 m 2,1,-1
 466 12 l 1,2,3
 439 -1 439 -1 423 -1 c 0,4,5
 408 -1 408 -1 401 12 c 2,6,-1
 301 205 l 2,7,8
 286 236 286 236 259.5 247 c 128,-1,9
 233 258 233 258 184 258 c 2,10,-1
 123 256 l 1,11,-1
 87 0 l 1,12,-1
 34 0 l 1,13,-1
 111 550 l 1,14,-1
 164 550 l 1,15,-1
 129 303 l 1,16,-1
 184 305 l 2,17,18
 213 306 213 306 230 313.5 c 128,-1,19
 247 321 247 321 267 344 c 2,20,-1
 451 550 l 1,21,-1
 515 550 l 1,22,-1
 304 319 l 2,23,24
 292 305 292 305 275 292 c 1,25,0
 326 277 326 277 348 234 c 2,1,-1
EndSplineSet
EndChar

StartChar: l
Encoding: 108 108 302
Width: 269
GlyphClass: 2
Flags: W
AnchorPoint: "Anchor-10" 268 550 basechar 0
AnchorPoint: "Anchor-9" 182 750 basechar 0
AnchorPoint: "Anchor-8" 0 0 basechar 0
AnchorPoint: "Anchor-7" 77 0 basechar 0
LayerCount: 2
Fore
SplineSet
161 791 m 1,0,-1
 216 791 l 1,1,-1
 105 0 l 1,2,-1
 50 0 l 1,3,-1
 161 791 l 1,0,-1
EndSplineSet
EndChar

StartChar: lslash
Encoding: 322 322 310
Width: 268
GlyphClass: 2
Flags: W
AnchorPoint: "Anchor-10" 268 550 basechar 0
AnchorPoint: "Anchor-9" 182 750 basechar 0
AnchorPoint: "Anchor-8" 0 0 basechar 0
AnchorPoint: "Anchor-7" 77 0 basechar 0
LayerCount: 2
Fore
SplineSet
273 445 m 1,0,-1
 161 396 l 1,1,-1
 105 0 l 1,2,-1
 50 0 l 1,3,-1
 102 370 l 1,4,-1
 -12 320 l 1,5,-1
 -5 375 l 1,6,-1
 110 425 l 1,7,-1
 161 791 l 1,8,-1
 216 791 l 1,9,-1
 168 450 l 1,10,-1
 281 499 l 1,11,-1
 273 445 l 1,0,-1
EndSplineSet
EndChar

StartChar: m
Encoding: 109 109 311
Width: 912
GlyphClass: 2
Flags: W
AnchorPoint: "Anchor-10" 0 0 basechar 0
AnchorPoint: "Anchor-9" 476 550 basechar 0
AnchorPoint: "Anchor-8" 0 0 basechar 0
AnchorPoint: "Anchor-7" 399 0 basechar 0
LayerCount: 2
Fore
SplineSet
781.5 523.5 m 128,-1,1
 821 487 821 487 821 424 c 0,2,3
 821 415 821 415 819 395 c 2,4,-1
 764 0 l 1,5,-1
 709 0 l 1,6,-1
 764 392 l 2,7,8
 766 410 766 410 766 418 c 0,9,10
 766 515 766 515 657 515 c 0,11,12
 613 515 613 515 568.5 495 c 128,-1,13
 524 475 524 475 483 437 c 1,14,15
 483 412 483 412 481 399 c 2,16,-1
 425 0 l 1,17,-1
 370 0 l 1,18,-1
 426 397 l 2,19,20
 428 415 428 415 428 423 c 0,21,22
 428 467 428 467 404 491 c 128,-1,23
 380 515 380 515 334 515 c 0,24,25
 240 515 240 515 150 431 c 1,26,-1
 89 0 l 1,27,-1
 34 0 l 1,28,-1
 89 388 l 2,29,30
 102 484 102 484 102 512 c 0,31,32
 102 529 102 529 98 539 c 1,33,34
 122 554 122 554 141 554 c 256,35,36
 160 554 160 554 160 520 c 0,37,38
 160 502 160 502 158 491 c 2,39,-1
 158 488 l 1,40,41
 246 560 246 560 347 560 c 0,42,43
 393 560 393 560 426.5 539.5 c 128,-1,44
 460 519 460 519 474 482 c 1,45,46
 563 560 563 560 672 560 c 0,47,0
 742 560 742 560 781.5 523.5 c 128,-1,1
EndSplineSet
EndChar

StartChar: n
Encoding: 110 110 313
Width: 610
GlyphClass: 2
Flags: W
AnchorPoint: "Anchor-10" 0 0 basechar 0
AnchorPoint: "Anchor-9" 325 550 basechar 0
AnchorPoint: "Anchor-8" 0 0 basechar 0
AnchorPoint: "Anchor-7" 248 0 basechar 0
LayerCount: 2
Fore
SplineSet
519 419 m 0,1,2
 519 406 519 406 515 372 c 2,3,-1
 480 118 l 2,4,5
 472 60 472 60 472 43 c 0,6,7
 472 22 472 22 479 7 c 1,8,9
 471 2 471 2 459.5 -1.5 c 128,-1,10
 448 -5 448 -5 438 -5 c 0,11,12
 427 -5 427 -5 421.5 5 c 128,-1,13
 416 15 416 15 416 37 c 0,14,15
 416 62 416 62 422 102 c 2,16,-1
 460 373 l 2,17,18
 463 396 463 396 463 415 c 0,19,20
 463 467 463 467 437.5 491.5 c 128,-1,21
 412 516 412 516 358 516 c 0,22,23
 309 516 309 516 255 492 c 128,-1,24
 201 468 201 468 148 424 c 1,25,-1
 88 0 l 1,26,-1
 33 0 l 1,27,-1
 88 388 l 2,28,29
 101 484 101 484 101 512 c 0,30,31
 101 529 101 529 97 539 c 1,32,33
 121 554 121 554 140 554 c 256,34,35
 159 554 159 554 159 520 c 0,36,37
 159 502 159 502 157 491 c 2,38,-1
 155 480 l 1,39,40
 261 560 261 560 370 560 c 0,41,0
 519 560 519 560 519 419 c 0,1,2
EndSplineSet
EndChar

StartChar: eng
Encoding: 331 331 320
Width: 609
Flags: W
LayerCount: 2
Fore
SplineSet
519 420 m 0,1,2
 519 406 519 406 515 372 c 2,3,-1
 463 0 l 1,4,-1
 456 -51 l 2,5,6
 446 -119 446 -119 404.5 -155.5 c 128,-1,7
 363 -192 363 -192 298 -192 c 0,8,9
 272 -192 272 -192 247.5 -183.5 c 128,-1,10
 223 -175 223 -175 220 -159 c 0,11,12
 218 -155 218 -155 218 -152 c 0,13,14
 218 -144 218 -144 223.5 -137 c 128,-1,15
 229 -130 229 -130 235 -130 c 0,16,17
 267 -146 267 -146 309 -146 c 0,18,19
 347 -146 347 -146 370.5 -123.5 c 128,-1,20
 394 -101 394 -101 401 -55 c 2,21,-1
 409 0 l 1,22,-1
 461 373 l 2,23,24
 464 396 464 396 464 415 c 0,25,26
 464 468 464 468 438 492 c 128,-1,27
 412 516 412 516 358 516 c 0,28,29
 308 516 308 516 254 492 c 128,-1,30
 200 468 200 468 148 425 c 1,31,-1
 88 0 l 1,32,-1
 33 0 l 1,33,-1
 88 388 l 2,34,35
 100 482 100 482 100 509 c 0,36,37
 100 528 100 528 97 537 c 1,38,39
 122 552 122 552 140 552 c 0,40,41
 159 552 159 552 159 517 c 0,42,43
 159 511 159 511 157 489 c 2,44,-1
 156 480 l 1,45,46
 261 560 261 560 370 560 c 0,47,0
 519 560 519 560 519 420 c 0,1,2
EndSplineSet
EndChar

StartChar: o
Encoding: 111 111 323
Width: 548
GlyphClass: 2
Flags: W
AnchorPoint: "Anchor-10" 429 474 basechar 0
AnchorPoint: "Anchor-9" 294 550 basechar 0
AnchorPoint: "Anchor-8" 303 10 basechar 0
AnchorPoint: "Anchor-7" 217 0 basechar 0
LayerCount: 2
Fore
SplineSet
15 200 m 0,1,2
 15 312 15 312 48.5 393 c 128,-1,3
 82 474 82 474 145 517 c 128,-1,4
 208 560 208 560 295 560 c 0,5,6
 495 560 495 560 495 353 c 0,7,8
 495 240 495 240 461.5 158.5 c 128,-1,9
 428 77 428 77 365 33.5 c 128,-1,10
 302 -10 302 -10 215 -10 c 0,11,0
 15 -10 15 -10 15 200 c 0,1,2
382 119 m 128,-1,13
 439 201 439 201 439 349 c 0,14,15
 439 433 439 433 402 473.5 c 128,-1,16
 365 514 365 514 289 514 c 0,17,18
 186 514 186 514 128.5 432 c 128,-1,19
 71 350 71 350 71 202 c 0,20,21
 71 118 71 118 108 77.5 c 128,-1,22
 145 37 145 37 222 37 c 0,23,12
 325 37 325 37 382 119 c 128,-1,13
EndSplineSet
Substitution2: "Single Substitution lookup 20 subtable" ordmasculine
Substitution2: "'aalt' Access All Alternates lookup 0 subtable" ordmasculine
EndChar

StartChar: ohorn
Encoding: 417 417 337
Width: 548
GlyphClass: 2
Flags: W
AnchorPoint: "Anchor-10" 429 474 basechar 0
AnchorPoint: "Anchor-9" 294 550 basechar 0
AnchorPoint: "Anchor-8" 303 10 basechar 0
AnchorPoint: "Anchor-7" 217 0 basechar 0
LayerCount: 2
Fore
SplineSet
564 637 m 128,-1,1
 577 621 577 621 577 595 c 0,2,3
 577 584 577 584 576 578 c 0,4,5
 570 535 570 535 543.5 505.5 c 128,-1,6
 517 476 517 476 475 464 c 1,7,8
 495 418 495 418 495 353 c 0,9,10
 495 240 495 240 461.5 158.5 c 128,-1,11
 428 77 428 77 365 33.5 c 128,-1,12
 302 -10 302 -10 215 -10 c 0,13,14
 15 -10 15 -10 15 200 c 0,15,16
 15 312 15 312 48.5 393 c 128,-1,17
 82 474 82 474 145 517 c 128,-1,18
 208 560 208 560 295 560 c 0,19,20
 404 560 404 560 453 499 c 1,21,22
 482 506 482 506 502.5 526.5 c 128,-1,23
 523 547 523 547 523 578 c 0,24,25
 523 611 523 611 492 626 c 1,26,27
 497 638 497 638 507 645.5 c 128,-1,28
 517 653 517 653 529 653 c 0,29,0
 551 653 551 653 564 637 c 128,-1,1
382 119 m 128,-1,31
 439 201 439 201 439 349 c 0,32,33
 439 433 439 433 402 473.5 c 128,-1,34
 365 514 365 514 289 514 c 0,35,36
 186 514 186 514 128.5 432 c 128,-1,37
 71 350 71 350 71 202 c 0,38,39
 71 118 71 118 108 77.5 c 128,-1,40
 145 37 145 37 222 37 c 0,41,30
 325 37 325 37 382 119 c 128,-1,31
EndSplineSet
EndChar

StartChar: oslash
Encoding: 248 248 345
Width: 548
GlyphClass: 2
Flags: W
AnchorPoint: "Anchor-10" 429 474 basechar 0
AnchorPoint: "Anchor-9" 294 550 basechar 0
AnchorPoint: "Anchor-8" 303 10 basechar 0
AnchorPoint: "Anchor-7" 217 0 basechar 0
LayerCount: 2
Fore
SplineSet
466 481 m 1,0,1
 495 431 495 431 495 353 c 0,2,3
 495 240 495 240 461.5 158.5 c 128,-1,4
 428 77 428 77 365 33.5 c 128,-1,5
 302 -10 302 -10 215 -10 c 0,6,7
 122 -10 122 -10 70 37 c 1,8,-1
 37 0 l 1,9,-1
 -17 0 l 1,10,-1
 45 69 l 1,11,12
 15 119 15 119 15 200 c 0,13,14
 15 312 15 312 48.5 393 c 128,-1,15
 82 474 82 474 145 517 c 128,-1,16
 208 560 208 560 295 560 c 0,17,18
 389 560 389 560 441 513 c 1,19,-1
 474 550 l 1,20,-1
 528 550 l 1,21,-1
 466 481 l 1,0,1
85 115 m 1,23,-1
 404 471 l 1,24,25
 367 514 367 514 289 514 c 0,26,27
 186 514 186 514 128.5 432 c 128,-1,28
 71 350 71 350 71 202 c 0,29,22
 71 151 71 151 85 115 c 1,23,-1
425 435 m 1,31,-1
 107 79 l 1,32,33
 145 37 145 37 222 37 c 0,34,35
 325 37 325 37 382 119 c 128,-1,36
 439 201 439 201 439 349 c 0,37,30
 439 399 439 399 425 435 c 1,31,-1
EndSplineSet
EndChar

StartChar: oe
Encoding: 339 339 348
Width: 965
GlyphClass: 2
Flags: W
AnchorPoint: "Anchor-10" 429 474 basechar 0
AnchorPoint: "Anchor-9" 711 550 basechar 0
AnchorPoint: "Anchor-8" 740 10 basechar 0
AnchorPoint: "Anchor-7" 638 0 basechar 0
LayerCount: 2
Fore
SplineSet
491 268 m 1,0,1
 489 240 489 240 489 224 c 0,2,3
 489 136 489 136 532 87 c 128,-1,4
 575 38 575 38 652 38 c 0,5,6
 771 38 771 38 818 124 c 0,7,8
 828 141 828 141 843 141 c 0,9,10
 859 141 859 141 878 125 c 1,11,12
 846 58 846 58 788 24 c 128,-1,13
 730 -10 730 -10 648 -10 c 0,14,15
 572 -10 572 -10 520 25 c 128,-1,16
 468 60 468 60 446 125 c 1,17,18
 411 59 411 59 352 24.5 c 128,-1,19
 293 -10 293 -10 215 -10 c 0,20,21
 15 -10 15 -10 15 200 c 0,22,23
 15 312 15 312 48.5 393 c 128,-1,24
 82 474 82 474 145 517 c 128,-1,25
 208 560 208 560 295 560 c 0,26,27
 449 560 449 560 484 437 c 1,28,29
 521 496 521 496 579 528 c 128,-1,30
 637 560 637 560 711 560 c 0,31,32
 808 560 808 560 860 509 c 128,-1,33
 912 458 912 458 912 362 c 0,34,35
 912 322 912 322 904 268 c 1,36,-1
 491 268 l 1,0,1
361 93.5 m 128,-1,38
 415 150 415 150 432 255 c 0,39,40
 434 283 434 283 438 306 c 0,41,42
 439 320 439 320 439 349 c 0,43,44
 439 433 439 433 402 473.5 c 128,-1,45
 365 514 365 514 289 514 c 0,46,47
 186 514 186 514 128.5 432 c 128,-1,48
 71 350 71 350 71 202 c 0,49,50
 71 118 71 118 108 77.5 c 128,-1,51
 145 37 145 37 222 37 c 0,52,37
 307 37 307 37 361 93.5 c 128,-1,38
570 461 m 128,-1,54
 515 408 515 408 497 314 c 1,55,-1
 853 314 l 1,56,57
 857 334 857 334 857 364 c 0,58,59
 857 438 857 438 819 476 c 128,-1,60
 781 514 781 514 707 514 c 0,61,53
 625 514 625 514 570 461 c 128,-1,54
EndSplineSet
EndChar

StartChar: p
Encoding: 112 112 349
Width: 598
Flags: W
LayerCount: 2
Fore
SplineSet
492 502 m 128,-1,1
 545 444 545 444 545 334 c 0,2,3
 545 229 545 229 509.5 151.5 c 128,-1,4
 474 74 474 74 408 32 c 128,-1,5
 342 -10 342 -10 253 -10 c 0,6,7
 208 -10 208 -10 165.5 -1 c 128,-1,8
 123 8 123 8 93 24 c 1,9,-1
 59 -220 l 1,10,-1
 4 -220 l 1,11,-1
 90 388 l 2,12,13
 102 483 102 483 102 514 c 0,14,15
 102 531 102 531 99 541 c 1,16,17
 109 547 109 547 120.5 550.5 c 128,-1,18
 132 554 132 554 140 554 c 0,19,20
 161 554 161 554 161 519 c 2,21,-1
 161 513 l 2,22,23
 161 504 161 504 159 495 c 2,24,-1
 159 492 l 1,25,26
 196 524 196 524 243 542 c 128,-1,27
 290 560 290 560 339 560 c 0,28,0
 439 560 439 560 492 502 c 128,-1,1
378.5 72.5 m 128,-1,30
 431 109 431 109 459.5 176 c 128,-1,31
 488 243 488 243 488 333 c 0,32,33
 488 422 488 422 449 468 c 128,-1,34
 410 514 410 514 336 514 c 0,35,36
 288 514 288 514 239.5 492 c 128,-1,37
 191 470 191 470 150 429 c 1,38,-1
 100 75 l 1,39,40
 130 57 130 57 171 46.5 c 128,-1,41
 212 36 212 36 257 36 c 0,42,29
 326 36 326 36 378.5 72.5 c 128,-1,30
EndSplineSet
EndChar

StartChar: thorn
Encoding: 254 254 350
Width: 609
Flags: W
LayerCount: 2
Fore
SplineSet
491.5 509.5 m 128,-1,1
 546 459 546 459 546 351 c 0,2,3
 546 318 546 318 540 280 c 0,4,5
 527 188 527 188 486.5 122.5 c 128,-1,6
 446 57 446 57 384.5 22.5 c 128,-1,7
 323 -12 323 -12 249 -12 c 0,8,9
 160 -12 160 -12 92 24 c 1,10,-1
 58 -220 l 1,11,-1
 4 -220 l 1,12,-1
 146 791 l 1,13,-1
 200 791 l 1,14,-1
 158 491 l 1,15,16
 197 524 197 524 245 542 c 128,-1,17
 293 560 293 560 342 560 c 0,18,0
 437 560 437 560 491.5 509.5 c 128,-1,1
489 345 m 0,20,21
 489 431 489 431 449 472.5 c 128,-1,22
 409 514 409 514 336 514 c 0,23,24
 284 514 284 514 236.5 491 c 128,-1,25
 189 468 189 468 149 431 c 1,26,-1
 99 74 l 1,27,28
 130 55 130 55 170.5 44.5 c 128,-1,29
 211 34 211 34 255 34 c 0,30,31
 341 34 341 34 404 97.5 c 128,-1,32
 467 161 467 161 484 280 c 0,33,19
 489 320 489 320 489 345 c 0,20,21
EndSplineSet
EndChar

StartChar: q
Encoding: 113 113 351
Width: 608
Flags: W
LayerCount: 2
Fore
SplineSet
545 541 m 1,1,2
 533 522 533 522 522.5 481.5 c 128,-1,3
 512 441 512 441 505 393 c 2,4,-1
 419 -220 l 1,5,-1
 364 -220 l 1,6,-1
 399 33 l 1,7,8
 337 -10 337 -10 247 -10 c 0,9,10
 144 -10 144 -10 83 55 c 128,-1,11
 22 120 22 120 22 230 c 0,12,13
 22 330 22 330 56.5 404.5 c 128,-1,14
 91 479 91 479 154.5 519.5 c 128,-1,15
 218 560 218 560 303 560 c 0,16,17
 407 560 407 560 469 502 c 1,18,19
 485 554 485 554 508 554 c 0,20,0
 529 554 529 554 545 541 c 1,1,2
455 433 m 1,21,-1
 457 446 l 1,22,23
 430 479 430 479 389.5 497 c 128,-1,24
 349 515 349 515 300 515 c 0,25,26
 234 515 234 515 184 480 c 128,-1,27
 134 445 134 445 106.5 381 c 128,-1,28
 79 317 79 317 79 232 c 0,29,30
 79 141 79 141 126.5 88 c 128,-1,31
 174 35 174 35 255 35 c 0,32,33
 341 35 341 35 407 86 c 1,34,-1
 455 433 l 1,21,-1
EndSplineSet
EndChar

StartChar: r
Encoding: 114 114 352
Width: 400
GlyphClass: 2
Flags: W
AnchorPoint: "Anchor-10" 0 0 basechar 0
AnchorPoint: "Anchor-9" 220 550 basechar 0
AnchorPoint: "Anchor-8" 0 0 basechar 0
AnchorPoint: "Anchor-7" 62 0 basechar 0
LayerCount: 2
Fore
SplineSet
376.5 547 m 128,-1,1
 394 537 394 537 394 520 c 0,2,3
 394 501 394 501 379 492 c 1,4,5
 357 506 357 506 313 506 c 0,6,7
 267 506 267 506 227 480 c 128,-1,8
 187 454 187 454 160 408.5 c 128,-1,9
 133 363 133 363 125 305 c 2,10,-1
 83 0 l 1,11,-1
 28 0 l 1,12,-1
 105 550 l 1,13,-1
 160 550 l 1,14,-1
 146 447 l 1,15,16
 177 495 177 495 226.5 526 c 128,-1,17
 276 557 276 557 326 557 c 0,18,0
 359 557 359 557 376.5 547 c 128,-1,1
EndSplineSet
EndChar

StartChar: s
Encoding: 115 115 359
Width: 485
GlyphClass: 2
Flags: W
AnchorPoint: "Anchor-10" 0 0 basechar 0
AnchorPoint: "Anchor-9" 263 550 basechar 0
AnchorPoint: "Anchor-8" 0 0 basechar 0
AnchorPoint: "Anchor-7" 186 0 basechar 0
LayerCount: 2
Fore
SplineSet
93 5 m 128,-1,1
 48 20 48 20 22 44.5 c 128,-1,2
 -4 69 -4 69 -4 96 c 0,3,4
 -4 127 -4 127 27 133 c 1,5,6
 45 89 45 89 86.5 62.5 c 128,-1,7
 128 36 128 36 195 36 c 0,8,9
 266 36 266 36 310.5 67 c 128,-1,10
 355 98 355 98 355 155 c 0,11,12
 355 182 355 182 337.5 200.5 c 128,-1,13
 320 219 320 219 294.5 230.5 c 128,-1,14
 269 242 269 242 223 258 c 0,15,16
 167 277 167 277 133.5 293 c 128,-1,17
 100 309 100 309 76 338 c 128,-1,18
 52 367 52 367 52 412 c 0,19,20
 52 483 52 483 106 521.5 c 128,-1,21
 160 560 160 560 245 560 c 0,22,23
 314 560 314 560 364 533 c 128,-1,24
 414 506 414 506 437 457 c 1,25,26
 425 446 425 446 416.5 441.5 c 128,-1,27
 408 437 408 437 400 437 c 0,28,29
 388 437 388 437 379 451 c 0,30,31
 335 515 335 515 243 515 c 0,32,33
 181 515 181 515 144.5 488.5 c 128,-1,34
 108 462 108 462 108 414 c 0,35,36
 108 385 108 385 126.5 365 c 128,-1,37
 145 345 145 345 172.5 332 c 128,-1,38
 200 319 200 319 246 303 c 0,39,40
 300 284 300 284 332.5 268 c 128,-1,41
 365 252 365 252 388 224.5 c 128,-1,42
 411 197 411 197 411 156 c 0,43,44
 411 78 411 78 353.5 34 c 128,-1,45
 296 -10 296 -10 194 -10 c 0,46,0
 138 -10 138 -10 93 5 c 128,-1,1
EndSplineSet
EndChar

StartChar: scedilla
Encoding: 351 351 362
Width: 485
GlyphClass: 2
Flags: W
AnchorPoint: "Anchor-10" 0 0 basechar 0
AnchorPoint: "Anchor-9" 0 0 basechar 0
AnchorPoint: "Anchor-8" 0 0 basechar 0
AnchorPoint: "Anchor-7" 156 -214 basechar 0
LayerCount: 2
Fore
SplineSet
126.5 365 m 128,-1,1
 145 345 145 345 172.5 332 c 128,-1,2
 200 319 200 319 246 303 c 0,3,4
 300 284 300 284 332.5 268 c 128,-1,5
 365 252 365 252 388 224.5 c 128,-1,6
 411 197 411 197 411 156 c 0,7,8
 411 80 411 80 357 36.5 c 128,-1,9
 303 -7 303 -7 207 -10 c 1,10,-1
 161 -58 l 2,11,12
 166 -57 166 -57 175 -57 c 0,13,14
 211 -57 211 -57 234 -74.5 c 128,-1,15
 257 -92 257 -92 257 -125 c 0,16,17
 257 -173 257 -173 217 -201 c 128,-1,18
 177 -229 177 -229 122 -229 c 0,19,20
 79 -229 79 -229 55 -220.5 c 128,-1,21
 31 -212 31 -212 31 -194 c 0,22,23
 31 -188 31 -188 36 -176 c 1,24,25
 78 -189 78 -189 122 -189 c 0,26,27
 160 -189 160 -189 181.5 -172.5 c 128,-1,28
 203 -156 203 -156 203 -132 c 0,29,30
 203 -95 203 -95 155 -95 c 0,31,32
 137 -95 137 -95 114 -101 c 1,33,-1
 99 -75 l 1,34,-1
 159 -8 l 1,35,36
 87 -1 87 -1 41.5 29 c 128,-1,37
 -4 59 -4 59 -4 96 c 0,38,39
 -4 127 -4 127 27 133 c 1,40,41
 45 89 45 89 86.5 62.5 c 128,-1,42
 128 36 128 36 195 36 c 0,43,44
 266 36 266 36 310.5 67 c 128,-1,45
 355 98 355 98 355 155 c 0,46,47
 355 182 355 182 337.5 200.5 c 128,-1,48
 320 219 320 219 294.5 230.5 c 128,-1,49
 269 242 269 242 223 258 c 0,50,51
 167 277 167 277 133.5 293 c 128,-1,52
 100 309 100 309 76 338 c 128,-1,53
 52 367 52 367 52 412 c 0,54,55
 52 483 52 483 106 521.5 c 128,-1,56
 160 560 160 560 245 560 c 0,57,58
 314 560 314 560 364 533 c 128,-1,59
 414 506 414 506 437 457 c 1,60,61
 425 446 425 446 416.5 441.5 c 128,-1,62
 408 437 408 437 400 437 c 0,63,64
 388 437 388 437 379 451 c 0,65,66
 335 515 335 515 243 515 c 0,67,68
 181 515 181 515 144.5 488.5 c 128,-1,69
 108 462 108 462 108 414 c 0,70,0
 108 385 108 385 126.5 365 c 128,-1,1
EndSplineSet
Substitution2: "'locl' Localized Forms in Latin lookup 7 subtable" uni0219
Substitution2: "'locl' Localized Forms in Latin lookup 6 subtable" uni0219
Substitution2: "'aalt' Access All Alternates lookup 0 subtable" uni0219
EndChar

StartChar: germandbls
Encoding: 223 223 367
Width: 617
Flags: W
LayerCount: 2
Fore
SplineSet
497.5 306 m 128,-1,1
 526 265 526 265 526 207 c 0,2,3
 526 140 526 140 497 90 c 128,-1,4
 468 40 468 40 415.5 13 c 128,-1,5
 363 -14 363 -14 293 -14 c 0,6,7
 235 -14 235 -14 187.5 3.5 c 128,-1,8
 140 21 140 21 140 47 c 0,9,10
 140 70 140 70 161 76 c 1,11,12
 189 52 189 52 219.5 42 c 128,-1,13
 250 32 250 32 294 32 c 0,14,15
 377 32 377 32 425.5 79 c 128,-1,16
 474 126 474 126 474 208 c 0,17,18
 474 272 474 272 435.5 305.5 c 128,-1,19
 397 339 397 339 330 339 c 0,20,21
 320 339 320 339 302 337 c 2,22,-1
 277 336 l 2,23,24
 263 336 263 336 255 348.5 c 128,-1,25
 247 361 247 361 248 375 c 0,26,27
 250 384 250 384 257 384 c 2,28,-1
 328 384 l 2,29,30
 403 384 403 384 448.5 428.5 c 128,-1,31
 494 473 494 473 494 551 c 0,32,33
 494 614 494 614 451.5 650 c 128,-1,34
 409 686 409 686 340 686 c 0,35,36
 262 686 262 686 214 643.5 c 128,-1,37
 166 601 166 601 154 517 c 2,38,-1
 81 0 l 1,39,-1
 27 0 l 1,40,-1
 100 517 l 2,41,42
 114 621 114 621 178.5 676 c 128,-1,43
 243 731 243 731 346 731 c 0,44,45
 404 731 404 731 449.5 709 c 128,-1,46
 495 687 495 687 520.5 646.5 c 128,-1,47
 546 606 546 606 546 553 c 0,48,49
 546 485 546 485 512.5 434.5 c 128,-1,50
 479 384 479 384 419 362 c 1,51,0
 469 347 469 347 497.5 306 c 128,-1,1
EndSplineSet
EndChar

StartChar: t
Encoding: 116 116 368
Width: 374
GlyphClass: 2
Flags: W
AnchorPoint: "Anchor-10" 359 630 basechar 0
AnchorPoint: "Anchor-9" 185 660 basechar 0
AnchorPoint: "Anchor-8" 0 0 basechar 0
AnchorPoint: "Anchor-7" 192 0 basechar 0
LayerCount: 2
Fore
SplineSet
133 137 m 2,0,1
 131 119 131 119 131 113 c 0,2,3
 131 76 131 76 149.5 57 c 128,-1,4
 168 38 168 38 204 38 c 0,5,6
 250 38 250 38 293 57 c 1,7,8
 303 50 303 50 303 35 c 0,9,10
 303 15 303 15 285 6 c 0,11,12
 254 -10 254 -10 195 -10 c 0,13,14
 139 -10 139 -10 106.5 20.5 c 128,-1,15
 74 51 74 51 74 103 c 0,16,17
 74 110 74 110 76 126 c 2,18,-1
 129 505 l 1,19,-1
 26 505 l 1,20,-1
 32 550 l 1,21,-1
 136 550 l 1,22,-1
 157 700 l 1,23,-1
 212 700 l 1,24,-1
 191 550 l 1,25,-1
 348 550 l 1,26,-1
 342 505 l 1,27,-1
 185 505 l 1,28,-1
 133 137 l 2,0,1
EndSplineSet
EndChar

StartChar: tbar
Encoding: 359 359 369
Width: 397
GlyphClass: 2
Flags: W
AnchorPoint: "Anchor-10" 359 630 basechar 0
AnchorPoint: "Anchor-9" 185 660 basechar 0
AnchorPoint: "Anchor-8" 0 0 basechar 0
AnchorPoint: "Anchor-7" 192 0 basechar 0
LayerCount: 2
Fore
SplineSet
185 505 m 1,0,-1
 160 330 l 1,1,-1
 317 330 l 1,2,-1
 311 286 l 1,3,-1
 154 286 l 1,4,-1
 133 137 l 2,5,6
 131 119 131 119 131 113 c 0,7,8
 131 76 131 76 149.5 57 c 128,-1,9
 168 38 168 38 204 38 c 0,10,11
 250 38 250 38 293 57 c 1,12,13
 303 50 303 50 303 35 c 0,14,15
 303 15 303 15 285 6 c 0,16,17
 254 -10 254 -10 195 -10 c 0,18,19
 139 -10 139 -10 106.5 20.5 c 128,-1,20
 74 51 74 51 74 103 c 0,21,22
 74 110 74 110 76 126 c 2,23,-1
 99 286 l 1,24,-1
 -5 286 l 1,25,-1
 1 330 l 1,26,-1
 105 330 l 1,27,-1
 129 505 l 1,28,-1
 26 505 l 1,29,-1
 32 550 l 1,30,-1
 136 550 l 1,31,-1
 157 700 l 1,32,-1
 212 700 l 1,33,-1
 191 550 l 1,34,-1
 348 550 l 1,35,-1
 342 505 l 1,36,-1
 185 505 l 1,0,-1
EndSplineSet
EndChar

StartChar: uni0163
Encoding: 355 355 371
Width: 374
GlyphClass: 2
Flags: W
AnchorPoint: "Anchor-10" 359 630 basechar 0
AnchorPoint: "Anchor-9" 0 0 basechar 0
AnchorPoint: "Anchor-8" 0 0 basechar 0
AnchorPoint: "Anchor-7" 162 -214 basechar 0
LayerCount: 2
Fore
SplineSet
133 137 m 2,0,1
 131 119 131 119 131 113 c 0,2,3
 131 76 131 76 149.5 57 c 128,-1,4
 168 38 168 38 204 38 c 0,5,6
 250 38 250 38 293 57 c 1,7,8
 303 50 303 50 303 35 c 0,9,10
 303 15 303 15 285 6 c 0,11,12
 259 -7 259 -7 213 -10 c 1,13,-1
 167 -58 l 2,14,15
 172 -57 172 -57 181 -57 c 0,16,17
 217 -57 217 -57 240 -74.5 c 128,-1,18
 263 -92 263 -92 263 -125 c 0,19,20
 263 -173 263 -173 223 -201 c 128,-1,21
 183 -229 183 -229 128 -229 c 0,22,23
 85 -229 85 -229 61 -220.5 c 128,-1,24
 37 -212 37 -212 37 -194 c 0,25,26
 37 -188 37 -188 42 -176 c 1,27,28
 84 -189 84 -189 128 -189 c 0,29,30
 166 -189 166 -189 187.5 -172.5 c 128,-1,31
 209 -156 209 -156 209 -132 c 0,32,33
 209 -95 209 -95 161 -95 c 0,34,35
 143 -95 143 -95 120 -101 c 1,36,-1
 105 -75 l 1,37,-1
 165 -7 l 1,38,39
 122 1 122 1 98 29.5 c 128,-1,40
 74 58 74 58 74 102 c 0,41,42
 74 110 74 110 76 126 c 2,43,-1
 129 505 l 1,44,-1
 26 505 l 1,45,-1
 32 550 l 1,46,-1
 136 550 l 1,47,-1
 157 700 l 1,48,-1
 212 700 l 1,49,-1
 191 550 l 1,50,-1
 348 550 l 1,51,-1
 342 505 l 1,52,-1
 185 505 l 1,53,-1
 133 137 l 2,0,1
EndSplineSet
Substitution2: "'locl' Localized Forms in Latin lookup 7 subtable" uni021B
Substitution2: "'locl' Localized Forms in Latin lookup 6 subtable" uni021B
Substitution2: "'aalt' Access All Alternates lookup 0 subtable" uni021B
EndChar

StartChar: u
Encoding: 117 117 376
Width: 610
GlyphClass: 2
Flags: W
AnchorPoint: "Anchor-10" 523 523 basechar 0
AnchorPoint: "Anchor-9" 324 550 basechar 0
AnchorPoint: "Anchor-8" 476 7 basechar 0
AnchorPoint: "Anchor-7" 247 0 basechar 0
LayerCount: 2
Fore
SplineSet
476 113 m 2,0,1
 471 75 471 75 471 52 c 0,2,3
 471 30 471 30 476 7 c 1,4,5
 458 -5 458 -5 439 -5 c 0,6,7
 425 -5 425 -5 419 6.5 c 128,-1,8
 413 18 413 18 413 43 c 0,9,10
 413 51 413 51 415 77 c 1,11,12
 380 36 380 36 329.5 13 c 128,-1,13
 279 -10 279 -10 223 -10 c 0,14,15
 142 -10 142 -10 98.5 30.5 c 128,-1,16
 55 71 55 71 55 145 c 0,17,18
 55 163 55 163 58 184 c 2,19,-1
 110 550 l 1,20,-1
 165 550 l 1,21,-1
 113 182 l 2,22,23
 111 170 111 170 111 148 c 0,24,25
 111 35 111 35 228 35 c 0,26,27
 282 35 282 35 333 62.5 c 128,-1,28
 384 90 384 90 424 142 c 1,29,-1
 482 550 l 1,30,-1
 537 550 l 1,31,-1
 476 113 l 2,0,1
EndSplineSet
EndChar

StartChar: uhorn
Encoding: 432 432 389
Width: 609
GlyphClass: 2
Flags: W
AnchorPoint: "Anchor-10" 523 523 basechar 0
AnchorPoint: "Anchor-9" 324 550 basechar 0
AnchorPoint: "Anchor-8" 476 7 basechar 0
AnchorPoint: "Anchor-7" 247 0 basechar 0
LayerCount: 2
Fore
SplineSet
658 686 m 128,-1,1
 671 670 671 670 671 644 c 0,2,3
 671 633 671 633 670 627 c 0,4,5
 663 575 663 575 626 543.5 c 128,-1,6
 589 512 589 512 531 506 c 1,7,-1
 476 113 l 2,8,9
 471 75 471 75 471 52 c 0,10,11
 471 30 471 30 476 7 c 1,12,13
 458 -5 458 -5 439 -5 c 0,14,15
 425 -5 425 -5 419 6.5 c 128,-1,16
 413 18 413 18 413 43 c 0,17,18
 413 51 413 51 415 77 c 1,19,20
 380 36 380 36 329.5 13 c 128,-1,21
 279 -10 279 -10 223 -10 c 0,22,23
 142 -10 142 -10 98.5 30.5 c 128,-1,24
 55 71 55 71 55 145 c 0,25,26
 55 163 55 163 58 184 c 2,27,-1
 110 550 l 1,28,-1
 165 550 l 1,29,-1
 113 182 l 2,30,31
 111 170 111 170 111 148 c 0,32,33
 111 35 111 35 228 35 c 0,34,35
 282 35 282 35 333 62.5 c 128,-1,36
 384 90 384 90 424 142 c 1,37,-1
 482 550 l 1,38,-1
 537 550 l 1,39,-1
 536 546 l 1,40,41
 568 549 568 549 592.5 571 c 128,-1,42
 617 593 617 593 617 627 c 0,43,44
 617 660 617 660 586 675 c 1,45,46
 591 687 591 687 601 694.5 c 128,-1,47
 611 702 611 702 623 702 c 0,48,0
 645 702 645 702 658 686 c 128,-1,1
EndSplineSet
EndChar

StartChar: uogonek
Encoding: 371 371 397
Width: 609
GlyphClass: 2
Flags: W
AnchorPoint: "Anchor-10" 523 523 basechar 0
AnchorPoint: "Anchor-9" 324 550 basechar 0
AnchorPoint: "Anchor-8" 476 7 basechar 0
AnchorPoint: "Anchor-7" 247 0 basechar 0
LayerCount: 2
Fore
SplineSet
487 -153 m 1,1,2
 491 -160 491 -160 491 -170 c 0,3,4
 489 -184 489 -184 470 -193.5 c 128,-1,5
 451 -203 451 -203 417 -203 c 0,6,7
 377 -203 377 -203 353 -182.5 c 128,-1,8
 329 -162 329 -162 329 -128 c 0,9,10
 329 -51 329 -51 423 1 c 1,11,12
 413 11 413 11 413 42 c 0,13,14
 413 51 413 51 415 77 c 1,15,16
 380 36 380 36 329.5 13 c 128,-1,17
 279 -10 279 -10 223 -10 c 0,18,19
 142 -10 142 -10 98.5 30.5 c 128,-1,20
 55 71 55 71 55 145 c 0,21,22
 55 163 55 163 58 184 c 2,23,-1
 110 550 l 1,24,-1
 165 550 l 1,25,-1
 113 182 l 2,26,27
 111 170 111 170 111 148 c 0,28,29
 111 35 111 35 228 35 c 0,30,31
 282 35 282 35 333 62.5 c 128,-1,32
 384 90 384 90 424 142 c 1,33,-1
 482 550 l 1,34,-1
 537 550 l 1,35,-1
 476 113 l 2,36,37
 471 75 471 75 471 52 c 0,38,39
 471 30 471 30 476 7 c 0,40,41
 475 6 475 6 469 3 c 0,42,43
 430 -21 430 -21 405.5 -53 c 128,-1,44
 381 -85 381 -85 381 -117 c 0,45,46
 381 -140 381 -140 394.5 -152 c 128,-1,47
 408 -164 408 -164 433 -164 c 0,48,0
 463 -164 463 -164 487 -153 c 1,1,2
EndSplineSet
EndChar

StartChar: v
Encoding: 118 118 400
Width: 483
Flags: W
LayerCount: 2
Fore
SplineSet
487 550 m 1,0,1
 453 400 453 400 385 264.5 c 128,-1,2
 317 129 317 129 211 0 c 1,3,-1
 159 0 l 1,4,5
 96 112 96 112 65.5 232.5 c 128,-1,6
 35 353 35 353 35 492 c 0,7,8
 35 530 35 530 36 550 c 1,9,-1
 92 550 l 1,10,11
 90 508 90 508 90 489 c 0,12,13
 90 370 90 370 115 266 c 128,-1,14
 140 162 140 162 192 62 c 1,15,16
 284 177 284 177 342 296 c 128,-1,17
 400 415 400 415 431 550 c 1,18,-1
 487 550 l 1,0,1
EndSplineSet
EndChar

StartChar: w
Encoding: 119 119 401
Width: 760
GlyphClass: 2
Flags: W
AnchorPoint: "Anchor-10" 0 0 basechar 0
AnchorPoint: "Anchor-9" 400 550 basechar 0
AnchorPoint: "Anchor-8" 0 0 basechar 0
AnchorPoint: "Anchor-7" 323 0 basechar 0
LayerCount: 2
Fore
SplineSet
744 550 m 1,0,1
 664 261 664 261 506 0 c 1,2,-1
 459 0 l 1,3,4
 422 112 422 112 403 214.5 c 128,-1,5
 384 317 384 317 381 423 c 1,6,7
 347 317 347 317 300 214.5 c 128,-1,8
 253 112 253 112 187 0 c 1,9,-1
 138 0 l 1,10,11
 95 123 95 123 74.5 257.5 c 128,-1,12
 54 392 54 392 53 550 c 1,13,-1
 109 550 l 1,14,-1
 109 516 l 2,15,16
 109 276 109 276 172 77 c 1,17,18
 303 292 303 292 371 550 c 1,19,-1
 423 550 l 1,20,21
 420 291 420 291 493 75 c 1,22,23
 623 300 623 300 681 550 c 1,24,-1
 744 550 l 1,0,1
EndSplineSet
EndChar

StartChar: x
Encoding: 120 120 406
Width: 484
Flags: W
LayerCount: 2
Fore
SplineSet
406 423.5 m 128,-1,1
 353 364 353 364 263 288 c 1,2,3
 311 234 311 234 342 192.5 c 128,-1,4
 373 151 373 151 392.5 102 c 128,-1,5
 412 53 412 53 411 0 c 1,6,-1
 352 0 l 1,7,8
 353 65 353 65 319 122.5 c 128,-1,9
 285 180 285 180 221 252 c 1,10,11
 137 182 137 182 86.5 123.5 c 128,-1,12
 36 65 36 65 18 0 c 1,13,-1
 -41 0 l 1,14,15
 -21 77 -21 77 36 142.5 c 128,-1,16
 93 208 93 208 188 288 c 1,17,18
 142 340 142 340 113.5 378 c 128,-1,19
 85 416 85 416 66.5 459.5 c 128,-1,20
 48 503 48 503 48 550 c 1,21,-1
 107 550 l 1,22,23
 107 494 107 494 138.5 442.5 c 128,-1,24
 170 391 170 391 230 324 c 1,25,26
 309 390 309 390 355 442 c 128,-1,27
 401 494 401 494 417 550 c 1,28,-1
 476 550 l 1,29,0
 459 483 459 483 406 423.5 c 128,-1,1
EndSplineSet
EndChar

StartChar: y
Encoding: 121 121 407
Width: 485
GlyphClass: 2
Flags: W
AnchorPoint: "Anchor-10" 0 0 basechar 0
AnchorPoint: "Anchor-9" 263 550 basechar 0
AnchorPoint: "Anchor-8" 0 0 basechar 0
AnchorPoint: "Anchor-7" 291 0 basechar 0
LayerCount: 2
Fore
SplineSet
494 550 m 1,0,-1
 193 -42 l 2,1,2
 152 -123 152 -123 107.5 -158 c 128,-1,3
 63 -193 63 -193 1 -193 c 0,4,5
 -34 -193 -34 -193 -55 -182.5 c 128,-1,6
 -76 -172 -76 -172 -76 -155 c 0,7,8
 -76 -139 -76 -139 -59 -130 c 1,9,10
 -49 -137 -49 -137 -31 -141.5 c 128,-1,11
 -13 -146 -13 -146 8 -146 c 0,12,13
 51 -146 51 -146 89 -108 c 128,-1,14
 127 -70 127 -70 164 9 c 1,15,-1
 34 550 l 1,16,-1
 90 550 l 1,17,-1
 201 90 l 1,18,-1
 434 550 l 1,19,-1
 494 550 l 1,0,-1
EndSplineSet
EndChar

StartChar: z
Encoding: 122 122 416
Width: 500
GlyphClass: 2
Flags: W
AnchorPoint: "Anchor-10" 0 0 basechar 0
AnchorPoint: "Anchor-9" 270 550 basechar 0
AnchorPoint: "Anchor-8" 0 0 basechar 0
AnchorPoint: "Anchor-7" 193 0 basechar 0
LayerCount: 2
Fore
SplineSet
477 514 m 1,0,-1
 61 48 l 1,1,-1
 420 48 l 1,2,-1
 413 0 l 1,3,-1
 -27 0 l 1,4,-1
 -22 38 l 1,5,-1
 395 503 l 1,6,-1
 70 503 l 1,7,-1
 76 550 l 1,8,-1
 482 550 l 1,9,-1
 477 514 l 1,0,-1
EndSplineSet
EndChar

StartChar: ordfeminine
Encoding: 170 170 423
Width: 380
Flags: W
LayerCount: 2
Fore
SplineSet
348 502 m 0,1,2
 335 431 335 431 335 398 c 0,3,4
 335 382 335 382 338 370 c 1,5,6
 326 360 326 360 306 360 c 256,7,8
 286 360 286 360 286 393 c 0,9,10
 286 398 286 398 288 420 c 1,11,12
 233 359 233 359 154 359 c 0,13,14
 110 359 110 359 80.5 382 c 128,-1,15
 51 405 51 405 51 447 c 0,16,17
 51 522 51 522 120.5 548 c 128,-1,18
 190 574 190 574 311 575 c 1,19,20
 313 597 313 597 313 603 c 0,21,22
 313 674 313 674 232 674 c 0,23,24
 201 674 201 674 178.5 665 c 128,-1,25
 156 656 156 656 137 641 c 0,26,27
 126 632 126 632 121 629.5 c 128,-1,28
 116 627 116 627 109 627 c 0,29,30
 99 627 99 627 93 634 c 128,-1,31
 87 641 87 641 85 651 c 1,32,33
 148 712 148 712 240 712 c 0,34,35
 292 712 292 712 326 685 c 128,-1,36
 360 658 360 658 360 605 c 0,37,0
 360 580 360 580 348 502 c 0,1,2
306 538 m 1,38,39
 208 536 208 536 153 518 c 128,-1,40
 98 500 98 500 98 450 c 0,41,42
 98 425 98 425 114 411.5 c 128,-1,43
 130 398 130 398 162 398 c 0,44,45
 200 398 200 398 238 420 c 128,-1,46
 276 442 276 442 296 472 c 1,47,-1
 306 538 l 1,38,39
EndSplineSet
EndChar

StartChar: ordmasculine
Encoding: 186 186 424
Width: 380
Flags: W
LayerCount: 2
Fore
SplineSet
85 394 m 128,-1,1
 51 431 51 431 51 494 c 0,2,3
 51 554 51 554 72.5 603.5 c 128,-1,4
 94 653 94 653 135.5 681.5 c 128,-1,5
 177 710 177 710 233 710 c 0,6,7
 298 710 298 710 331.5 672 c 128,-1,8
 365 634 365 634 365 570 c 0,9,10
 365 511 365 511 343 462.5 c 128,-1,11
 321 414 321 414 280 385.5 c 128,-1,12
 239 357 239 357 184 357 c 0,13,0
 119 357 119 357 85 394 c 128,-1,1
286 446 m 128,-1,15
 319 496 319 496 319 570 c 0,16,17
 319 621 319 621 295.5 646.5 c 128,-1,18
 272 672 272 672 228 672 c 0,19,20
 164 672 164 672 130.5 621 c 128,-1,21
 97 570 97 570 97 496 c 0,22,23
 97 446 97 446 121 421 c 128,-1,24
 145 396 145 396 189 396 c 0,25,14
 253 396 253 396 286 446 c 128,-1,15
EndSplineSet
EndChar

StartChar: uni207F
Encoding: 8319 8319 425
Width: 380
Flags: W
LayerCount: 2
Fore
SplineSet
339 436 m 2,0,1
 336 409 336 409 336 396 c 256,2,3
 336 383 336 383 340 369 c 1,4,5
 320 360 320 360 303 360 c 0,6,7
 289 360 289 360 289 390 c 0,8,9
 289 404 289 404 292 423 c 2,10,-1
 316 597 l 2,11,12
 318 611 318 611 318 618 c 0,13,14
 318 678 318 678 253 678 c 0,15,16
 220 678 220 678 185 663 c 128,-1,17
 150 648 150 648 118 620 c 1,18,-1
 83 363 l 1,19,-1
 37 363 l 1,20,-1
 71 608 l 2,21,22
 78 645 78 645 78 677 c 0,23,24
 78 687 78 687 76 699 c 1,25,26
 83 703 83 703 94.5 706 c 128,-1,27
 106 709 106 709 112 709 c 256,28,29
 118 709 118 709 122.5 703.5 c 128,-1,30
 127 698 127 698 127 687 c 0,31,32
 127 680 127 680 126 676 c 2,33,-1
 125 666 l 1,34,35
 154 688 154 688 190 702 c 128,-1,36
 226 716 226 716 262 716 c 0,37,38
 309 716 309 716 336.5 693.5 c 128,-1,39
 364 671 364 671 364 625 c 0,40,41
 364 618 364 618 362 602 c 2,42,-1
 339 436 l 2,0,1
EndSplineSet
EndChar

StartChar: uni0394
Encoding: 916 916 426
Width: 546
Flags: W
LayerCount: 2
Fore
SplineSet
493 25 m 1,0,-1
 489 0 l 1,1,-1
 -57 0 l 1,2,-1
 -54 25 l 1,3,-1
 289 700 l 1,4,-1
 340 700 l 1,5,-1
 493 25 l 1,0,-1
434 48 m 1,6,-1
 305 634 l 1,7,-1
 11 48 l 1,8,-1
 434 48 l 1,6,-1
EndSplineSet
EndChar

StartChar: uni03A9
Encoding: 937 937 427
Width: 676
Flags: W
LayerCount: 2
Fore
SplineSet
-1 48 m 1,0,-1
 180 48 l 1,1,-1
 193 146 l 1,2,3
 127 165 127 165 87.5 230 c 128,-1,4
 48 295 48 295 48 383 c 0,5,6
 48 478 48 478 88.5 552 c 128,-1,7
 129 626 129 626 203.5 668 c 128,-1,8
 278 710 278 710 375 710 c 0,9,10
 497 710 497 710 564 640 c 128,-1,11
 631 570 631 570 631 450 c 0,12,13
 631 377 631 377 603.5 313.5 c 128,-1,14
 576 250 576 250 525.5 206 c 128,-1,15
 475 162 475 162 408 144 c 1,16,-1
 396 48 l 1,17,-1
 576 48 l 1,18,-1
 569 0 l 1,19,-1
 339 0 l 1,20,-1
 363 179 l 1,21,22
 463 201 463 201 520 274 c 128,-1,23
 577 347 577 347 577 450 c 0,24,25
 577 546 577 546 522.5 603.5 c 128,-1,26
 468 661 468 661 371 661 c 0,27,28
 293 661 293 661 232 627 c 128,-1,29
 171 593 171 593 137 530.5 c 128,-1,30
 103 468 103 468 103 386 c 0,31,32
 103 305 103 305 141.5 250.5 c 128,-1,33
 180 196 180 196 248 179 c 1,34,-1
 224 0 l 1,35,-1
 -7 0 l 1,36,-1
 -1 48 l 1,0,-1
EndSplineSet
EndChar

StartChar: uni03BC
Encoding: 956 956 428
Width: 611
GlyphClass: 2
Flags: W
AnchorPoint: "Anchor-6" 534 523 basechar 0
AnchorPoint: "Anchor-5" 325 550 basechar 0
AnchorPoint: "Anchor-4" 502 10 basechar 0
AnchorPoint: "Anchor-3" 248 0 basechar 0
LayerCount: 2
Fore
SplineSet
477 113 m 2,0,1
 472 82 472 82 472 53 c 0,2,3
 472 35 472 35 477 7 c 1,4,5
 459 -5 459 -5 439 -5 c 0,6,7
 426 -5 426 -5 420 6 c 128,-1,8
 414 17 414 17 414 40 c 0,9,10
 414 48 414 48 416 76 c 1,11,12
 381 34 381 34 333 11 c 128,-1,13
 285 -12 285 -12 228 -12 c 0,14,15
 182 -12 182 -12 147.5 2.5 c 128,-1,16
 113 17 113 17 95 45 c 1,17,-1
 57 -220 l 1,18,-1
 2 -220 l 1,19,-1
 111 550 l 1,20,-1
 166 550 l 1,21,-1
 115 189 l 2,22,23
 112 170 112 170 112 152 c 0,24,25
 112 92 112 92 143.5 62.5 c 128,-1,26
 175 33 175 33 234 33 c 0,27,28
 289 33 289 33 337.5 60.5 c 128,-1,29
 386 88 386 88 424 139 c 1,30,-1
 482 550 l 1,31,-1
 538 550 l 1,32,-1
 477 113 l 2,0,1
EndSplineSet
EndChar

StartChar: pi
Encoding: 960 960 429
Width: 640
Flags: W
LayerCount: 2
Fore
SplineSet
400 13 m 128,-1,1
 377 36 377 36 377 77 c 0,2,3
 377 83 377 83 379 99 c 2,4,-1
 436 502 l 1,5,-1
 200 502 l 1,6,-1
 129 0 l 1,7,-1
 77 0 l 1,8,-1
 147 502 l 1,9,-1
 43 502 l 1,10,-1
 49 550 l 1,11,-1
 617 550 l 1,12,-1
 611 502 l 1,13,-1
 488 502 l 1,14,-1
 432 103 l 2,15,16
 431 97 431 97 431 86 c 0,17,18
 431 59 431 59 445 47.5 c 128,-1,19
 459 36 459 36 485 36 c 0,20,21
 505 36 505 36 528 41.5 c 128,-1,22
 551 47 551 47 564 54 c 1,23,-1
 558 13 l 1,24,25
 514 -10 514 -10 468 -10 c 0,26,0
 423 -10 423 -10 400 13 c 128,-1,1
EndSplineSet
EndChar

StartChar: uni0E01
Encoding: 3585 3585 430
Width: 605
GlyphClass: 2
Flags: W
AnchorPoint: "Anchor-12" 545 550 basechar 0
AnchorPoint: "Anchor-11" 468 0 basechar 0
LayerCount: 2
Fore
SplineSet
466 541.5 m 128,-1,1
 524 497 524 497 524 416 c 0,2,3
 524 399 524 399 521 381 c 2,4,-1
 468 0 l 1,5,-1
 415 0 l 1,6,-1
 468 382 l 2,7,8
 470 404 470 404 470 414 c 0,9,10
 470 477 470 477 428.5 509.5 c 128,-1,11
 387 542 387 542 315 542 c 0,12,13
 260 542 260 542 213.5 526 c 128,-1,14
 167 510 167 510 139.5 487 c 128,-1,15
 112 464 112 464 112 444 c 0,16,17
 112 425 112 425 135 408 c 128,-1,18
 158 391 158 391 180 391 c 0,19,20
 188 391 188 391 214 398 c 0,21,22
 234 404 234 404 242 404 c 0,23,24
 249 404 249 404 256.5 392 c 128,-1,25
 264 380 264 380 264 370 c 0,26,27
 264 362 264 362 257 362 c 0,28,29
 189 362 189 362 160 327.5 c 128,-1,30
 131 293 131 293 121 222 c 2,31,-1
 90 0 l 1,32,-1
 36 0 l 1,33,-1
 67 222 l 2,34,35
 74 273 74 273 90 305.5 c 128,-1,36
 106 338 106 338 133 358 c 1,37,38
 107 368 107 368 83 392 c 128,-1,39
 59 416 59 416 59 442 c 0,40,41
 59 476 59 476 93 509.5 c 128,-1,42
 127 543 127 543 186.5 564.5 c 128,-1,43
 246 586 246 586 319 586 c 0,44,0
 408 586 408 586 466 541.5 c 128,-1,1
EndSplineSet
EndChar

StartChar: uni0E02
Encoding: 3586 3586 431
Width: 565
GlyphClass: 2
Flags: W
AnchorPoint: "Anchor-12" 505 550 basechar 0
AnchorPoint: "Anchor-11" 428 0 basechar 0
LayerCount: 2
Fore
SplineSet
131.5 24 m 128,-1,1
 91 57 91 57 91 121 c 0,2,3
 91 134 91 134 95 163.5 c 128,-1,4
 99 193 99 193 107 247 c 0,5,6
 108 257 108 257 112 262.5 c 128,-1,7
 116 268 116 268 123 273 c 0,8,9
 179 307 179 307 211.5 330.5 c 128,-1,10
 244 354 244 354 265 386 c 128,-1,11
 286 418 286 418 286 460 c 0,12,13
 286 501 286 501 260.5 522.5 c 128,-1,14
 235 544 235 544 198 544 c 0,15,16
 152 544 152 544 123.5 520.5 c 128,-1,17
 95 497 95 497 95 455 c 0,18,19
 95 431 95 431 108.5 417 c 128,-1,20
 122 403 122 403 143 403 c 0,21,22
 168 403 168 403 181.5 418 c 128,-1,23
 195 433 195 433 195 457 c 0,24,25
 195 474 195 474 186.5 486.5 c 128,-1,26
 178 499 178 499 165 504 c 1,27,28
 174 515 174 515 187 515 c 0,29,30
 203 515 203 515 218.5 499.5 c 128,-1,31
 234 484 234 484 234 457 c 0,32,33
 234 415 234 415 207 390 c 128,-1,34
 180 365 180 365 138 365 c 0,35,36
 103 365 103 365 78.5 390.5 c 128,-1,37
 54 416 54 416 54 454 c 0,38,39
 54 514 54 514 96.5 548 c 128,-1,40
 139 582 139 582 203 582 c 0,41,42
 257 582 257 582 295.5 550.5 c 128,-1,43
 334 519 334 519 334 464 c 0,44,45
 334 415 334 415 313 377.5 c 128,-1,46
 292 340 292 340 261.5 315 c 128,-1,47
 231 290 231 290 181 256 c 2,48,-1
 160 242 l 1,49,-1
 154 198 l 2,50,51
 145 133 145 133 145 127 c 0,52,53
 145 36 145 36 252 36 c 0,54,55
 322 36 322 36 354.5 63 c 128,-1,56
 387 90 387 90 397 159 c 2,57,-1
 456 576 l 1,58,-1
 509 576 l 1,59,-1
 451 161 l 2,60,61
 438 71 438 71 387.5 31 c 128,-1,62
 337 -9 337 -9 244 -9 c 0,63,0
 172 -9 172 -9 131.5 24 c 128,-1,1
EndSplineSet
EndChar

StartChar: uni0E03
Encoding: 3587 3587 432
Width: 596
GlyphClass: 2
Flags: W
AnchorPoint: "Anchor-12" 536 550 basechar 0
AnchorPoint: "Anchor-11" 459 0 basechar 0
LayerCount: 2
Fore
SplineSet
147 23.5 m 128,-1,1
 103 56 103 56 103 126 c 0,2,3
 103 147 103 147 114 224 c 0,4,5
 120 265 120 265 146.5 295 c 128,-1,6
 173 325 173 325 221 363 c 0,7,8
 269 400 269 400 293.5 428.5 c 128,-1,9
 318 457 318 457 318 496 c 0,10,11
 318 538 318 538 277 538 c 0,12,13
 257 538 257 538 240.5 527 c 128,-1,14
 224 516 224 516 208 494 c 1,15,16
 198 518 198 518 186 529 c 128,-1,17
 174 540 174 540 152 540 c 0,18,19
 123 540 123 540 105 522.5 c 128,-1,20
 87 505 87 505 87 474 c 0,21,22
 87 451 87 451 100.5 438.5 c 128,-1,23
 114 426 114 426 136 426 c 0,24,25
 160 426 160 426 176 439 c 128,-1,26
 192 452 192 452 199 473 c 1,27,28
 214 469 214 469 214 454 c 0,29,30
 212 428 212 428 187 408 c 128,-1,31
 162 388 162 388 130 388 c 0,32,33
 92 388 92 388 69.5 410 c 128,-1,34
 47 432 47 432 47 468 c 0,35,36
 47 517 47 517 79 548.5 c 128,-1,37
 111 580 111 580 152 580 c 0,38,39
 198 580 198 580 216 543 c 1,40,41
 243 580 243 580 291 580 c 0,42,43
 326 580 326 580 347.5 560.5 c 128,-1,44
 369 541 369 541 369 502 c 0,45,46
 369 466 369 466 354 437 c 128,-1,47
 339 408 339 408 317 387 c 128,-1,48
 295 366 295 366 260 338 c 0,49,50
 215 301 215 301 193.5 277 c 128,-1,51
 172 253 172 253 167 220 c 0,52,53
 157 142 157 142 157 134 c 0,54,55
 157 37 157 37 275 37 c 0,56,57
 344 37 344 37 381.5 66.5 c 128,-1,58
 419 96 419 96 428 159 c 2,59,-1
 487 576 l 1,60,-1
 540 576 l 1,61,-1
 481 159 l 2,62,63
 470 78 470 78 414 34.5 c 128,-1,64
 358 -9 358 -9 267 -9 c 0,65,0
 191 -9 191 -9 147 23.5 c 128,-1,1
EndSplineSet
EndChar

StartChar: uni0E04
Encoding: 3588 3588 433
Width: 624
GlyphClass: 2
Flags: W
AnchorPoint: "Anchor-12" 564 550 basechar 0
AnchorPoint: "Anchor-11" 487 0 basechar 0
LayerCount: 2
Fore
SplineSet
487 540 m 128,-1,1
 541 494 541 494 541 408 c 0,2,3
 541 383 541 383 537 360 c 2,4,-1
 487 0 l 1,5,-1
 434 0 l 1,6,-1
 484 355 l 2,7,8
 487 379 487 379 487 400 c 0,9,10
 487 542 487 542 331 542 c 0,11,12
 228 542 228 542 172 480.5 c 128,-1,13
 116 419 116 419 116 313 c 0,14,15
 116 272 116 272 125 242 c 1,16,17
 200 384 200 384 315 384 c 0,18,19
 354 384 354 384 378.5 362 c 128,-1,20
 403 340 403 340 403 303 c 0,21,22
 403 254 403 254 373.5 225 c 128,-1,23
 344 196 344 196 297 196 c 0,24,25
 269 196 269 196 248.5 210 c 128,-1,26
 228 224 228 224 228 245 c 0,27,28
 228 269 228 269 247 278 c 1,29,30
 260 234 260 234 300 234 c 0,31,32
 328 234 328 234 344.5 251.5 c 128,-1,33
 361 269 361 269 361 298 c 0,34,35
 361 319 361 319 347 331 c 128,-1,36
 333 343 333 343 307 343 c 0,37,38
 260 343 260 343 217 298 c 128,-1,39
 174 253 174 253 142.5 175 c 128,-1,40
 111 97 111 97 95 0 c 1,41,-1
 56 0 l 2,42,43
 40 0 40 0 44 20 c 0,44,45
 49 57 49 57 77 133 c 0,46,47
 90 172 90 172 90 175 c 0,48,49
 90 182 90 182 83 201 c 0,50,51
 61 260 61 260 61 312 c 0,52,53
 61 394 61 394 93 456 c 128,-1,54
 125 518 125 518 187 552 c 128,-1,55
 249 586 249 586 334 586 c 0,56,0
 433 586 433 586 487 540 c 128,-1,1
EndSplineSet
EndChar

StartChar: uni0E05
Encoding: 3589 3589 434
Width: 640
GlyphClass: 2
Flags: W
AnchorPoint: "Anchor-12" 580 550 basechar 0
AnchorPoint: "Anchor-11" 503 0 basechar 0
LayerCount: 2
Fore
SplineSet
531 528.5 m 128,-1,1
 560 490 560 490 560 426 c 0,2,3
 560 403 560 403 555 370 c 2,4,-1
 503 0 l 1,5,-1
 450 0 l 1,6,-1
 502 370 l 2,7,8
 506 399 506 399 506 427 c 0,9,10
 506 476 506 476 488 501.5 c 128,-1,11
 470 527 470 527 430 538 c 1,12,13
 415 528 415 528 357 493 c 2,14,-1
 333 479 l 1,15,16
 268 523 268 523 249 538 c 1,17,18
 182 514 182 514 149 454.5 c 128,-1,19
 116 395 116 395 116 316 c 0,20,21
 116 274 116 274 125 242 c 1,22,23
 160 307 160 307 208.5 345.5 c 128,-1,24
 257 384 257 384 318 384 c 0,25,26
 357 384 357 384 381.5 361.5 c 128,-1,27
 406 339 406 339 406 303 c 0,28,29
 406 254 406 254 376 225 c 128,-1,30
 346 196 346 196 300 196 c 0,31,32
 272 196 272 196 251.5 210 c 128,-1,33
 231 224 231 224 231 245 c 0,34,35
 231 270 231 270 249 278 c 1,36,37
 256 256 256 256 268.5 245 c 128,-1,38
 281 234 281 234 303 234 c 0,39,40
 331 234 331 234 347 251 c 128,-1,41
 363 268 363 268 363 298 c 0,42,43
 363 319 363 319 349 331 c 128,-1,44
 335 343 335 343 310 343 c 0,45,46
 263 343 263 343 219 298 c 128,-1,47
 175 253 175 253 142.5 175 c 128,-1,48
 110 97 110 97 95 0 c 1,49,-1
 56 0 l 2,50,51
 40 0 40 0 44 20 c 0,52,53
 49 57 49 57 77 133 c 0,54,55
 90 172 90 172 90 175 c 0,56,57
 90 180 90 180 83 203 c 0,58,59
 73 231 73 231 67 258 c 128,-1,60
 61 285 61 285 61 318 c 0,61,62
 61 417 61 417 111 486 c 128,-1,63
 161 555 161 555 256 586 c 1,64,-1
 277 572 l 2,65,66
 325 540 325 540 340 525 c 1,67,68
 354 537 354 537 374.5 549 c 128,-1,69
 395 561 395 561 401 564 c 2,70,-1
 437 586 l 1,71,0
 502 567 502 567 531 528.5 c 128,-1,1
EndSplineSet
EndChar

StartChar: uni0E06
Encoding: 3590 3590 435
Width: 651
GlyphClass: 2
Flags: W
AnchorPoint: "Anchor-12" 572 550 basechar 0
AnchorPoint: "Anchor-11" 495 0 basechar 0
LayerCount: 2
Fore
SplineSet
576 576 m 1,0,-1
 510 111 l 2,1,2
 508 91 508 91 505 46 c 0,3,4
 505 31 505 31 503 15 c 0,5,6
 500 0 500 0 487 0 c 2,7,-1
 444 0 l 1,8,9
 426 90 426 90 366 144.5 c 128,-1,10
 306 199 306 199 226 210 c 1,11,-1
 215 118 l 1,12,13
 204 -9 204 -9 112 -9 c 0,14,15
 72 -9 72 -9 46 17.5 c 128,-1,16
 20 44 20 44 20 92 c 0,17,18
 20 167 20 167 66 210.5 c 128,-1,19
 112 254 112 254 183 258 c 1,20,21
 194 288 194 288 211.5 312 c 128,-1,22
 229 336 229 336 257 366 c 0,23,24
 290 401 290 401 308 431 c 128,-1,25
 326 461 326 461 326 496 c 0,26,27
 326 537 326 537 285 537 c 0,28,29
 247 537 247 537 217 495 c 1,30,31
 199 540 199 540 157 540 c 0,32,33
 129 540 129 540 112 523 c 128,-1,34
 95 506 95 506 95 475 c 0,35,36
 95 453 95 453 108.5 440.5 c 128,-1,37
 122 428 122 428 145 428 c 0,38,39
 170 428 170 428 184.5 441.5 c 128,-1,40
 199 455 199 455 205 477 c 1,41,42
 221 476 221 476 221 459 c 0,43,44
 221 431 221 431 198.5 410.5 c 128,-1,45
 176 390 176 390 142 390 c 0,46,47
 104 390 104 390 79 413.5 c 128,-1,48
 54 437 54 437 54 474 c 0,49,50
 54 522 54 522 82.5 551 c 128,-1,51
 111 580 111 580 155 580 c 0,52,53
 204 580 204 580 221 543 c 1,54,55
 246 579 246 579 296 579 c 0,56,57
 332 579 332 579 354.5 558.5 c 128,-1,58
 377 538 377 538 377 498 c 0,59,60
 377 455 377 455 357.5 421 c 128,-1,61
 338 387 338 387 296 341 c 0,62,63
 290 334 290 334 276 317 c 128,-1,64
 262 300 262 300 252 285 c 128,-1,65
 242 270 242 270 236 255 c 1,66,67
 310 246 310 246 369.5 204 c 128,-1,68
 429 162 429 162 456 105 c 1,69,-1
 522 576 l 1,70,-1
 576 576 l 1,0,-1
145.5 54.5 m 128,-1,72
 155 74 155 74 162 122 c 2,73,-1
 167 161 l 1,74,-1
 173 212 l 1,75,76
 70 205 70 205 70 94 c 0,77,78
 70 65 70 65 81 50 c 128,-1,79
 92 35 92 35 111 35 c 0,80,71
 136 35 136 35 145.5 54.5 c 128,-1,72
EndSplineSet
EndChar

StartChar: uni0E07
Encoding: 3591 3591 436
Width: 520
GlyphClass: 2
Flags: W
AnchorPoint: "Anchor-12" 452 550 basechar 0
AnchorPoint: "Anchor-11" 365 0 basechar 0
LayerCount: 2
Fore
SplineSet
153.5 5 m 128,-1,1
 119 14 119 14 119 25 c 0,2,3
 108 241 108 241 35 366 c 1,4,5
 52 383 52 383 74 383 c 0,6,7
 85 383 85 383 90.5 378 c 128,-1,8
 96 373 96 373 103 358 c 0,9,10
 126 312 126 312 144 234.5 c 128,-1,11
 162 157 162 157 166 55 c 0,12,13
 167 47 167 47 185 42 c 128,-1,14
 203 37 203 37 232 37 c 0,15,16
 297 37 297 37 302 56 c 0,17,18
 304 63 304 63 313 93 c 0,19,20
 356 240 356 240 381 337 c 128,-1,21
 406 434 406 434 406 480 c 0,22,23
 406 512 406 512 392 526 c 128,-1,24
 378 540 378 540 351 540 c 256,25,26
 324 540 324 540 307 525 c 128,-1,27
 290 510 290 510 290 485 c 0,28,29
 290 466 290 466 302.5 454.5 c 128,-1,30
 315 443 315 443 335 443 c 0,31,32
 357 443 357 443 377 455 c 1,33,34
 380 451 380 451 380 444 c 0,35,36
 380 430 380 430 365.5 418.5 c 128,-1,37
 351 407 351 407 326 407 c 0,38,39
 292 407 292 407 269.5 428.5 c 128,-1,40
 247 450 247 450 247 483 c 0,41,42
 247 529 247 529 278 555.5 c 128,-1,43
 309 582 309 582 357 582 c 0,44,45
 406 582 406 582 432.5 556.5 c 128,-1,46
 459 531 459 531 459 482 c 0,47,48
 459 431 459 431 433.5 334 c 128,-1,49
 408 237 408 237 359 74 c 2,50,-1
 344 25 l 2,51,52
 340 13 340 13 306 4.5 c 128,-1,53
 272 -4 272 -4 230 -4 c 256,54,0
 188 -4 188 -4 153.5 5 c 128,-1,1
EndSplineSet
EndChar

StartChar: uni0E08
Encoding: 3592 3592 437
Width: 588
GlyphClass: 2
Flags: W
AnchorPoint: "Anchor-12" 519 550 basechar 0
AnchorPoint: "Anchor-11" 427 0 basechar 0
LayerCount: 2
Fore
SplineSet
240.5 -1 m 128,-1,1
 214 7 214 7 215 18 c 0,2,3
 223 151 223 151 223 227 c 0,4,5
 223 269 223 269 209.5 290 c 128,-1,6
 196 311 196 311 166 311 c 0,7,8
 141 311 141 311 127 296.5 c 128,-1,9
 113 282 113 282 113 259 c 0,10,11
 113 237 113 237 125.5 224.5 c 128,-1,12
 138 212 138 212 160 212 c 0,13,14
 178 212 178 212 194 223 c 1,15,16
 198 217 198 217 198 209 c 0,17,18
 198 195 198 195 184.5 185.5 c 128,-1,19
 171 176 171 176 148 176 c 0,20,21
 114 176 114 176 91.5 198.5 c 128,-1,22
 69 221 69 221 69 255 c 0,23,24
 69 298 69 298 96.5 325 c 128,-1,25
 124 352 124 352 169 352 c 0,26,27
 218 352 218 352 245.5 321 c 128,-1,28
 273 290 273 290 273 230 c 0,29,30
 273 204 273 204 272 177.5 c 128,-1,31
 271 151 271 151 270 129 c 0,32,33
 269 113 269 113 268 91 c 128,-1,34
 267 69 267 69 267 43 c 0,35,36
 267 39 267 39 280.5 35.5 c 128,-1,37
 294 32 294 32 312 32 c 0,38,39
 331 32 331 32 344.5 35.5 c 128,-1,40
 358 39 358 39 359 44 c 0,41,42
 361 51 361 51 390 132 c 0,43,44
 421 214 421 214 437.5 272.5 c 128,-1,45
 454 331 454 331 454 387 c 0,46,47
 454 459 454 459 410.5 500 c 128,-1,48
 367 541 367 541 294 541 c 0,49,50
 235 541 235 541 192 522.5 c 128,-1,51
 149 504 149 504 102 468 c 0,52,53
 97 465 97 465 93.5 463 c 128,-1,54
 90 461 90 461 84 461 c 0,55,56
 76 461 76 461 66.5 471.5 c 128,-1,57
 57 482 57 482 52 495 c 1,58,59
 160 586 160 586 296 586 c 0,60,61
 356 586 356 586 404 563 c 128,-1,62
 452 540 452 540 480 496 c 128,-1,63
 508 452 508 452 508 392 c 0,64,65
 508 334 508 334 489.5 269.5 c 128,-1,66
 471 205 471 205 435 110 c 2,67,-1
 402 18 l 2,68,69
 398 6 398 6 372 -1.5 c 128,-1,70
 346 -9 346 -9 307 -9 c 0,71,0
 267 -9 267 -9 240.5 -1 c 128,-1,1
EndSplineSet
EndChar

StartChar: uni0E09
Encoding: 3593 3593 438
Width: 630
GlyphClass: 2
Flags: W
AnchorPoint: "Anchor-12" 569 550 basechar 0
AnchorPoint: "Anchor-11" 491 0 basechar 0
LayerCount: 2
Fore
SplineSet
530.5 161.5 m 128,-1,1
 548 136 548 136 548 103 c 0,2,3
 548 56 548 56 515.5 26 c 128,-1,4
 483 -4 483 -4 439 -4 c 0,5,6
 400 -4 400 -4 370.5 23 c 128,-1,7
 341 50 341 50 341 90 c 0,8,9
 341 119 341 119 351.5 139.5 c 128,-1,10
 362 160 362 160 380 178 c 1,11,12
 314 172 314 172 258.5 119.5 c 128,-1,13
 203 67 203 67 178 0 c 1,14,-1
 148 0 l 2,15,16
 139 0 139 0 136 3 c 128,-1,17
 133 6 133 6 134 15 c 2,18,-1
 146 99 l 2,19,20
 151 132 151 132 162 179 c 0,21,22
 167 202 167 202 171.5 224.5 c 128,-1,23
 176 247 176 247 176 263 c 0,24,25
 176 289 176 289 162 304.5 c 128,-1,26
 148 320 148 320 123 320 c 0,27,28
 97 320 97 320 81 305 c 128,-1,29
 65 290 65 290 65 266 c 0,30,31
 65 243 65 243 79 229.5 c 128,-1,32
 93 216 93 216 115 216 c 0,33,34
 134 216 134 216 149 227 c 1,35,36
 152 218 152 218 152 215 c 0,37,38
 152 200 152 200 138.5 191 c 128,-1,39
 125 182 125 182 102 182 c 0,40,41
 69 182 69 182 46.5 204 c 128,-1,42
 24 226 24 226 24 263 c 0,43,44
 24 306 24 306 53.5 333 c 128,-1,45
 83 360 83 360 130 360 c 0,46,47
 173 360 173 360 201 334 c 128,-1,48
 229 308 229 308 229 265 c 0,49,50
 229 245 229 245 223.5 215.5 c 128,-1,51
 218 186 218 186 212 159 c 0,52,53
 203 120 203 120 203 120 c 1,54,55
 242 166 242 166 292 192.5 c 128,-1,56
 342 219 342 219 397 219 c 0,57,58
 410 219 410 219 432 217 c 1,59,60
 452 231 452 231 463.5 245.5 c 128,-1,61
 475 260 475 260 478 279 c 2,62,-1
 488 353 l 2,63,64
 491 383 491 383 491 386 c 0,65,66
 491 458 491 458 443.5 499.5 c 128,-1,67
 396 541 396 541 319 541 c 0,68,69
 201 541 201 541 107 468 c 0,70,71
 102 465 102 465 98.5 463 c 128,-1,72
 95 461 95 461 89 461 c 0,73,74
 81 461 81 461 71.5 471.5 c 128,-1,75
 62 482 62 482 57 495 c 1,76,77
 102 533 102 533 170 559.5 c 128,-1,78
 238 586 238 586 321 586 c 0,79,80
 384 586 384 586 435 563 c 128,-1,81
 486 540 486 540 515.5 496 c 128,-1,82
 545 452 545 452 545 391 c 0,83,84
 545 373 545 373 542 353 c 2,85,-1
 530 269 l 2,86,87
 525 234 525 234 483 201 c 1,88,0
 513 187 513 187 530.5 161.5 c 128,-1,1
485 56.5 m 128,-1,90
 502 74 502 74 502 103 c 0,91,92
 502 128 502 128 486.5 146 c 128,-1,93
 471 164 471 164 442 172 c 1,94,95
 416 152 416 152 402 133.5 c 128,-1,96
 388 115 388 115 388 90 c 0,97,98
 388 69 388 69 402.5 54 c 128,-1,99
 417 39 417 39 439 39 c 0,100,89
 468 39 468 39 485 56.5 c 128,-1,90
EndSplineSet
EndChar

StartChar: uni0E0A
Encoding: 3594 3594 439
Width: 615
GlyphClass: 2
Flags: W
AnchorPoint: "Anchor-12" 534 550 basechar 0
AnchorPoint: "Anchor-11" 457 0 basechar 0
LayerCount: 2
Fore
SplineSet
567 582 m 0,1,2
 567 543 567 543 535 504.5 c 128,-1,3
 503 466 503 466 459 450 c 1,4,5
 506 429 506 429 506 369 c 0,6,7
 506 349 506 349 504 339 c 2,8,-1
 480 160 l 2,9,10
 467 70 467 70 420 30.5 c 128,-1,11
 373 -9 373 -9 270 -9 c 0,12,13
 188 -9 188 -9 141 25.5 c 128,-1,14
 94 60 94 60 94 126 c 0,15,16
 94 134 94 134 96 152 c 2,17,-1
 110 250 l 2,18,19
 113 268 113 268 126 276 c 2,20,-1
 145 288 l 2,21,22
 190 316 190 316 217.5 337 c 128,-1,23
 245 358 245 358 263.5 388 c 128,-1,24
 282 418 282 418 282 459 c 0,25,26
 282 496 282 496 258.5 517.5 c 128,-1,27
 235 539 235 539 195 539 c 0,28,29
 151 539 151 539 127 518 c 128,-1,30
 103 497 103 497 103 461 c 0,31,32
 103 438 103 438 116.5 424 c 128,-1,33
 130 410 130 410 152 410 c 0,34,35
 178 410 178 410 191.5 424 c 128,-1,36
 205 438 205 438 205 463 c 0,37,38
 205 489 205 489 187 507 c 1,39,40
 193 510 193 510 204 510 c 0,41,42
 218 510 218 510 229.5 496 c 128,-1,43
 241 482 241 482 241 462 c 0,44,45
 241 422 241 422 215.5 396.5 c 128,-1,46
 190 371 190 371 147 371 c 0,47,48
 112 371 112 371 86 397 c 128,-1,49
 60 423 60 423 60 460 c 0,50,51
 60 511 60 511 97.5 545 c 128,-1,52
 135 579 135 579 197 579 c 0,53,54
 255 579 255 579 292 545.5 c 128,-1,55
 329 512 329 512 329 460 c 0,56,57
 329 411 329 411 305.5 372.5 c 128,-1,58
 282 334 282 334 249 307.5 c 128,-1,59
 216 281 216 281 163 247 c 1,60,-1
 150 153 l 2,61,62
 148 135 148 135 148 127 c 0,63,64
 148 80 148 80 178.5 57.5 c 128,-1,65
 209 35 209 35 270 35 c 0,66,67
 344 35 344 35 380 63.5 c 128,-1,68
 416 92 416 92 426 159 c 2,69,-1
 451 339 l 2,70,71
 453 361 453 361 453 369 c 0,72,73
 453 398 453 398 440.5 412.5 c 128,-1,74
 428 427 428 427 409 427 c 0,75,76
 402 427 402 427 390.5 425 c 128,-1,77
 379 423 379 423 373 423 c 0,78,79
 366 423 366 423 359 434 c 128,-1,80
 352 445 352 445 352 453 c 256,81,82
 352 461 352 461 359 462 c 0,83,84
 424 468 424 468 467 506.5 c 128,-1,85
 510 545 510 545 526 611 c 1,86,0
 567 611 567 611 567 582 c 0,1,2
EndSplineSet
EndChar

StartChar: uni0E0B
Encoding: 3595 3595 440
Width: 615
GlyphClass: 2
Flags: W
AnchorPoint: "Anchor-12" 540 550 basechar 0
AnchorPoint: "Anchor-11" 463 0 basechar 0
LayerCount: 2
Fore
SplineSet
561.5 603.5 m 128,-1,1
 573 596 573 596 573 581 c 0,2,3
 573 545 573 545 540 507.5 c 128,-1,4
 507 470 507 470 464 454 c 1,5,6
 513 433 513 433 513 373 c 0,7,8
 513 354 513 354 511 343 c 2,9,-1
 486 159 l 2,10,11
 475 78 475 78 418.5 34.5 c 128,-1,12
 362 -9 362 -9 268 -9 c 0,13,14
 188 -9 188 -9 143 23.5 c 128,-1,15
 98 56 98 56 98 127 c 0,16,17
 98 137 98 137 100 159 c 2,18,-1
 110 229 l 2,19,20
 116 272 116 272 142.5 302.5 c 128,-1,21
 169 333 169 333 216 369 c 0,22,23
 262 403 262 403 284.5 429.5 c 128,-1,24
 307 456 307 456 307 494 c 0,25,26
 307 516 307 516 296 527 c 128,-1,27
 285 538 285 538 266 538 c 0,28,29
 246 538 246 538 230 527 c 128,-1,30
 214 516 214 516 198 494 c 1,31,32
 188 518 188 518 175.5 529 c 128,-1,33
 163 540 163 540 141 540 c 0,34,35
 113 540 113 540 96 523.5 c 128,-1,36
 79 507 79 507 79 478 c 0,37,38
 79 454 79 454 92 441 c 128,-1,39
 105 428 105 428 127 428 c 0,40,41
 151 428 151 428 166.5 440.5 c 128,-1,42
 182 453 182 453 188 474 c 1,43,44
 204 471 204 471 204 455 c 0,45,46
 204 429 204 429 179.5 409.5 c 128,-1,47
 155 390 155 390 121 390 c 0,48,49
 84 390 84 390 60.5 413.5 c 128,-1,50
 37 437 37 437 37 474 c 0,51,52
 37 521 37 521 66 550.5 c 128,-1,53
 95 580 95 580 139 580 c 0,54,55
 164 580 164 580 179.5 570.5 c 128,-1,56
 195 561 195 561 205 543 c 1,57,58
 229 580 229 580 278 580 c 0,59,60
 312 580 312 580 335 559.5 c 128,-1,61
 358 539 358 539 358 500 c 0,62,63
 358 465 358 465 343.5 437 c 128,-1,64
 329 409 329 409 309 389.5 c 128,-1,65
 289 370 289 370 254 343 c 0,66,67
 211 309 211 309 189 284 c 128,-1,68
 167 259 167 259 162 225 c 2,69,-1
 153 159 l 2,70,71
 151 150 151 150 151 132 c 0,72,73
 151 81 151 81 182 58.5 c 128,-1,74
 213 36 213 36 272 36 c 0,75,76
 346 36 346 36 385 66 c 128,-1,77
 424 96 424 96 432 159 c 2,78,-1
 458 343 l 2,79,80
 460 365 460 365 460 374 c 0,81,82
 460 430 460 430 418 430 c 0,83,84
 412 430 412 430 401 428 c 128,-1,85
 390 426 390 426 383 426 c 0,86,87
 378 426 378 426 371.5 436.5 c 128,-1,88
 365 447 365 447 365 454 c 0,89,90
 365 464 365 464 372 464 c 0,91,92
 496 477 496 477 532 611 c 1,93,0
 550 611 550 611 561.5 603.5 c 128,-1,1
EndSplineSet
EndChar

StartChar: uni0E0C
Encoding: 3596 3596 441
Width: 919
GlyphClass: 2
Flags: W
AnchorPoint: "Anchor-12" 842 550 basechar 0
AnchorPoint: "Anchor-11" 765 0 basechar 0
LayerCount: 2
Fore
SplineSet
846 576 m 1,0,-1
 783 131 l 2,1,2
 779 103 779 103 777 77 c 128,-1,3
 775 51 775 51 774 42 c 0,4,5
 772 18 772 18 772 19 c 1,6,7
 769 0 769 0 755 0 c 2,8,-1
 715 0 l 1,9,10
 689 91 689 91 634.5 139 c 128,-1,11
 580 187 580 187 506 195 c 1,12,-1
 491 96 l 2,13,14
 483 42 483 42 460 16.5 c 128,-1,15
 437 -9 437 -9 394 -9 c 0,16,17
 358 -9 358 -9 335.5 14.5 c 128,-1,18
 313 38 313 38 313 79 c 0,19,20
 313 146 313 146 354.5 188 c 128,-1,21
 396 230 396 230 458 238 c 1,22,-1
 478 381 l 2,23,24
 480 395 480 395 480 418 c 0,25,26
 480 482 480 482 435.5 512.5 c 128,-1,27
 391 543 391 543 311 543 c 0,28,29
 252 543 252 543 206.5 527.5 c 128,-1,30
 161 512 161 512 137 489.5 c 128,-1,31
 113 467 113 467 113 445 c 256,32,33
 113 423 113 423 135.5 406.5 c 128,-1,34
 158 390 158 390 182 390 c 0,35,36
 192 390 192 390 203.5 392 c 128,-1,37
 215 394 215 394 219 395 c 0,38,39
 237 399 237 399 245 399 c 0,40,41
 252 399 252 399 261 385.5 c 128,-1,42
 270 372 270 372 270 362 c 0,43,44
 270 355 270 355 263 355 c 0,45,46
 193 355 193 355 161.5 322 c 128,-1,47
 130 289 130 289 120 222 c 2,48,-1
 104 114 l 2,49,50
 103 107 103 107 103 94 c 0,51,52
 103 65 103 65 117.5 49.5 c 128,-1,53
 132 34 132 34 159 34 c 0,54,55
 187 34 187 34 202 48.5 c 128,-1,56
 217 63 217 63 217 91 c 0,57,58
 217 113 217 113 205 125 c 128,-1,59
 193 137 193 137 172 137 c 0,60,61
 147 137 147 137 129 128 c 1,62,63
 127 134 127 134 127 138 c 0,64,65
 127 153 127 153 141.5 163.5 c 128,-1,66
 156 174 156 174 181 174 c 0,67,68
 215 174 215 174 237.5 153.5 c 128,-1,69
 260 133 260 133 260 94 c 0,70,71
 260 47 260 47 231.5 20 c 128,-1,72
 203 -7 203 -7 156 -7 c 0,73,74
 107 -7 107 -7 78.5 20.5 c 128,-1,75
 50 48 50 48 50 91 c 0,76,77
 50 107 50 107 51 116 c 2,78,-1
 66 222 l 2,79,80
 73 271 73 271 89.5 303.5 c 128,-1,81
 106 336 106 336 134 357 c 1,82,83
 105 368 105 368 82 392 c 128,-1,84
 59 416 59 416 59 443 c 0,85,86
 59 476 59 476 90 509 c 128,-1,87
 121 542 121 542 178.5 564 c 128,-1,88
 236 586 236 586 312 586 c 0,89,90
 413 586 413 586 473.5 544.5 c 128,-1,91
 534 503 534 503 534 418 c 0,92,93
 534 401 534 401 531 383 c 2,94,-1
 511 238 l 1,95,96
 580 232 580 232 636 199 c 128,-1,97
 692 166 692 166 726 103 c 1,98,-1
 793 576 l 1,99,-1
 846 576 l 1,0,-1
426 50.5 m 128,-1,101
 436 66 436 66 441 102 c 0,102,103
 444 120 444 120 448 156 c 0,104,105
 450 182 450 182 452 194 c 1,106,107
 409 188 409 188 386 160 c 128,-1,108
 363 132 363 132 363 84 c 0,109,110
 363 35 363 35 398 35 c 0,111,100
 416 35 416 35 426 50.5 c 128,-1,101
EndSplineSet
EndChar

StartChar: uni0E240E45
Encoding: 65537 -1 442
Width: 935
Flags: W
LayerCount: 2
Fore
SplineSet
478 381 m 2,0,1
 480 395 480 395 480 418 c 0,2,3
 480 482 480 482 435.5 512.5 c 128,-1,4
 391 543 391 543 311 543 c 0,5,6
 252 543 252 543 206.5 527.5 c 128,-1,7
 161 512 161 512 137 489.5 c 128,-1,8
 113 467 113 467 113 445 c 256,9,10
 113 423 113 423 135.5 406.5 c 128,-1,11
 158 390 158 390 182 390 c 0,12,13
 192 390 192 390 203.5 392 c 128,-1,14
 215 394 215 394 219 395 c 0,15,16
 237 399 237 399 245 399 c 0,17,18
 252 399 252 399 261 385.5 c 128,-1,19
 270 372 270 372 270 362 c 0,20,21
 270 355 270 355 263 355 c 0,22,23
 193 355 193 355 161.5 322 c 128,-1,24
 130 289 130 289 120 222 c 2,25,-1
 104 114 l 2,26,27
 103 107 103 107 103 94 c 0,28,29
 103 65 103 65 117.5 49.5 c 128,-1,30
 132 34 132 34 159 34 c 0,31,32
 187 34 187 34 202 48.5 c 128,-1,33
 217 63 217 63 217 91 c 0,34,35
 217 113 217 113 205 125 c 128,-1,36
 193 137 193 137 172 137 c 0,37,38
 147 137 147 137 129 128 c 1,39,40
 127 134 127 134 127 138 c 0,41,42
 127 153 127 153 141.5 163.5 c 128,-1,43
 156 174 156 174 181 174 c 0,44,45
 214 174 214 174 237 153 c 128,-1,46
 260 132 260 132 260 94 c 0,47,48
 260 47 260 47 231.5 20 c 128,-1,49
 203 -7 203 -7 156 -7 c 0,50,51
 107 -7 107 -7 78.5 20.5 c 128,-1,52
 50 48 50 48 50 91 c 0,53,54
 50 107 50 107 51 116 c 2,55,-1
 66 222 l 2,56,57
 73 271 73 271 89.5 304 c 128,-1,58
 106 337 106 337 134 358 c 1,59,60
 105 368 105 368 82 392 c 128,-1,61
 59 416 59 416 59 443 c 0,62,63
 59 476 59 476 90 509 c 128,-1,64
 121 542 121 542 178.5 564 c 128,-1,65
 236 586 236 586 312 586 c 0,66,67
 445 586 445 586 500 520 c 1,68,69
 538 550 538 550 586.5 568 c 128,-1,70
 635 586 635 586 688 586 c 0,71,72
 766 586 766 586 811.5 547 c 128,-1,73
 857 508 857 508 857 437 c 0,74,75
 857 417 857 417 855 405 c 2,76,-1
 768 -218 l 1,77,-1
 714 -218 l 1,78,-1
 801 402 l 2,79,80
 803 422 803 422 803 432 c 0,81,82
 803 486 803 486 771.5 514 c 128,-1,83
 740 542 740 542 682 542 c 0,84,85
 596 542 596 542 523 481 c 1,86,87
 534 453 534 453 534 418 c 0,88,89
 534 401 534 401 531 383 c 2,90,-1
 447 -220 l 1,91,-1
 394 -220 l 1,92,-1
 478 381 l 2,0,1
EndSplineSet
Ligature2: "'liga' Standard Ligatures lookup 13 subtable" uni0E24 uni0E45
EndChar

StartChar: uni0E260E45
Encoding: 65538 -1 443
Width: 950
Flags: W
LayerCount: 2
Fore
SplineSet
491 366 m 2,0,1
 494 390 494 390 494 410 c 0,2,3
 494 485 494 485 451 514 c 128,-1,4
 408 543 408 543 331 543 c 0,5,6
 276 543 276 543 229 528 c 128,-1,7
 182 513 182 513 154.5 491 c 128,-1,8
 127 469 127 469 127 449 c 0,9,10
 127 433 127 433 141 419 c 128,-1,11
 155 405 155 405 172.5 396.5 c 128,-1,12
 190 388 190 388 197 388 c 0,13,14
 207 388 207 388 226 395 c 0,15,16
 250 403 250 403 261 403 c 0,17,18
 268 403 268 403 276 391.5 c 128,-1,19
 284 380 284 380 284 371 c 0,20,21
 284 360 284 360 279 360 c 0,22,23
 158 360 158 360 158 237 c 0,24,25
 158 219 158 219 159 203.5 c 128,-1,26
 160 188 160 188 161 177 c 0,27,28
 164 144 164 144 164 116 c 0,29,30
 164 56 164 56 132.5 24 c 128,-1,31
 101 -8 101 -8 49 -8 c 0,32,33
 12 -8 12 -8 -9.5 13 c 128,-1,34
 -31 34 -31 34 -31 68 c 0,35,36
 -31 111 -31 111 -3.5 135 c 128,-1,37
 24 159 24 159 55 159 c 0,38,39
 72 159 72 159 81 150.5 c 128,-1,40
 90 142 90 142 88 127 c 1,41,-1
 69 127 l 2,42,43
 42 127 42 127 26.5 112.5 c 128,-1,44
 11 98 11 98 11 74 c 0,45,46
 11 55 11 55 22 43.5 c 128,-1,47
 33 32 33 32 54 32 c 0,48,49
 116 32 116 32 116 123 c 0,50,51
 116 149 116 149 113 176 c 0,52,53
 112 185 112 185 111 199.5 c 128,-1,54
 110 214 110 214 110 234 c 0,55,56
 110 318 110 318 155 355 c 1,57,58
 123 366 123 366 96.5 392 c 128,-1,59
 70 418 70 418 70 447 c 0,60,61
 70 477 70 477 103.5 510 c 128,-1,62
 137 543 137 543 197 564.5 c 128,-1,63
 257 586 257 586 332 586 c 0,64,65
 390 586 390 586 437.5 570 c 128,-1,66
 485 554 485 554 513 519 c 1,67,68
 551 549 551 549 600 567.5 c 128,-1,69
 649 586 649 586 703 586 c 0,70,71
 781 586 781 586 826.5 547 c 128,-1,72
 872 508 872 508 872 437 c 0,73,74
 872 417 872 417 870 405 c 2,75,-1
 783 -218 l 1,76,-1
 729 -218 l 1,77,-1
 816 402 l 2,78,79
 818 422 818 422 818 432 c 0,80,81
 818 486 818 486 786.5 514 c 128,-1,82
 755 542 755 542 697 542 c 0,83,84
 610 542 610 542 536 480 c 1,85,86
 547 449 547 449 547 411 c 0,87,88
 547 390 547 390 544 366 c 2,89,-1
 462 -220 l 1,90,-1
 409 -220 l 1,91,-1
 491 366 l 2,0,1
EndSplineSet
Ligature2: "'liga' Standard Ligatures lookup 13 subtable" uni0E26 uni0E45
EndChar

StartChar: uni0E0D
Encoding: 3597 3597 444
Width: 940
GlyphClass: 2
Flags: W
AnchorPoint: "Anchor-12" 880 550 basechar 0
AnchorPoint: "Anchor-11" 749 -228 basechar 0
LayerCount: 2
Fore
SplineSet
472 23 m 128,-1,1
 430 55 430 55 430 124 c 0,2,3
 430 143 430 143 433 165 c 2,4,-1
 463 381 l 2,5,6
 466 402 466 402 466 418 c 0,7,8
 466 543 466 543 302 543 c 0,9,10
 243 543 243 543 200 527.5 c 128,-1,11
 157 512 157 512 135 489.5 c 128,-1,12
 113 467 113 467 113 445 c 256,13,14
 113 423 113 423 135.5 406.5 c 128,-1,15
 158 390 158 390 182 390 c 0,16,17
 192 390 192 390 203.5 392 c 128,-1,18
 215 394 215 394 219 395 c 0,19,20
 237 399 237 399 245 399 c 0,21,22
 252 399 252 399 261 385.5 c 128,-1,23
 270 372 270 372 270 362 c 0,24,25
 270 355 270 355 263 355 c 0,26,27
 193 355 193 355 161.5 322 c 128,-1,28
 130 289 130 289 120 222 c 2,29,-1
 104 114 l 2,30,31
 103 107 103 107 103 94 c 0,32,33
 103 65 103 65 117.5 49.5 c 128,-1,34
 132 34 132 34 159 34 c 0,35,36
 187 34 187 34 202 48.5 c 128,-1,37
 217 63 217 63 217 91 c 0,38,39
 217 113 217 113 205 125 c 128,-1,40
 193 137 193 137 172 137 c 0,41,42
 147 137 147 137 129 128 c 1,43,44
 127 134 127 134 127 138 c 0,45,46
 127 153 127 153 141.5 163.5 c 128,-1,47
 156 174 156 174 181 174 c 0,48,49
 215 174 215 174 237.5 153.5 c 128,-1,50
 260 133 260 133 260 94 c 0,51,52
 260 47 260 47 231.5 20 c 128,-1,53
 203 -7 203 -7 156 -7 c 0,54,55
 107 -7 107 -7 78.5 20.5 c 128,-1,56
 50 48 50 48 50 91 c 0,57,58
 50 107 50 107 51 116 c 2,59,-1
 66 222 l 2,60,61
 73 271 73 271 89.5 304 c 128,-1,62
 106 337 106 337 134 358 c 1,63,64
 105 368 105 368 82 392 c 128,-1,65
 59 416 59 416 59 443 c 0,66,67
 59 476 59 476 88 509 c 128,-1,68
 117 542 117 542 172 564 c 128,-1,69
 227 586 227 586 303 586 c 0,70,71
 404 586 404 586 462 544.5 c 128,-1,72
 520 503 520 503 520 418 c 0,73,74
 520 401 520 401 517 383 c 2,75,-1
 487 167 l 2,76,77
 484 149 484 149 484 132 c 0,78,79
 484 81 484 81 513 59.5 c 128,-1,80
 542 38 542 38 608 38 c 0,81,82
 688 38 688 38 725.5 66.5 c 128,-1,83
 763 95 763 95 773 165 c 2,84,-1
 831 576 l 1,85,-1
 884 576 l 1,86,-1
 826 165 l 2,87,88
 813 72 813 72 758.5 31.5 c 128,-1,89
 704 -9 704 -9 601 -9 c 0,90,0
 514 -9 514 -9 472 23 c 128,-1,1
443.5 -203 m 128,-1,92
 406 -178 406 -178 406 -132 c 0,93,94
 406 -93 406 -93 432.5 -70 c 128,-1,95
 459 -47 459 -47 497 -47 c 0,96,97
 525 -47 525 -47 543 -64 c 128,-1,98
 561 -81 561 -81 561 -105 c 0,99,100
 561 -130 561 -130 547.5 -145 c 128,-1,101
 534 -160 534 -160 517 -160 c 0,102,103
 509 -160 509 -160 503 -157 c 1,104,105
 522 -143 522 -143 522 -118 c 0,106,107
 522 -103 522 -103 514 -94 c 128,-1,108
 506 -85 506 -85 491 -85 c 0,109,110
 471 -85 471 -85 459.5 -96.5 c 128,-1,111
 448 -108 448 -108 448 -128 c 0,112,113
 448 -154 448 -154 473 -169.5 c 128,-1,114
 498 -185 498 -185 547 -185 c 0,115,116
 609 -185 609 -185 645.5 -162 c 128,-1,117
 682 -139 682 -139 706 -91 c 0,118,119
 719 -68 719 -68 736 -68 c 0,120,121
 747 -68 747 -68 769 -78 c 1,122,123
 744 -150 744 -150 683 -189 c 128,-1,124
 622 -228 622 -228 541 -228 c 0,125,91
 481 -228 481 -228 443.5 -203 c 128,-1,92
EndSplineSet
Substitution2: "Single Substitution lookup 14 subtable" yoYingthai.less
Substitution2: "'aalt' Access All Alternates lookup 0 subtable" yoYingthai.less
EndChar

StartChar: yoYingthai.less
Encoding: 65539 -1 445
Width: 940
GlyphClass: 2
Flags: W
AnchorPoint: "Anchor-12" 880 550 basechar 0
AnchorPoint: "Anchor-11" 803 0 basechar 0
LayerCount: 2
Fore
SplineSet
472 23 m 128,-1,1
 430 55 430 55 430 124 c 0,2,3
 430 143 430 143 433 165 c 2,4,-1
 463 381 l 2,5,6
 466 402 466 402 466 418 c 0,7,8
 466 543 466 543 302 543 c 0,9,10
 243 543 243 543 200 527.5 c 128,-1,11
 157 512 157 512 135 489.5 c 128,-1,12
 113 467 113 467 113 445 c 256,13,14
 113 423 113 423 135.5 406.5 c 128,-1,15
 158 390 158 390 182 390 c 0,16,17
 192 390 192 390 203.5 392 c 128,-1,18
 215 394 215 394 219 395 c 0,19,20
 237 399 237 399 245 399 c 0,21,22
 252 399 252 399 261 385.5 c 128,-1,23
 270 372 270 372 270 362 c 0,24,25
 270 355 270 355 263 355 c 0,26,27
 193 355 193 355 161.5 322 c 128,-1,28
 130 289 130 289 120 222 c 2,29,-1
 104 114 l 2,30,31
 103 107 103 107 103 94 c 0,32,33
 103 65 103 65 117.5 49.5 c 128,-1,34
 132 34 132 34 159 34 c 0,35,36
 187 34 187 34 202 48.5 c 128,-1,37
 217 63 217 63 217 91 c 0,38,39
 217 113 217 113 205 125 c 128,-1,40
 193 137 193 137 172 137 c 0,41,42
 147 137 147 137 129 128 c 1,43,44
 127 134 127 134 127 138 c 0,45,46
 127 153 127 153 141.5 163.5 c 128,-1,47
 156 174 156 174 181 174 c 0,48,49
 215 174 215 174 237.5 153.5 c 128,-1,50
 260 133 260 133 260 94 c 0,51,52
 260 47 260 47 231.5 20 c 128,-1,53
 203 -7 203 -7 156 -7 c 0,54,55
 107 -7 107 -7 78.5 20.5 c 128,-1,56
 50 48 50 48 50 91 c 0,57,58
 50 107 50 107 51 116 c 2,59,-1
 66 222 l 2,60,61
 73 271 73 271 89.5 304 c 128,-1,62
 106 337 106 337 134 358 c 1,63,64
 105 368 105 368 82 392 c 128,-1,65
 59 416 59 416 59 443 c 0,66,67
 59 476 59 476 88 509 c 128,-1,68
 117 542 117 542 172 564 c 128,-1,69
 227 586 227 586 303 586 c 0,70,71
 404 586 404 586 462 544.5 c 128,-1,72
 520 503 520 503 520 418 c 0,73,74
 520 401 520 401 517 383 c 2,75,-1
 487 167 l 2,76,77
 484 149 484 149 484 132 c 0,78,79
 484 81 484 81 513 59.5 c 128,-1,80
 542 38 542 38 608 38 c 0,81,82
 688 38 688 38 725.5 66.5 c 128,-1,83
 763 95 763 95 773 165 c 2,84,-1
 831 576 l 1,85,-1
 884 576 l 1,86,-1
 826 165 l 2,87,88
 813 72 813 72 758.5 31.5 c 128,-1,89
 704 -9 704 -9 601 -9 c 0,90,0
 514 -9 514 -9 472 23 c 128,-1,1
EndSplineSet
EndChar

StartChar: uni0E0E
Encoding: 3598 3598 446
Width: 629
GlyphClass: 2
Flags: W
AnchorPoint: "Anchor-12" 570 550 basechar 0
AnchorPoint: "Anchor-11" 458 -245 basechar 0
LayerCount: 2
Fore
SplineSet
486 544.5 m 128,-1,1
 547 503 547 503 547 411 c 0,2,3
 547 390 547 390 544 366 c 2,4,-1
 458 -245 l 1,5,-1
 404 -245 l 1,6,7
 361 -186 361 -186 311 -149 c 1,8,9
 279 -194 279 -194 229.5 -221 c 128,-1,10
 180 -248 180 -248 129 -248 c 0,11,12
 77 -248 77 -248 44.5 -226 c 128,-1,13
 12 -204 12 -204 12 -168 c 0,14,15
 12 -139 12 -139 33.5 -114.5 c 128,-1,16
 55 -90 55 -90 92.5 -75 c 128,-1,17
 130 -60 130 -60 176 -60 c 0,18,19
 236 -60 236 -60 291 -85 c 1,20,21
 302 -57 302 -57 310 -18 c 1,22,23
 331 -18 331 -18 341 -27.5 c 128,-1,24
 351 -37 351 -37 349 -52 c 0,25,26
 344 -84 344 -84 333 -109 c 1,27,28
 378 -141 378 -141 413 -186 c 1,29,-1
 491 366 l 2,30,31
 494 390 494 390 494 410 c 0,32,33
 494 485 494 485 451 514 c 128,-1,34
 408 543 408 543 331 543 c 0,35,36
 276 543 276 543 229 528 c 128,-1,37
 182 513 182 513 154.5 491 c 128,-1,38
 127 469 127 469 127 449 c 0,39,40
 127 433 127 433 141 419 c 128,-1,41
 155 405 155 405 172.5 396.5 c 128,-1,42
 190 388 190 388 197 388 c 0,43,44
 207 388 207 388 226 395 c 0,45,46
 250 403 250 403 261 403 c 0,47,48
 268 403 268 403 276 391.5 c 128,-1,49
 284 380 284 380 284 371 c 0,50,51
 284 360 284 360 279 360 c 0,52,53
 158 360 158 360 158 237 c 0,54,55
 158 219 158 219 159 203.5 c 128,-1,56
 160 188 160 188 161 177 c 0,57,58
 164 144 164 144 164 116 c 0,59,60
 164 56 164 56 132.5 24 c 128,-1,61
 101 -8 101 -8 49 -8 c 0,62,63
 12 -8 12 -8 -9.5 13 c 128,-1,64
 -31 34 -31 34 -31 68 c 0,65,66
 -31 111 -31 111 -3.5 135 c 128,-1,67
 24 159 24 159 55 159 c 0,68,69
 72 159 72 159 81 150.5 c 128,-1,70
 90 142 90 142 88 127 c 1,71,-1
 69 127 l 2,72,73
 42 127 42 127 26.5 112.5 c 128,-1,74
 11 98 11 98 11 74 c 0,75,76
 11 55 11 55 22 43.5 c 128,-1,77
 33 32 33 32 54 32 c 0,78,79
 116 32 116 32 116 123 c 0,80,81
 116 149 116 149 113 176 c 0,82,83
 112 185 112 185 111 199.5 c 128,-1,84
 110 214 110 214 110 234 c 0,85,86
 110 317 110 317 155 355 c 1,87,88
 122 367 122 367 96 392.5 c 128,-1,89
 70 418 70 418 70 447 c 0,90,91
 70 477 70 477 103.5 510 c 128,-1,92
 137 543 137 543 197 564.5 c 128,-1,93
 257 586 257 586 332 586 c 0,94,0
 425 586 425 586 486 544.5 c 128,-1,1
209.5 -185.5 m 128,-1,96
 245 -165 245 -165 271 -124 c 1,97,98
 223 -99 223 -99 176 -99 c 0,99,100
 123 -99 123 -99 92.5 -117 c 128,-1,101
 62 -135 62 -135 62 -164 c 0,102,103
 62 -184 62 -184 82 -195 c 128,-1,104
 102 -206 102 -206 134 -206 c 0,105,95
 174 -206 174 -206 209.5 -185.5 c 128,-1,96
EndSplineSet
Substitution2: "Single Substitution lookup 14 subtable" doChadathai.short
Substitution2: "'aalt' Access All Alternates lookup 0 subtable" doChadathai.short
EndChar

StartChar: doChadathai.short
Encoding: 65540 -1 447
Width: 629
GlyphClass: 2
Flags: W
AnchorPoint: "Anchor-12" 570 550 basechar 0
AnchorPoint: "Anchor-11" 464 -195 basechar 0
LayerCount: 2
Fore
SplineSet
486 544.5 m 128,-1,1
 547 503 547 503 547 411 c 0,2,3
 547 390 547 390 544 366 c 2,4,-1
 464 -195 l 1,5,-1
 410 -195 l 1,6,7
 368 -136 368 -136 316 -98 c 1,8,9
 284 -144 284 -144 235 -171 c 128,-1,10
 186 -198 186 -198 135 -198 c 0,11,12
 83 -198 83 -198 50.5 -176 c 128,-1,13
 18 -154 18 -154 18 -118 c 0,14,15
 18 -89 18 -89 39.5 -64.5 c 128,-1,16
 61 -40 61 -40 98.5 -25 c 128,-1,17
 136 -10 136 -10 182 -10 c 0,18,19
 242 -10 242 -10 297 -35 c 1,20,21
 308 -7 308 -7 316 32 c 1,22,23
 337 32 337 32 347 22.5 c 128,-1,24
 357 13 357 13 355 -2 c 0,25,26
 351 -30 351 -30 338 -59 c 1,27,28
 383 -89 383 -89 419 -136 c 1,29,-1
 491 366 l 2,30,31
 494 390 494 390 494 410 c 0,32,33
 494 485 494 485 451 514 c 128,-1,34
 408 543 408 543 331 543 c 0,35,36
 276 543 276 543 229 528 c 128,-1,37
 182 513 182 513 154.5 491 c 128,-1,38
 127 469 127 469 127 449 c 0,39,40
 127 433 127 433 141 419 c 128,-1,41
 155 405 155 405 172.5 396.5 c 128,-1,42
 190 388 190 388 197 388 c 0,43,44
 207 388 207 388 226 395 c 0,45,46
 250 403 250 403 261 403 c 0,47,48
 268 403 268 403 276 391.5 c 128,-1,49
 284 380 284 380 284 371 c 0,50,51
 284 360 284 360 279 360 c 0,52,53
 158 360 158 360 158 237 c 0,54,55
 158 219 158 219 159 203.5 c 128,-1,56
 160 188 160 188 161 177 c 0,57,58
 164 144 164 144 164 116 c 0,59,60
 164 56 164 56 132.5 24 c 128,-1,61
 101 -8 101 -8 49 -8 c 0,62,63
 12 -8 12 -8 -9.5 13 c 128,-1,64
 -31 34 -31 34 -31 68 c 0,65,66
 -31 111 -31 111 -3.5 135 c 128,-1,67
 24 159 24 159 55 159 c 0,68,69
 72 159 72 159 81 150.5 c 128,-1,70
 90 142 90 142 88 127 c 1,71,-1
 69 127 l 2,72,73
 42 127 42 127 26.5 112.5 c 128,-1,74
 11 98 11 98 11 74 c 0,75,76
 11 55 11 55 22 43.5 c 128,-1,77
 33 32 33 32 54 32 c 0,78,79
 116 32 116 32 116 123 c 0,80,81
 116 149 116 149 113 176 c 0,82,83
 112 185 112 185 111 199.5 c 128,-1,84
 110 214 110 214 110 234 c 0,85,86
 110 317 110 317 155 355 c 1,87,88
 122 367 122 367 96 392.5 c 128,-1,89
 70 418 70 418 70 447 c 0,90,91
 70 477 70 477 103.5 510 c 128,-1,92
 137 543 137 543 197 564.5 c 128,-1,93
 257 586 257 586 332 586 c 0,94,0
 425 586 425 586 486 544.5 c 128,-1,1
215.5 -135.5 m 128,-1,96
 251 -115 251 -115 277 -74 c 1,97,98
 229 -49 229 -49 182 -49 c 0,99,100
 129 -49 129 -49 98.5 -67 c 128,-1,101
 68 -85 68 -85 68 -114 c 0,102,103
 68 -134 68 -134 88.5 -145 c 128,-1,104
 109 -156 109 -156 140 -156 c 0,105,95
 180 -156 180 -156 215.5 -135.5 c 128,-1,96
EndSplineSet
EndChar

StartChar: uni0E0F
Encoding: 3599 3599 448
Width: 630
GlyphClass: 2
Flags: W
AnchorPoint: "Anchor-12" 560 550 basechar 0
AnchorPoint: "Anchor-11" 503 -250 basechar 0
LayerCount: 2
Fore
SplineSet
486 544.5 m 128,-1,1
 547 503 547 503 547 411 c 0,2,3
 547 390 547 390 544 366 c 2,4,-1
 457 -250 l 1,5,-1
 400 -250 l 1,6,-1
 330 -195 l 1,7,-1
 243 -247 l 1,8,-1
 204 -202 l 1,9,10
 179 -226 179 -226 147.5 -239 c 128,-1,11
 116 -252 116 -252 80 -252 c 0,12,13
 38 -252 38 -252 9 -229.5 c 128,-1,14
 -20 -207 -20 -207 -20 -171 c 0,15,16
 -20 -128 -20 -128 12.5 -104.5 c 128,-1,17
 45 -81 45 -81 87 -81 c 0,18,19
 149 -81 149 -81 200 -132 c 1,20,21
 217 -96 217 -96 221 -39 c 1,22,23
 238 -39 238 -39 248.5 -48 c 128,-1,24
 259 -57 259 -57 259 -76 c 0,25,26
 259 -125 259 -125 232 -168 c 1,27,-1
 254 -194 l 1,28,-1
 336 -146 l 1,29,-1
 411 -202 l 1,30,-1
 491 366 l 2,31,32
 494 390 494 390 494 410 c 0,33,34
 494 485 494 485 451 514 c 128,-1,35
 408 543 408 543 331 543 c 0,36,37
 276 543 276 543 229 528 c 128,-1,38
 182 513 182 513 154.5 491 c 128,-1,39
 127 469 127 469 127 449 c 0,40,41
 127 433 127 433 141 419 c 128,-1,42
 155 405 155 405 172.5 396.5 c 128,-1,43
 190 388 190 388 197 388 c 0,44,45
 207 388 207 388 226 395 c 0,46,47
 250 403 250 403 261 403 c 0,48,49
 268 403 268 403 276 391.5 c 128,-1,50
 284 380 284 380 284 371 c 0,51,52
 284 360 284 360 279 360 c 0,53,54
 158 360 158 360 158 237 c 0,55,56
 158 219 158 219 159 203.5 c 128,-1,57
 160 188 160 188 161 177 c 0,58,59
 164 144 164 144 164 116 c 0,60,61
 164 56 164 56 132.5 24 c 128,-1,62
 101 -8 101 -8 49 -8 c 0,63,64
 12 -8 12 -8 -9.5 13 c 128,-1,65
 -31 34 -31 34 -31 68 c 0,66,67
 -31 111 -31 111 -3.5 135 c 128,-1,68
 24 159 24 159 55 159 c 0,69,70
 72 159 72 159 81 150.5 c 128,-1,71
 90 142 90 142 88 127 c 1,72,-1
 69 127 l 2,73,74
 42 127 42 127 26.5 112.5 c 128,-1,75
 11 98 11 98 11 74 c 0,76,77
 11 55 11 55 22 43.5 c 128,-1,78
 33 32 33 32 54 32 c 0,79,80
 116 32 116 32 116 123 c 0,81,82
 116 149 116 149 113 176 c 0,83,84
 112 185 112 185 111 199.5 c 128,-1,85
 110 214 110 214 110 234 c 0,86,87
 110 317 110 317 155 355 c 1,88,89
 122 367 122 367 96 392.5 c 128,-1,90
 70 418 70 418 70 447 c 0,91,92
 70 477 70 477 103.5 510 c 128,-1,93
 137 543 137 543 197 564.5 c 128,-1,94
 257 586 257 586 332 586 c 0,95,0
 425 586 425 586 486 544.5 c 128,-1,1
134.5 -202.5 m 128,-1,97
 158 -192 158 -192 176 -171 c 1,98,99
 130 -120 130 -120 87 -120 c 0,100,101
 60 -120 60 -120 43 -132.5 c 128,-1,102
 26 -145 26 -145 26 -167 c 0,103,104
 26 -188 26 -188 42.5 -200.5 c 128,-1,105
 59 -213 59 -213 86 -213 c 0,106,96
 111 -213 111 -213 134.5 -202.5 c 128,-1,97
EndSplineSet
Substitution2: "Single Substitution lookup 14 subtable" toPatakthai.short
Substitution2: "'aalt' Access All Alternates lookup 0 subtable" toPatakthai.short
EndChar

StartChar: toPatakthai.short
Encoding: 65541 -1 449
Width: 630
GlyphClass: 2
Flags: W
AnchorPoint: "Anchor-12" 571 550 basechar 0
AnchorPoint: "Anchor-11" 465 -199 basechar 0
LayerCount: 2
Fore
SplineSet
486 544.5 m 128,-1,1
 547 503 547 503 547 411 c 0,2,3
 547 390 547 390 544 366 c 2,4,-1
 465 -199 l 1,5,-1
 408 -199 l 1,6,-1
 338 -144 l 1,7,-1
 251 -196 l 1,8,-1
 212 -150 l 1,9,10
 187 -174 187 -174 155.5 -187 c 128,-1,11
 124 -200 124 -200 88 -200 c 0,12,13
 46 -200 46 -200 17 -177.5 c 128,-1,14
 -12 -155 -12 -155 -12 -120 c 0,15,16
 -12 -77 -12 -77 20.5 -53.5 c 128,-1,17
 53 -30 53 -30 95 -30 c 0,18,19
 155 -30 155 -30 208 -81 c 1,20,21
 225 -45 225 -45 229 13 c 1,22,23
 246 13 246 13 256.5 3.5 c 128,-1,24
 267 -6 267 -6 267 -25 c 0,25,26
 267 -74 267 -74 240 -117 c 1,27,-1
 262 -142 l 1,28,-1
 344 -95 l 1,29,-1
 419 -150 l 1,30,-1
 491 366 l 2,31,32
 494 390 494 390 494 410 c 0,33,34
 494 485 494 485 451 514 c 128,-1,35
 408 543 408 543 331 543 c 0,36,37
 276 543 276 543 229 528 c 128,-1,38
 182 513 182 513 154.5 491 c 128,-1,39
 127 469 127 469 127 449 c 0,40,41
 127 433 127 433 141 419 c 128,-1,42
 155 405 155 405 172.5 396.5 c 128,-1,43
 190 388 190 388 197 388 c 0,44,45
 207 388 207 388 226 395 c 0,46,47
 250 403 250 403 261 403 c 0,48,49
 268 403 268 403 276 391.5 c 128,-1,50
 284 380 284 380 284 371 c 0,51,52
 284 360 284 360 279 360 c 0,53,54
 158 360 158 360 158 237 c 0,55,56
 158 219 158 219 159 203.5 c 128,-1,57
 160 188 160 188 161 177 c 0,58,59
 164 144 164 144 164 116 c 0,60,61
 164 56 164 56 132.5 24 c 128,-1,62
 101 -8 101 -8 49 -8 c 0,63,64
 12 -8 12 -8 -9.5 13 c 128,-1,65
 -31 34 -31 34 -31 68 c 0,66,67
 -31 111 -31 111 -3.5 135 c 128,-1,68
 24 159 24 159 55 159 c 0,69,70
 72 159 72 159 81 150.5 c 128,-1,71
 90 142 90 142 88 127 c 1,72,-1
 69 127 l 2,73,74
 42 127 42 127 26.5 112.5 c 128,-1,75
 11 98 11 98 11 74 c 0,76,77
 11 55 11 55 22 43.5 c 128,-1,78
 33 32 33 32 54 32 c 0,79,80
 116 32 116 32 116 123 c 0,81,82
 116 149 116 149 113 176 c 0,83,84
 112 185 112 185 111 199.5 c 128,-1,85
 110 214 110 214 110 234 c 0,86,87
 110 317 110 317 155 355 c 1,88,89
 122 367 122 367 96 392.5 c 128,-1,90
 70 418 70 418 70 447 c 0,91,92
 70 477 70 477 103.5 510 c 128,-1,93
 137 543 137 543 197 564.5 c 128,-1,94
 257 586 257 586 332 586 c 0,95,0
 425 586 425 586 486 544.5 c 128,-1,1
185 -119 m 1,97,98
 140 -69 140 -69 95 -69 c 0,99,100
 68 -69 68 -69 51 -81.5 c 128,-1,101
 34 -94 34 -94 34 -115 c 0,102,103
 34 -135 34 -135 50.5 -148 c 128,-1,104
 67 -161 67 -161 94 -161 c 0,105,96
 149 -161 149 -161 185 -119 c 1,97,98
EndSplineSet
EndChar

StartChar: uni0E10
Encoding: 3600 3600 450
Width: 589
GlyphClass: 2
Flags: W
AnchorPoint: "Anchor-12" 505 550 basechar 0
AnchorPoint: "Anchor-11" 391 -277 basechar 0
LayerCount: 2
Fore
SplineSet
118 440 m 0,1,2
 118 429 118 429 120.5 416.5 c 128,-1,3
 123 404 123 404 126 398 c 1,4,5
 153 401 153 401 208.5 405 c 128,-1,6
 264 409 264 409 311 408 c 0,7,8
 390 406 390 406 433.5 374.5 c 128,-1,9
 477 343 477 343 477 281 c 0,10,11
 477 249 477 249 467.5 212 c 128,-1,12
 458 175 458 175 438 114 c 0,13,14
 422 68 422 68 409 18 c 0,15,16
 405 6 405 6 377.5 -1.5 c 128,-1,17
 350 -9 350 -9 310 -9 c 0,18,19
 271 -9 271 -9 243.5 0 c 128,-1,20
 216 9 216 9 218 21 c 0,21,22
 228 137 228 137 228 183 c 0,23,24
 228 216 228 216 214.5 233.5 c 128,-1,25
 201 251 201 251 175 251 c 0,26,27
 151 251 151 251 137 238 c 128,-1,28
 123 225 123 225 123 201 c 0,29,30
 123 179 123 179 134.5 167 c 128,-1,31
 146 155 146 155 166 155 c 0,32,33
 191 155 191 155 208 169 c 1,34,35
 211 165 211 165 211 157 c 0,36,37
 211 141 211 141 196.5 130.5 c 128,-1,38
 182 120 182 120 158 120 c 0,39,40
 122 120 122 120 100.5 141.5 c 128,-1,41
 79 163 79 163 79 199 c 0,42,43
 79 241 79 241 106.5 266 c 128,-1,44
 134 291 134 291 180 291 c 0,45,46
 225 291 225 291 250 263 c 128,-1,47
 275 235 275 235 276 188 c 0,48,49
 276 151 276 151 273 112.5 c 128,-1,50
 270 74 270 74 269 64 c 2,51,-1
 267 43 l 2,52,53
 267 39 267 39 281.5 35 c 128,-1,54
 296 31 296 31 313 31 c 0,55,56
 332 31 332 31 348 34.5 c 128,-1,57
 364 38 364 38 365 43 c 0,58,59
 371 66 371 66 376.5 83 c 128,-1,60
 382 100 382 100 386 112 c 0,61,62
 405 172 405 172 414 208.5 c 128,-1,63
 423 245 423 245 423 274 c 0,64,65
 423 321 423 321 390.5 342 c 128,-1,66
 358 363 358 363 283 363 c 0,67,68
 234 363 234 363 116 352 c 2,69,-1
 89 349 l 1,70,71
 78 365 78 365 71 390 c 128,-1,72
 64 415 64 415 64 440 c 0,73,74
 64 508 64 508 107 545 c 128,-1,75
 150 582 150 582 227 582 c 0,76,77
 265 582 265 582 337 572 c 0,78,79
 399 564 399 564 422 564 c 0,80,81
 498 564 498 564 528 592 c 1,82,83
 539 583 539 583 539 567 c 0,84,85
 539 516 539 516 432 516 c 0,86,87
 402 516 402 516 336 526 c 0,88,89
 272 537 272 537 230 537 c 0,90,0
 118 537 118 537 118 440 c 0,1,2
409 -76 m 128,-1,92
 430 -96 430 -96 430 -127 c 0,93,94
 430 -146 430 -146 424.5 -161.5 c 128,-1,95
 419 -177 419 -177 407 -200 c 0,96,97
 395 -224 395 -224 388 -239.5 c 128,-1,98
 381 -255 381 -255 378 -277 c 1,99,-1
 330 -277 l 1,100,-1
 276 -243 l 1,101,-1
 206 -280 l 1,102,-1
 169 -232 l 1,103,104
 147 -254 147 -254 120.5 -267 c 128,-1,105
 94 -280 94 -280 65 -280 c 0,106,107
 25 -280 25 -280 2.5 -257.5 c 128,-1,108
 -20 -235 -20 -235 -20 -202 c 0,109,110
 -20 -164 -20 -164 5.5 -143 c 128,-1,111
 31 -122 31 -122 72 -122 c 0,112,113
 123 -122 123 -122 165 -168 c 1,114,115
 177 -135 177 -135 178 -99 c 1,116,117
 196 -99 196 -99 204.5 -105 c 128,-1,118
 213 -111 213 -111 213 -126 c 0,119,120
 213 -165 213 -165 192 -201 c 1,121,-1
 218 -234 l 1,122,-1
 277 -203 l 1,123,-1
 342 -240 l 1,124,125
 346 -218 346 -218 366 -186 c 0,126,127
 377 -167 377 -167 382 -155 c 128,-1,128
 387 -143 387 -143 387 -129 c 0,129,130
 387 -112 387 -112 377.5 -102 c 128,-1,131
 368 -92 368 -92 351 -92 c 0,132,133
 333 -92 333 -92 321.5 -102 c 128,-1,134
 310 -112 310 -112 310 -130 c 0,135,136
 310 -147 310 -147 320.5 -157.5 c 128,-1,137
 331 -168 331 -168 350 -170 c 1,138,139
 347 -185 347 -185 323 -185 c 0,140,141
 303 -185 303 -185 288.5 -169.5 c 128,-1,142
 274 -154 274 -154 274 -130 c 0,143,144
 274 -95 274 -95 296 -75.5 c 128,-1,145
 318 -56 318 -56 353 -56 c 256,146,91
 388 -56 388 -56 409 -76 c 128,-1,92
146 -202 m 1,148,149
 128 -181 128 -181 110 -170 c 128,-1,150
 92 -159 92 -159 71 -159 c 0,151,152
 21 -159 21 -159 21 -201 c 0,153,154
 21 -221 21 -221 33.5 -232 c 128,-1,155
 46 -243 46 -243 68 -243 c 0,156,147
 116 -243 116 -243 146 -202 c 1,148,149
EndSplineSet
Substitution2: "Single Substitution lookup 14 subtable" thoThanthai.less
Substitution2: "'aalt' Access All Alternates lookup 0 subtable" thoThanthai.less
EndChar

StartChar: thoThanthai.less
Encoding: 65542 -1 451
Width: 575
GlyphClass: 2
Flags: W
AnchorPoint: "Anchor-12" 516 550 basechar 0
AnchorPoint: "Anchor-11" 426 0 basechar 0
LayerCount: 2
Fore
SplineSet
243.5 0 m 128,-1,1
 216 9 216 9 218 21 c 0,2,3
 228 137 228 137 228 183 c 0,4,5
 228 216 228 216 214.5 233.5 c 128,-1,6
 201 251 201 251 175 251 c 0,7,8
 151 251 151 251 137 238 c 128,-1,9
 123 225 123 225 123 201 c 0,10,11
 123 179 123 179 134.5 167 c 128,-1,12
 146 155 146 155 166 155 c 0,13,14
 191 155 191 155 208 169 c 1,15,16
 211 165 211 165 211 157 c 0,17,18
 211 141 211 141 196.5 130.5 c 128,-1,19
 182 120 182 120 158 120 c 0,20,21
 122 120 122 120 100.5 141.5 c 128,-1,22
 79 163 79 163 79 199 c 0,23,24
 79 241 79 241 106.5 266 c 128,-1,25
 134 291 134 291 180 291 c 0,26,27
 225 291 225 291 250 263 c 128,-1,28
 275 235 275 235 276 188 c 0,29,30
 276 151 276 151 273 112.5 c 128,-1,31
 270 74 270 74 269 64 c 2,32,-1
 267 43 l 2,33,34
 267 39 267 39 281.5 35 c 128,-1,35
 296 31 296 31 313 31 c 0,36,37
 332 31 332 31 348 34.5 c 128,-1,38
 364 38 364 38 365 43 c 0,39,40
 371 66 371 66 376.5 83 c 128,-1,41
 382 100 382 100 386 112 c 0,42,43
 405 172 405 172 414 208.5 c 128,-1,44
 423 245 423 245 423 274 c 0,45,46
 423 321 423 321 390.5 342 c 128,-1,47
 358 363 358 363 283 363 c 0,48,49
 234 363 234 363 116 352 c 2,50,-1
 89 349 l 1,51,52
 78 365 78 365 71 390 c 128,-1,53
 64 415 64 415 64 440 c 0,54,55
 64 508 64 508 107 545 c 128,-1,56
 150 582 150 582 227 582 c 0,57,58
 265 582 265 582 337 572 c 0,59,60
 399 564 399 564 422 564 c 0,61,62
 498 564 498 564 528 592 c 1,63,64
 539 583 539 583 539 567 c 0,65,66
 539 516 539 516 432 516 c 0,67,68
 402 516 402 516 336 526 c 0,69,70
 272 537 272 537 230 537 c 0,71,72
 118 537 118 537 118 440 c 0,73,74
 118 429 118 429 120.5 416.5 c 128,-1,75
 123 404 123 404 126 398 c 1,76,77
 153 401 153 401 208.5 405 c 128,-1,78
 264 409 264 409 311 408 c 0,79,80
 390 406 390 406 433.5 374.5 c 128,-1,81
 477 343 477 343 477 281 c 0,82,83
 477 249 477 249 467.5 212 c 128,-1,84
 458 175 458 175 438 114 c 0,85,86
 422 68 422 68 409 18 c 0,87,88
 405 6 405 6 377.5 -1.5 c 128,-1,89
 350 -9 350 -9 310 -9 c 0,90,0
 271 -9 271 -9 243.5 0 c 128,-1,1
EndSplineSet
EndChar

StartChar: uni0E11
Encoding: 3601 3601 452
Width: 655
GlyphClass: 2
Flags: W
AnchorPoint: "Anchor-12" 596 550 basechar 0
AnchorPoint: "Anchor-11" 518 0 basechar 0
LayerCount: 2
Fore
SplineSet
554 553.5 m 128,-1,1
 582 527 582 527 582 476 c 0,2,3
 582 456 582 456 580 445 c 2,4,-1
 518 0 l 1,5,-1
 465 0 l 1,6,-1
 526 439 l 2,7,8
 529 459 529 459 529 473 c 0,9,10
 529 504 529 504 514.5 519 c 128,-1,11
 500 534 500 534 469 534 c 0,12,13
 443 534 443 534 418 518.5 c 128,-1,14
 393 503 393 503 363 472 c 128,-1,15
 333 441 333 441 264 364 c 0,16,17
 227 324 227 324 206 292 c 128,-1,18
 185 260 185 260 180 222 c 2,19,-1
 148 0 l 1,20,-1
 107 0 l 2,21,22
 94 0 94 0 94 12 c 0,23,24
 94 19 94 19 95.5 26 c 128,-1,25
 97 33 97 33 98 39 c 0,26,27
 104 67 104 67 109 99 c 2,28,-1
 126 226 l 2,29,30
 133 271 133 271 154.5 303 c 128,-1,31
 176 335 176 335 198.5 359 c 128,-1,32
 221 383 221 383 228 390 c 0,33,34
 290 457 290 457 290 505 c 0,35,36
 290 538 290 538 258 538 c 0,37,38
 222 538 222 538 193 494 c 1,39,40
 183 517 183 517 170 528.5 c 128,-1,41
 157 540 157 540 136 540 c 0,42,43
 109 540 109 540 92.5 522 c 128,-1,44
 76 504 76 504 76 474 c 0,45,46
 76 452 76 452 88 440 c 128,-1,47
 100 428 100 428 121 428 c 0,48,49
 143 428 143 428 158.5 441.5 c 128,-1,50
 174 455 174 455 182 474 c 1,51,52
 195 471 195 471 195 456 c 0,53,54
 195 431 195 431 171.5 410.5 c 128,-1,55
 148 390 148 390 116 390 c 0,56,57
 78 390 78 390 55.5 411.5 c 128,-1,58
 33 433 33 433 33 469 c 0,59,60
 33 516 33 516 63 548 c 128,-1,61
 93 580 93 580 136 580 c 0,62,63
 182 580 182 580 200 542 c 1,64,65
 228 579 228 579 273 579 c 0,66,67
 302 579 302 579 319.5 560.5 c 128,-1,68
 337 542 337 542 338 509 c 1,69,70
 367 541 367 541 402 560.5 c 128,-1,71
 437 580 437 580 473 580 c 0,72,0
 526 580 526 580 554 553.5 c 128,-1,1
EndSplineSet
EndChar

StartChar: uni0E12
Encoding: 3602 3602 453
Width: 929
GlyphClass: 2
Flags: W
AnchorPoint: "Anchor-12" 852 550 basechar 0
AnchorPoint: "Anchor-11" 775 0 basechar 0
LayerCount: 2
Fore
SplineSet
856 576 m 1,0,-1
 792 125 l 2,1,2
 789 94 789 94 787 74.5 c 128,-1,3
 785 55 785 55 784 44 c 0,4,5
 782 18 782 18 782 19 c 1,6,7
 779 0 779 0 764 0 c 2,8,-1
 727 0 l 1,9,10
 694 91 694 91 639.5 138 c 128,-1,11
 585 185 585 185 516 193 c 1,12,-1
 503 94 l 2,13,14
 497 44 497 44 473 17.5 c 128,-1,15
 449 -9 449 -9 409 -9 c 0,16,17
 371 -9 371 -9 346.5 18 c 128,-1,18
 322 45 322 45 322 95 c 0,19,20
 322 155 322 155 364 192.5 c 128,-1,21
 406 230 406 230 469 236 c 1,22,-1
 488 370 l 2,23,24
 492 397 492 397 492 424 c 0,25,26
 492 473 492 473 472.5 499.5 c 128,-1,27
 453 526 453 526 414 536 c 1,28,29
 392 521 392 521 319 477 c 1,30,31
 256 520 256 520 238 536 c 1,32,33
 171 514 171 514 138.5 457.5 c 128,-1,34
 106 401 106 401 106 322 c 0,35,36
 106 222 106 222 160 161 c 1,37,38
 188 185 188 185 255 226 c 2,39,-1
 278 241 l 2,40,41
 309 260 309 260 323 278 c 128,-1,42
 337 296 337 296 337 320 c 0,43,44
 337 343 337 343 324 356.5 c 128,-1,45
 311 370 311 370 287 370 c 0,46,47
 261 370 261 370 246.5 355.5 c 128,-1,48
 232 341 232 341 232 315 c 0,49,50
 232 296 232 296 243 282.5 c 128,-1,51
 254 269 254 269 273 262 c 1,52,53
 265 247 265 247 244 247 c 256,54,55
 223 247 223 247 206.5 267 c 128,-1,56
 190 287 190 287 190 315 c 0,57,58
 190 358 190 358 218.5 384.5 c 128,-1,59
 247 411 247 411 291 411 c 0,60,61
 332 411 332 411 357 386 c 128,-1,62
 382 361 382 361 382 324 c 0,63,64
 382 284 382 284 360.5 258 c 128,-1,65
 339 232 339 232 299 206 c 0,66,67
 232 164 232 164 198 139 c 128,-1,68
 164 114 164 114 140 80 c 128,-1,69
 116 46 116 46 110 0 c 1,70,-1
 66 0 l 2,71,72
 61 0 61 0 58.5 2 c 128,-1,73
 56 4 56 4 56 11 c 0,74,75
 56 30 56 30 67.5 49.5 c 128,-1,76
 79 69 79 69 97 93 c 0,77,78
 105 104 105 104 111 113 c 128,-1,79
 117 122 117 122 117 127 c 0,80,81
 117 134 117 134 104 155 c 0,82,83
 82 192 82 192 68 230 c 128,-1,84
 54 268 54 268 54 322 c 0,85,86
 54 427 54 427 98 492 c 128,-1,87
 142 557 142 557 241 586 c 1,88,89
 300 546 300 546 322 524 c 1,90,91
 350 545 350 545 390 569 c 2,92,-1
 417 586 l 1,93,94
 483 569 483 569 514.5 530 c 128,-1,95
 546 491 546 491 546 428 c 0,96,97
 546 401 546 401 542 374 c 2,98,-1
 522 236 l 1,99,100
 588 229 588 229 643 193.5 c 128,-1,101
 698 158 698 158 736 92 c 1,102,-1
 804 576 l 1,103,-1
 856 576 l 1,0,-1
437.5 49 m 128,-1,105
 448 63 448 63 452 98 c 0,106,107
 458 135 458 135 460 162 c 2,108,-1
 464 194 l 1,109,110
 422 188 422 188 396.5 163 c 128,-1,111
 371 138 371 138 371 93 c 0,112,113
 371 67 371 67 381 51 c 128,-1,114
 391 35 391 35 409 35 c 256,115,104
 427 35 427 35 437.5 49 c 128,-1,105
EndSplineSet
EndChar

StartChar: uni0E13
Encoding: 3603 3603 454
Width: 933
GlyphClass: 2
Flags: W
AnchorPoint: "Anchor-12" 873 550 basechar 0
AnchorPoint: "Anchor-11" 796 0 basechar 0
LayerCount: 2
Fore
SplineSet
852 113 m 0,1,2
 852 59 852 59 819 27.5 c 128,-1,3
 786 -4 786 -4 736 -4 c 0,4,5
 693 -4 693 -4 666 20.5 c 128,-1,6
 639 45 639 45 639 87 c 0,7,8
 639 121 639 121 653.5 144.5 c 128,-1,9
 668 168 668 168 695 189 c 1,10,-1
 679 189 l 2,11,12
 634 189 634 189 585 162 c 128,-1,13
 536 135 536 135 500.5 91 c 128,-1,14
 465 47 465 47 459 0 c 1,15,-1
 422 0 l 2,16,17
 405 0 405 0 405 15 c 0,18,19
 405 16 405 16 409 40 c 0,20,21
 418 76 418 76 422 113 c 2,22,-1
 458 381 l 2,23,24
 461 402 461 402 461 418 c 0,25,26
 461 543 461 543 302 543 c 0,27,28
 243 543 243 543 200 527.5 c 128,-1,29
 157 512 157 512 135 489.5 c 128,-1,30
 113 467 113 467 113 445 c 256,31,32
 113 423 113 423 135.5 406.5 c 128,-1,33
 158 390 158 390 182 390 c 0,34,35
 192 390 192 390 203.5 392 c 128,-1,36
 215 394 215 394 219 395 c 0,37,38
 237 399 237 399 245 399 c 0,39,40
 252 399 252 399 261 385.5 c 128,-1,41
 270 372 270 372 270 362 c 0,42,43
 270 355 270 355 263 355 c 0,44,45
 193 355 193 355 161.5 322 c 128,-1,46
 130 289 130 289 120 221 c 2,47,-1
 104 114 l 2,48,49
 103 107 103 107 103 94 c 0,50,51
 103 65 103 65 117.5 49.5 c 128,-1,52
 132 34 132 34 159 34 c 0,53,54
 187 34 187 34 202 48.5 c 128,-1,55
 217 63 217 63 217 91 c 0,56,57
 217 113 217 113 205 125 c 128,-1,58
 193 137 193 137 172 137 c 0,59,60
 147 137 147 137 129 128 c 1,61,62
 127 134 127 134 127 138 c 0,63,64
 127 153 127 153 141.5 163.5 c 128,-1,65
 156 174 156 174 181 174 c 0,66,67
 215 174 215 174 237.5 153.5 c 128,-1,68
 260 133 260 133 260 94 c 0,69,70
 260 47 260 47 231.5 20 c 128,-1,71
 203 -7 203 -7 156 -7 c 0,72,73
 107 -7 107 -7 78.5 20.5 c 128,-1,74
 50 48 50 48 50 91 c 0,75,76
 50 107 50 107 51 116 c 2,77,-1
 66 221 l 2,78,79
 73 271 73 271 89.5 303.5 c 128,-1,80
 106 336 106 336 134 357 c 1,81,82
 105 368 105 368 82 392 c 128,-1,83
 59 416 59 416 59 443 c 0,84,85
 59 476 59 476 88 509 c 128,-1,86
 117 542 117 542 172 564 c 128,-1,87
 227 586 227 586 303 586 c 0,88,89
 401 586 401 586 458 544.5 c 128,-1,90
 515 503 515 503 515 418 c 0,91,92
 515 401 515 401 512 383 c 2,93,-1
 476 125 l 1,94,95
 518 176 518 176 571.5 203.5 c 128,-1,96
 625 231 625 231 686 231 c 0,97,98
 717 231 717 231 745 225 c 1,99,100
 762 241 762 241 772.5 262.5 c 128,-1,101
 783 284 783 284 787 317 c 2,102,-1
 824 576 l 1,103,-1
 877 576 l 1,104,-1
 840 312 l 2,105,106
 831 248 831 248 790 209 c 1,107,0
 852 177 852 177 852 113 c 0,1,2
787 58.5 m 128,-1,109
 805 78 805 78 805 112 c 0,110,111
 805 160 805 160 750 179 c 1,112,113
 717 156 717 156 701 138 c 128,-1,114
 685 120 685 120 685 94 c 256,115,116
 685 68 685 68 699 53.5 c 128,-1,117
 713 39 713 39 738 39 c 0,118,108
 769 39 769 39 787 58.5 c 128,-1,109
EndSplineSet
EndChar

StartChar: uni0E14
Encoding: 3604 3604 455
Width: 622
GlyphClass: 2
Flags: W
AnchorPoint: "Anchor-12" 562 550 basechar 0
AnchorPoint: "Anchor-11" 485 0 basechar 0
LayerCount: 2
Fore
SplineSet
482 538.5 m 128,-1,1
 539 491 539 491 539 405 c 0,2,3
 539 377 539 377 535 354 c 2,4,-1
 485 0 l 1,5,-1
 433 0 l 1,6,-1
 482 352 l 2,7,8
 485 376 485 376 485 401 c 0,9,10
 485 470 485 470 442 506 c 128,-1,11
 399 542 399 542 313 542 c 0,12,13
 211 542 211 542 158.5 485 c 128,-1,14
 106 428 106 428 106 322 c 0,15,16
 106 222 106 222 159 160 c 1,17,18
 179 178 179 178 235 211 c 2,19,-1
 283 241 l 2,20,21
 313 260 313 260 327.5 278.5 c 128,-1,22
 342 297 342 297 342 321 c 0,23,24
 342 344 342 344 329 357 c 128,-1,25
 316 370 316 370 292 370 c 0,26,27
 266 370 266 370 251.5 355 c 128,-1,28
 237 340 237 340 237 314 c 0,29,30
 237 277 237 277 278 262 c 1,31,32
 270 247 270 247 249 247 c 256,33,34
 228 247 228 247 211.5 267 c 128,-1,35
 195 287 195 287 195 315 c 0,36,37
 195 358 195 358 223.5 384.5 c 128,-1,38
 252 411 252 411 295 411 c 0,39,40
 337 411 337 411 362 386 c 128,-1,41
 387 361 387 361 387 325 c 0,42,43
 387 285 387 285 365.5 258.5 c 128,-1,44
 344 232 344 232 304 206 c 0,45,46
 232 161 232 161 199 137.5 c 128,-1,47
 166 114 166 114 141 80 c 128,-1,48
 116 46 116 46 110 0 c 1,49,-1
 66 0 l 2,50,51
 61 0 61 0 58.5 2 c 128,-1,52
 56 4 56 4 56 11 c 0,53,54
 56 31 56 31 67.5 51 c 128,-1,55
 79 71 79 71 98 96 c 0,56,57
 117 120 117 120 117 127 c 0,58,59
 117 132 117 132 105 153 c 0,60,61
 83 188 83 188 68.5 228 c 128,-1,62
 54 268 54 268 54 322 c 0,63,64
 54 448 54 448 122.5 517 c 128,-1,65
 191 586 191 586 314 586 c 0,66,0
 425 586 425 586 482 538.5 c 128,-1,1
EndSplineSet
EndChar

StartChar: uni0E15
Encoding: 3605 3605 456
Width: 630
GlyphClass: 2
Flags: W
AnchorPoint: "Anchor-12" 570 550 basechar 0
AnchorPoint: "Anchor-11" 493 0 basechar 0
LayerCount: 2
Fore
SplineSet
518 530.5 m 128,-1,1
 550 492 550 492 550 429 c 0,2,3
 550 401 550 401 546 374 c 2,4,-1
 493 0 l 1,5,-1
 440 0 l 1,6,-1
 492 370 l 2,7,8
 496 397 496 397 496 425 c 0,9,10
 496 474 496 474 476.5 500 c 128,-1,11
 457 526 457 526 418 536 c 1,12,13
 396 521 396 521 323 477 c 1,14,15
 260 520 260 520 242 536 c 1,16,17
 174 514 174 514 140 457 c 128,-1,18
 106 400 106 400 106 322 c 0,19,20
 106 266 106 266 120.5 227.5 c 128,-1,21
 135 189 135 189 160 161 c 1,22,23
 181 178 181 178 239 214 c 0,24,25
 264 228 264 228 283 241 c 0,26,27
 313 260 313 260 327.5 278.5 c 128,-1,28
 342 297 342 297 342 321 c 0,29,30
 342 344 342 344 329 357 c 128,-1,31
 316 370 316 370 292 370 c 0,32,33
 266 370 266 370 251.5 355 c 128,-1,34
 237 340 237 340 237 314 c 0,35,36
 237 277 237 277 278 262 c 1,37,38
 270 247 270 247 249 247 c 256,39,40
 228 247 228 247 211.5 267 c 128,-1,41
 195 287 195 287 195 315 c 0,42,43
 195 358 195 358 223.5 384.5 c 128,-1,44
 252 411 252 411 295 411 c 0,45,46
 337 411 337 411 362 386 c 128,-1,47
 387 361 387 361 387 325 c 0,48,49
 387 285 387 285 365.5 258.5 c 128,-1,50
 344 232 344 232 304 206 c 0,51,52
 232 161 232 161 199 137.5 c 128,-1,53
 166 114 166 114 141 80 c 128,-1,54
 116 46 116 46 110 0 c 1,55,-1
 66 0 l 2,56,57
 61 0 61 0 58.5 2 c 128,-1,58
 56 4 56 4 56 11 c 0,59,60
 56 31 56 31 67.5 51 c 128,-1,61
 79 71 79 71 98 96 c 0,62,63
 117 120 117 120 117 127 c 0,64,65
 117 131 117 131 112 140.5 c 128,-1,66
 107 150 107 150 105 153 c 0,67,68
 83 189 83 189 68.5 228 c 128,-1,69
 54 267 54 267 54 322 c 0,70,71
 54 426 54 426 100 491.5 c 128,-1,72
 146 557 146 557 245 586 c 1,73,74
 304 546 304 546 326 524 c 1,75,76
 354 545 354 545 394 569 c 2,77,-1
 421 586 l 1,78,0
 486 569 486 569 518 530.5 c 128,-1,1
EndSplineSet
EndChar

StartChar: uni0E16
Encoding: 3606 3606 457
Width: 615
GlyphClass: 2
Flags: W
AnchorPoint: "Anchor-12" 556 550 basechar 0
AnchorPoint: "Anchor-11" 478 0 basechar 0
LayerCount: 2
Fore
SplineSet
473.5 544.5 m 128,-1,1
 534 503 534 503 534 418 c 0,2,3
 534 401 534 401 531 383 c 2,4,-1
 478 0 l 1,5,-1
 425 0 l 1,6,-1
 478 381 l 2,7,8
 480 395 480 395 480 418 c 0,9,10
 480 482 480 482 435.5 512.5 c 128,-1,11
 391 543 391 543 311 543 c 0,12,13
 252 543 252 543 206.5 527.5 c 128,-1,14
 161 512 161 512 137 489.5 c 128,-1,15
 113 467 113 467 113 445 c 256,16,17
 113 423 113 423 135.5 406.5 c 128,-1,18
 158 390 158 390 182 390 c 0,19,20
 192 390 192 390 203.5 392 c 128,-1,21
 215 394 215 394 219 395 c 0,22,23
 237 399 237 399 245 399 c 0,24,25
 252 399 252 399 261 385.5 c 128,-1,26
 270 372 270 372 270 362 c 0,27,28
 270 355 270 355 263 355 c 0,29,30
 193 355 193 355 161.5 322 c 128,-1,31
 130 289 130 289 120 221 c 2,32,-1
 104 114 l 2,33,34
 103 107 103 107 103 94 c 0,35,36
 103 65 103 65 117.5 49.5 c 128,-1,37
 132 34 132 34 159 34 c 0,38,39
 187 34 187 34 202 48.5 c 128,-1,40
 217 63 217 63 217 91 c 0,41,42
 217 113 217 113 205 125 c 128,-1,43
 193 137 193 137 172 137 c 0,44,45
 147 137 147 137 129 128 c 1,46,47
 127 134 127 134 127 138 c 0,48,49
 127 153 127 153 141.5 163.5 c 128,-1,50
 156 174 156 174 181 174 c 0,51,52
 214 174 214 174 237 153 c 128,-1,53
 260 132 260 132 260 94 c 0,54,55
 260 47 260 47 231.5 20 c 128,-1,56
 203 -7 203 -7 156 -7 c 0,57,58
 107 -7 107 -7 78.5 20.5 c 128,-1,59
 50 48 50 48 50 91 c 0,60,61
 50 107 50 107 51 116 c 2,62,-1
 66 221 l 2,63,64
 73 271 73 271 89.5 303.5 c 128,-1,65
 106 336 106 336 134 357 c 1,66,67
 105 368 105 368 82 392 c 128,-1,68
 59 416 59 416 59 443 c 0,69,70
 59 476 59 476 90 509 c 128,-1,71
 121 542 121 542 178.5 564 c 128,-1,72
 236 586 236 586 312 586 c 0,73,0
 413 586 413 586 473.5 544.5 c 128,-1,1
EndSplineSet
EndChar

StartChar: uni0E17
Encoding: 3607 3607 458
Width: 665
GlyphClass: 2
Flags: W
AnchorPoint: "Anchor-12" 605 550 basechar 0
AnchorPoint: "Anchor-11" 528 0 basechar 0
LayerCount: 2
Fore
SplineSet
568 561 m 128,-1,1
 594 536 594 536 594 488 c 0,2,3
 594 479 594 479 592 459 c 2,4,-1
 528 0 l 1,5,-1
 475 0 l 1,6,-1
 539 455 l 2,7,8
 541 473 541 473 541 479 c 0,9,10
 541 510 541 510 526.5 524.5 c 128,-1,11
 512 539 512 539 482 539 c 0,12,13
 441 539 441 539 408 506.5 c 128,-1,14
 375 474 375 474 336 407 c 0,15,16
 262 276 262 276 228 200 c 128,-1,17
 194 124 194 124 181 42 c 2,18,-1
 174 0 l 1,19,-1
 131 0 l 2,20,21
 124 0 124 0 122 3.5 c 128,-1,22
 120 7 120 7 121 16 c 0,23,24
 121 19 121 19 125 39 c 0,25,26
 135 90 135 90 136 102 c 2,27,-1
 189 471 l 2,28,29
 191 491 191 491 191 498 c 0,30,31
 191 519 191 519 179 532 c 128,-1,32
 167 545 167 545 145 545 c 0,33,34
 118 545 118 545 103.5 530.5 c 128,-1,35
 89 516 89 516 89 489 c 0,36,37
 89 469 89 469 102.5 457.5 c 128,-1,38
 116 446 116 446 137 446 c 2,39,-1
 161 446 l 1,40,41
 161 430 161 430 149.5 420 c 128,-1,42
 138 410 138 410 118 410 c 0,43,44
 90 410 90 410 68.5 431.5 c 128,-1,45
 47 453 47 453 47 488 c 0,46,47
 47 531 47 531 75.5 558.5 c 128,-1,48
 104 586 104 586 150 586 c 0,49,50
 192 586 192 586 218.5 563.5 c 128,-1,51
 245 541 245 541 245 501 c 0,52,53
 245 489 245 489 242 474 c 2,54,-1
 212 260 l 1,55,56
 252 344 252 344 300 430 c 0,57,58
 341 503 341 503 387 544.5 c 128,-1,59
 433 586 433 586 494 586 c 0,60,0
 542 586 542 586 568 561 c 128,-1,1
EndSplineSet
EndChar

StartChar: uni0E18
Encoding: 3608 3608 459
Width: 590
GlyphClass: 2
Flags: W
AnchorPoint: "Anchor-12" 515 550 basechar 0
AnchorPoint: "Anchor-11" 407 0 basechar 0
LayerCount: 2
Fore
SplineSet
102.5 17 m 128,-1,1
 61 43 61 43 61 107 c 0,2,3
 61 120 61 120 64.5 148.5 c 128,-1,4
 68 177 68 177 70 191 c 2,5,-1
 80 264 l 1,6,7
 94 268 94 268 108 268 c 0,8,9
 134 268 134 268 131 247 c 2,10,-1
 125 202 l 2,11,12
 115 128 115 128 115 115 c 0,13,14
 115 72 115 72 141.5 54.5 c 128,-1,15
 168 37 168 37 239 37 c 0,16,17
 298 37 298 37 331.5 47 c 128,-1,18
 365 57 365 57 381.5 80.5 c 128,-1,19
 398 104 398 104 405 146 c 0,20,21
 418 231 418 231 418 251 c 0,22,23
 418 283 418 283 399 300.5 c 128,-1,24
 380 318 380 318 344 324 c 0,25,26
 278 336 278 336 151 336 c 2,27,-1
 98 336 l 1,28,29
 87 350 87 350 78.5 377 c 128,-1,30
 70 404 70 404 70 429 c 0,31,32
 70 506 70 506 115 544 c 128,-1,33
 160 582 160 582 237 582 c 0,34,35
 262 582 262 582 295 579 c 128,-1,36
 328 576 328 576 338 575 c 0,37,38
 400 569 400 569 421 569 c 0,39,40
 483 569 483 569 525 595 c 1,41,42
 536 584 536 584 536 566 c 0,43,44
 536 544 536 544 505.5 532 c 128,-1,45
 475 520 475 520 431 520 c 0,46,47
 407 520 407 520 343 528 c 0,48,49
 335 529 335 529 301 533 c 128,-1,50
 267 537 267 537 238 537 c 0,51,52
 123 537 123 537 123 431 c 0,53,54
 123 400 123 400 133 383 c 1,55,-1
 178 383 l 2,56,57
 236 383 236 383 278.5 380 c 128,-1,58
 321 377 321 377 361 369 c 0,59,60
 413 358 413 358 442.5 333 c 128,-1,61
 472 308 472 308 472 257 c 0,62,63
 472 237 472 237 466 197.5 c 128,-1,64
 460 158 460 158 459 148 c 0,65,66
 450 86 450 86 424.5 52 c 128,-1,67
 399 18 399 18 354.5 4.5 c 128,-1,68
 310 -9 310 -9 237 -9 c 0,69,0
 144 -9 144 -9 102.5 17 c 128,-1,1
EndSplineSet
EndChar

StartChar: uni0E19
Encoding: 3609 3609 460
Width: 637
GlyphClass: 2
Flags: W
AnchorPoint: "Anchor-12" 577 550 basechar 0
AnchorPoint: "Anchor-11" 500 0 basechar 0
LayerCount: 2
Fore
SplineSet
556 113 m 0,1,2
 556 59 556 59 523 27.5 c 128,-1,3
 490 -4 490 -4 440 -4 c 0,4,5
 397 -4 397 -4 370 20.5 c 128,-1,6
 343 45 343 45 343 87 c 0,7,8
 343 121 343 121 357.5 144.5 c 128,-1,9
 372 168 372 168 399 189 c 1,10,-1
 383 189 l 2,11,12
 338 189 338 189 287 162 c 128,-1,13
 236 135 236 135 199 91 c 128,-1,14
 162 47 162 47 156 0 c 1,15,-1
 119 0 l 2,16,17
 102 0 102 0 102 15 c 0,18,19
 102 21 102 21 107 44 c 0,20,21
 117 96 117 96 119 113 c 2,22,-1
 169 471 l 2,23,24
 171 491 171 491 171 498 c 0,25,26
 171 519 171 519 159 532 c 128,-1,27
 147 545 147 545 125 545 c 0,28,29
 98 545 98 545 83.5 530.5 c 128,-1,30
 69 516 69 516 69 489 c 0,31,32
 69 469 69 469 82.5 457.5 c 128,-1,33
 96 446 96 446 117 446 c 2,34,-1
 141 446 l 1,35,36
 141 430 141 430 129.5 420 c 128,-1,37
 118 410 118 410 98 410 c 0,38,39
 70 410 70 410 48.5 431.5 c 128,-1,40
 27 453 27 453 27 488 c 0,41,42
 27 531 27 531 55.5 558.5 c 128,-1,43
 84 586 84 586 130 586 c 0,44,45
 172 586 172 586 198.5 563.5 c 128,-1,46
 225 541 225 541 225 501 c 0,47,48
 225 489 225 489 222 474 c 2,49,-1
 173 124 l 1,50,51
 216 175 216 175 272 203 c 128,-1,52
 328 231 328 231 390 231 c 0,53,54
 421 231 421 231 449 225 c 1,55,56
 466 241 466 241 476.5 262.5 c 128,-1,57
 487 284 487 284 491 317 c 2,58,-1
 528 576 l 1,59,-1
 581 576 l 1,60,-1
 544 312 l 2,61,62
 535 248 535 248 494 209 c 1,63,0
 556 177 556 177 556 113 c 0,1,2
491 58.5 m 128,-1,65
 509 78 509 78 509 112 c 0,66,67
 509 160 509 160 454 179 c 1,68,69
 421 156 421 156 405 138 c 128,-1,70
 389 120 389 120 389 94 c 256,71,72
 389 68 389 68 403 53.5 c 128,-1,73
 417 39 417 39 442 39 c 0,74,64
 473 39 473 39 491 58.5 c 128,-1,65
EndSplineSet
EndChar

StartChar: uni0E1A
Encoding: 3610 3610 461
Width: 665
GlyphClass: 2
Flags: W
AnchorPoint: "Anchor-12" 605 550 basechar 0
AnchorPoint: "Anchor-11" 528 0 basechar 0
LayerCount: 2
Fore
SplineSet
139 48 m 0,1,2
 122 69 122 69 122 116 c 0,3,4
 122 148 122 148 128 185 c 2,5,-1
 169 471 l 2,6,7
 171 491 171 491 171 498 c 0,8,9
 171 519 171 519 159 532 c 128,-1,10
 147 545 147 545 125 545 c 0,11,12
 98 545 98 545 83.5 530.5 c 128,-1,13
 69 516 69 516 69 489 c 0,14,15
 69 469 69 469 82.5 457.5 c 128,-1,16
 96 446 96 446 117 446 c 2,17,-1
 141 446 l 1,18,19
 141 430 141 430 129.5 420 c 128,-1,20
 118 410 118 410 98 410 c 0,21,22
 70 410 70 410 48.5 431.5 c 128,-1,23
 27 453 27 453 27 488 c 0,24,25
 27 531 27 531 55.5 558.5 c 128,-1,26
 84 586 84 586 130 586 c 0,27,28
 172 586 172 586 198.5 563.5 c 128,-1,29
 225 541 225 541 225 501 c 0,30,31
 225 489 225 489 222 474 c 2,32,-1
 181 187 l 2,33,34
 175 131 175 131 175 119 c 0,35,36
 175 88 175 88 185 77 c 0,37,38
 221 35 221 35 317 35 c 0,39,40
 366 35 366 35 406 46 c 128,-1,41
 446 57 446 57 468 76 c 0,42,43
 481 89 481 89 487 110.5 c 128,-1,44
 493 132 493 132 499 178 c 2,45,-1
 556 576 l 1,46,-1
 609 576 l 1,47,-1
 554 185 l 2,48,49
 546 125 546 125 536 96.5 c 128,-1,50
 526 68 526 68 503 48 c 0,51,52
 466 17 466 17 415 4 c 128,-1,53
 364 -9 364 -9 310 -9 c 0,54,0
 182 -9 182 -9 139 48 c 0,1,2
EndSplineSet
EndChar

StartChar: uni0E1B
Encoding: 3611 3611 462
Width: 665
GlyphClass: 2
Flags: W
AnchorPoint: "Anchor-12" 478 550 basechar 0
AnchorPoint: "Anchor-11" 528 0 basechar 0
LayerCount: 2
Fore
SplineSet
139 48 m 0,1,2
 122 69 122 69 122 116 c 0,3,4
 122 148 122 148 128 185 c 2,5,-1
 169 471 l 2,6,7
 171 491 171 491 171 498 c 0,8,9
 171 519 171 519 159 532 c 128,-1,10
 147 545 147 545 125 545 c 0,11,12
 98 545 98 545 83.5 530.5 c 128,-1,13
 69 516 69 516 69 489 c 0,14,15
 69 469 69 469 82.5 457.5 c 128,-1,16
 96 446 96 446 117 446 c 2,17,-1
 141 446 l 1,18,19
 141 430 141 430 129.5 420 c 128,-1,20
 118 410 118 410 98 410 c 0,21,22
 70 410 70 410 48.5 431.5 c 128,-1,23
 27 453 27 453 27 488 c 0,24,25
 27 531 27 531 55.5 558.5 c 128,-1,26
 84 586 84 586 130 586 c 0,27,28
 172 586 172 586 198.5 563.5 c 128,-1,29
 225 541 225 541 225 501 c 0,30,31
 225 489 225 489 222 474 c 2,32,-1
 181 187 l 2,33,34
 175 131 175 131 175 119 c 0,35,36
 175 88 175 88 185 77 c 0,37,38
 221 35 221 35 317 35 c 0,39,40
 366 35 366 35 406 46 c 128,-1,41
 446 57 446 57 468 76 c 0,42,43
 481 89 481 89 487 110.5 c 128,-1,44
 493 132 493 132 499 178 c 2,45,-1
 586 783 l 1,46,-1
 638 783 l 1,47,-1
 554 185 l 2,48,49
 546 125 546 125 536 96.5 c 128,-1,50
 526 68 526 68 503 48 c 0,51,52
 466 17 466 17 415 4 c 128,-1,53
 364 -9 364 -9 310 -9 c 0,54,0
 182 -9 182 -9 139 48 c 0,1,2
EndSplineSet
EndChar

StartChar: uni0E1C
Encoding: 3612 3612 463
Width: 624
GlyphClass: 2
Flags: W
AnchorPoint: "Anchor-12" 560 550 basechar 0
AnchorPoint: "Anchor-11" 483 0 basechar 0
LayerCount: 2
Fore
SplineSet
564 576 m 1,0,-1
 501 132 l 2,1,2
 492 62 492 62 490 22 c 0,3,4
 489 10 489 10 485 5 c 128,-1,5
 481 0 481 0 472 0 c 2,6,-1
 431 0 l 1,7,8
 434 15 434 15 434 26 c 0,9,10
 434 75 434 75 392 136 c 128,-1,11
 350 197 350 197 288 252 c 1,12,13
 204 193 204 193 141.5 128.5 c 128,-1,14
 79 64 79 64 73 14 c 2,15,-1
 71 0 l 1,16,-1
 26 0 l 2,17,18
 19 0 19 0 16.5 3 c 128,-1,19
 14 6 14 6 14 13 c 0,20,21
 14 19 14 19 19 41 c 0,22,23
 29 72 29 72 36 120 c 2,24,-1
 85 467 l 2,25,26
 92 524 92 524 126 555 c 128,-1,27
 160 586 160 586 213 586 c 0,28,29
 254 586 254 586 279 563.5 c 128,-1,30
 304 541 304 541 304 503 c 0,31,32
 304 456 304 456 276 430 c 128,-1,33
 248 404 248 404 204 404 c 0,34,35
 182 404 182 404 168.5 414.5 c 128,-1,36
 155 425 155 425 155 438 c 0,37,38
 155 443 155 443 159 451 c 1,39,40
 175 441 175 441 204 441 c 0,41,42
 231 441 231 441 246.5 457 c 128,-1,43
 262 473 262 473 262 501 c 0,44,45
 262 522 262 522 248.5 533.5 c 128,-1,46
 235 545 235 545 210 545 c 0,47,48
 149 545 149 545 137 466 c 2,49,-1
 92 134 l 1,50,51
 124 175 124 175 177 219.5 c 128,-1,52
 230 264 230 264 288 301 c 1,53,-1
 297 301 l 1,54,55
 342 268 342 268 384 218.5 c 128,-1,56
 426 169 426 169 448 126 c 1,57,-1
 511 576 l 1,58,-1
 564 576 l 1,0,-1
EndSplineSet
EndChar

StartChar: uni0E1D
Encoding: 3613 3613 464
Width: 624
GlyphClass: 2
Flags: W
AnchorPoint: "Anchor-12" 438 550 basechar 0
AnchorPoint: "Anchor-11" 483 0 basechar 0
LayerCount: 2
Fore
SplineSet
593 783 m 1,0,-1
 501 132 l 2,1,2
 492 67 492 67 491 47 c 128,-1,3
 490 27 490 27 490 22 c 0,4,5
 489 10 489 10 485 5 c 128,-1,6
 481 0 481 0 472 0 c 2,7,-1
 431 0 l 1,8,9
 434 15 434 15 434 26 c 0,10,11
 434 75 434 75 392 136 c 128,-1,12
 350 197 350 197 288 252 c 1,13,14
 204 193 204 193 141.5 128.5 c 128,-1,15
 79 64 79 64 73 14 c 2,16,-1
 71 0 l 1,17,-1
 26 0 l 2,18,19
 19 0 19 0 16.5 3 c 128,-1,20
 14 6 14 6 14 13 c 0,21,22
 14 19 14 19 19 41 c 0,23,24
 29 72 29 72 36 120 c 2,25,-1
 85 467 l 2,26,27
 92 524 92 524 126 555 c 128,-1,28
 160 586 160 586 213 586 c 0,29,30
 254 586 254 586 279 563.5 c 128,-1,31
 304 541 304 541 304 503 c 0,32,33
 304 456 304 456 276 430 c 128,-1,34
 248 404 248 404 204 404 c 0,35,36
 182 404 182 404 168.5 414.5 c 128,-1,37
 155 425 155 425 155 438 c 0,38,39
 155 443 155 443 159 451 c 1,40,41
 175 441 175 441 204 441 c 0,42,43
 231 441 231 441 246.5 457 c 128,-1,44
 262 473 262 473 262 501 c 0,45,46
 262 522 262 522 248.5 533.5 c 128,-1,47
 235 545 235 545 210 545 c 0,48,49
 149 545 149 545 137 466 c 2,50,-1
 92 134 l 1,51,52
 124 175 124 175 177 219.5 c 128,-1,53
 230 264 230 264 288 301 c 1,54,-1
 297 301 l 1,55,56
 342 268 342 268 384 218.5 c 128,-1,57
 426 169 426 169 448 126 c 1,58,-1
 540 783 l 1,59,-1
 593 783 l 1,0,-1
EndSplineSet
EndChar

StartChar: uni0E1E
Encoding: 3614 3614 465
Width: 719
GlyphClass: 2
Flags: W
AnchorPoint: "Anchor-12" 655 550 basechar 0
AnchorPoint: "Anchor-11" 578 0 basechar 0
LayerCount: 2
Fore
SplineSet
659 576 m 1,0,-1
 604 190 l 2,1,2
 584 50 584 50 584 19 c 0,3,4
 584 0 584 0 571 0 c 2,5,-1
 526 0 l 1,6,7
 530 32 530 32 530 41 c 0,8,9
 530 105 530 105 489.5 224.5 c 128,-1,10
 449 344 449 344 404 432 c 1,11,12
 330 331 330 331 257 204.5 c 128,-1,13
 184 78 184 78 176 21 c 2,14,-1
 173 0 l 1,15,-1
 128 0 l 2,16,17
 116 0 116 0 116 12 c 0,18,19
 116 17 116 17 120 32 c 0,20,21
 132 82 132 82 148 190 c 2,22,-1
 189 471 l 2,23,24
 191 491 191 491 191 498 c 0,25,26
 191 519 191 519 179 532 c 128,-1,27
 167 545 167 545 145 545 c 0,28,29
 118 545 118 545 103.5 530.5 c 128,-1,30
 89 516 89 516 89 489 c 0,31,32
 89 469 89 469 102.5 457.5 c 128,-1,33
 116 446 116 446 137 446 c 2,34,-1
 161 446 l 1,35,36
 161 430 161 430 149.5 420 c 128,-1,37
 138 410 138 410 118 410 c 0,38,39
 90 410 90 410 68.5 431.5 c 128,-1,40
 47 453 47 453 47 488 c 0,41,42
 47 531 47 531 75.5 558.5 c 128,-1,43
 104 586 104 586 150 586 c 0,44,45
 192 586 192 586 218.5 563.5 c 128,-1,46
 245 541 245 541 245 501 c 0,47,48
 245 489 245 489 242 474 c 2,49,-1
 203 196 l 1,50,51
 238 271 238 271 292.5 358.5 c 128,-1,52
 347 446 347 446 403 520 c 1,53,-1
 419 520 l 1,54,55
 456 453 456 453 494 358.5 c 128,-1,56
 532 264 532 264 550 187 c 1,57,-1
 605 576 l 1,58,-1
 659 576 l 1,0,-1
EndSplineSet
EndChar

StartChar: uni0E1F
Encoding: 3615 3615 466
Width: 719
GlyphClass: 2
Flags: W
AnchorPoint: "Anchor-12" 533 550 basechar 0
AnchorPoint: "Anchor-11" 578 0 basechar 0
LayerCount: 2
Fore
SplineSet
688 783 m 1,0,-1
 604 190 l 2,1,2
 584 50 584 50 584 19 c 0,3,4
 584 0 584 0 571 0 c 2,5,-1
 526 0 l 1,6,7
 530 32 530 32 530 41 c 0,8,9
 530 105 530 105 489.5 224.5 c 128,-1,10
 449 344 449 344 404 432 c 1,11,12
 330 331 330 331 257 204.5 c 128,-1,13
 184 78 184 78 176 21 c 2,14,-1
 173 0 l 1,15,-1
 128 0 l 2,16,17
 116 0 116 0 116 12 c 0,18,19
 116 17 116 17 120 32 c 0,20,21
 132 82 132 82 148 190 c 2,22,-1
 189 471 l 2,23,24
 191 491 191 491 191 498 c 0,25,26
 191 519 191 519 179 532 c 128,-1,27
 167 545 167 545 145 545 c 0,28,29
 118 545 118 545 103.5 530.5 c 128,-1,30
 89 516 89 516 89 489 c 0,31,32
 89 469 89 469 102.5 457.5 c 128,-1,33
 116 446 116 446 137 446 c 2,34,-1
 161 446 l 1,35,36
 161 430 161 430 149.5 420 c 128,-1,37
 138 410 138 410 118 410 c 0,38,39
 90 410 90 410 68.5 431.5 c 128,-1,40
 47 453 47 453 47 488 c 0,41,42
 47 531 47 531 75.5 558.5 c 128,-1,43
 104 586 104 586 150 586 c 0,44,45
 192 586 192 586 218.5 563.5 c 128,-1,46
 245 541 245 541 245 501 c 0,47,48
 245 489 245 489 242 474 c 2,49,-1
 203 196 l 1,50,51
 238 271 238 271 292.5 358.5 c 128,-1,52
 347 446 347 446 403 520 c 1,53,-1
 419 520 l 1,54,55
 456 453 456 453 494 358.5 c 128,-1,56
 532 264 532 264 550 187 c 1,57,-1
 634 783 l 1,58,-1
 688 783 l 1,0,-1
EndSplineSet
EndChar

StartChar: uni0E20
Encoding: 3616 3616 467
Width: 630
GlyphClass: 2
Flags: W
AnchorPoint: "Anchor-12" 571 550 basechar 0
AnchorPoint: "Anchor-11" 493 0 basechar 0
LayerCount: 2
Fore
SplineSet
486 544.5 m 128,-1,1
 547 503 547 503 547 411 c 0,2,3
 547 390 547 390 544 366 c 2,4,-1
 493 0 l 1,5,-1
 440 0 l 1,6,-1
 491 366 l 2,7,8
 494 390 494 390 494 410 c 0,9,10
 494 485 494 485 451 514 c 128,-1,11
 408 543 408 543 331 543 c 0,12,13
 276 543 276 543 229 528 c 128,-1,14
 182 513 182 513 154.5 491 c 128,-1,15
 127 469 127 469 127 449 c 0,16,17
 127 433 127 433 141 419 c 128,-1,18
 155 405 155 405 172.5 396.5 c 128,-1,19
 190 388 190 388 197 388 c 0,20,21
 207 388 207 388 226 395 c 0,22,23
 250 403 250 403 261 403 c 0,24,25
 268 403 268 403 276 391.5 c 128,-1,26
 284 380 284 380 284 371 c 0,27,28
 284 360 284 360 279 360 c 0,29,30
 158 360 158 360 158 237 c 0,31,32
 158 219 158 219 159 203.5 c 128,-1,33
 160 188 160 188 161 177 c 0,34,35
 164 144 164 144 164 116 c 0,36,37
 164 56 164 56 132.5 24 c 128,-1,38
 101 -8 101 -8 49 -8 c 0,39,40
 12 -8 12 -8 -9.5 13 c 128,-1,41
 -31 34 -31 34 -31 68 c 0,42,43
 -31 111 -31 111 -3.5 135 c 128,-1,44
 24 159 24 159 55 159 c 0,45,46
 72 159 72 159 81 150.5 c 128,-1,47
 90 142 90 142 88 127 c 1,48,-1
 69 127 l 2,49,50
 42 127 42 127 26.5 112.5 c 128,-1,51
 11 98 11 98 11 74 c 0,52,53
 11 55 11 55 22 43.5 c 128,-1,54
 33 32 33 32 54 32 c 0,55,56
 116 32 116 32 116 123 c 0,57,58
 116 149 116 149 113 176 c 0,59,60
 112 185 112 185 111 199.5 c 128,-1,61
 110 214 110 214 110 234 c 0,62,63
 110 317 110 317 155 355 c 1,64,65
 122 367 122 367 96 392.5 c 128,-1,66
 70 418 70 418 70 447 c 0,67,68
 70 477 70 477 103.5 510 c 128,-1,69
 137 543 137 543 197 564.5 c 128,-1,70
 257 586 257 586 332 586 c 0,71,0
 425 586 425 586 486 544.5 c 128,-1,1
EndSplineSet
EndChar

StartChar: uni0E21
Encoding: 3617 3617 468
Width: 657
GlyphClass: 2
Flags: W
AnchorPoint: "Anchor-12" 580 550 basechar 0
AnchorPoint: "Anchor-11" 503 0 basechar 0
LayerCount: 2
Fore
SplineSet
584 576 m 1,0,-1
 521 131 l 2,1,2
 517 103 517 103 515 77 c 128,-1,3
 513 51 513 51 512 42 c 0,4,5
 510 18 510 18 510 19 c 1,6,7
 507 0 507 0 493 0 c 2,8,-1
 452 0 l 1,9,10
 440 99 440 99 380 153.5 c 128,-1,11
 320 208 320 208 226 214 c 1,12,13
 219 142 219 142 215 110 c 0,14,15
 205 49 205 49 180 20 c 128,-1,16
 155 -9 155 -9 112 -9 c 0,17,18
 75 -9 75 -9 50.5 16 c 128,-1,19
 26 41 26 41 26 83 c 0,20,21
 26 154 26 154 70 200 c 128,-1,22
 114 246 114 246 179 255 c 1,23,-1
 184 300 l 1,24,-1
 209 471 l 2,25,26
 211 491 211 491 211 498 c 0,27,28
 211 519 211 519 199 532 c 128,-1,29
 187 545 187 545 165 545 c 0,30,31
 138 545 138 545 123.5 530.5 c 128,-1,32
 109 516 109 516 109 489 c 0,33,34
 109 469 109 469 122.5 457.5 c 128,-1,35
 136 446 136 446 157 446 c 2,36,-1
 181 446 l 1,37,38
 181 430 181 430 169.5 420 c 128,-1,39
 158 410 158 410 138 410 c 0,40,41
 110 410 110 410 88.5 431.5 c 128,-1,42
 67 453 67 453 67 488 c 0,43,44
 67 531 67 531 95.5 558.5 c 128,-1,45
 124 586 124 586 170 586 c 0,46,47
 212 586 212 586 238.5 563.5 c 128,-1,48
 265 541 265 541 265 501 c 0,49,50
 265 489 265 489 262 474 c 2,51,-1
 231 257 l 1,52,53
 311 257 311 257 373.5 220 c 128,-1,54
 436 183 436 183 467 119 c 1,55,-1
 531 576 l 1,56,-1
 584 576 l 1,0,-1
174 211 m 1,57,58
 128 203 128 203 101.5 172.5 c 128,-1,59
 75 142 75 142 75 87 c 0,60,61
 75 35 75 35 112 35 c 0,62,63
 133 35 133 35 144.5 51.5 c 128,-1,64
 156 68 156 68 162 111 c 2,65,-1
 174 211 l 1,57,58
EndSplineSet
EndChar

StartChar: uni0E22
Encoding: 3618 3618 469
Width: 610
GlyphClass: 2
Flags: W
AnchorPoint: "Anchor-12" 550 550 basechar 0
AnchorPoint: "Anchor-11" 472 0 basechar 0
LayerCount: 2
Fore
SplineSet
554 576 m 1,0,-1
 513 284 l 1,1,-1
 508 246 l 2,2,3
 497 161 497 161 485 118.5 c 128,-1,4
 473 76 473 76 444 49 c 0,5,6
 380 -9 380 -9 253 -9 c 0,7,8
 197 -9 197 -9 147.5 4 c 128,-1,9
 98 17 98 17 72 49 c 0,10,11
 58 67 58 67 50.5 86.5 c 128,-1,12
 43 106 43 106 43 132 c 0,13,14
 43 139 43 139 49 187 c 0,15,16
 56 234 56 234 81 262.5 c 128,-1,17
 106 291 106 291 138 304 c 1,18,19
 112 320 112 320 92.5 352 c 128,-1,20
 73 384 73 384 73 428 c 0,21,22
 73 499 73 499 115 542.5 c 128,-1,23
 157 586 157 586 224 586 c 0,24,25
 266 586 266 586 291.5 563 c 128,-1,26
 317 540 317 540 317 503 c 0,27,28
 317 458 317 458 291 434 c 128,-1,29
 265 410 265 410 222 410 c 0,30,31
 197 410 197 410 180 423.5 c 128,-1,32
 163 437 163 437 163 453 c 0,33,34
 163 460 163 460 166 466 c 1,35,36
 188 446 188 446 217 446 c 0,37,38
 273 446 273 446 273 500 c 0,39,40
 273 520 273 520 260 532.5 c 128,-1,41
 247 545 247 545 224 545 c 0,42,43
 177 545 177 545 152 512.5 c 128,-1,44
 127 480 127 480 127 427 c 0,45,46
 127 371 127 371 169 342.5 c 128,-1,47
 211 314 211 314 303 314 c 0,48,49
 309 314 309 314 305.5 303 c 128,-1,50
 302 292 302 292 293.5 281 c 128,-1,51
 285 270 285 270 278 270 c 0,52,53
 270 270 270 270 246 274 c 0,54,55
 211 281 211 281 192 281 c 0,56,57
 159 281 159 281 133.5 255 c 128,-1,58
 108 229 108 229 102 185 c 0,59,60
 97 155 97 155 97 134 c 0,61,62
 97 100 97 100 114 79 c 0,63,64
 130 59 130 59 168 47.5 c 128,-1,65
 206 36 206 36 257 36 c 0,66,67
 307 36 307 36 345.5 48 c 128,-1,68
 384 60 384 60 407 81 c 0,69,70
 427 99 427 99 435.5 133.5 c 128,-1,71
 444 168 444 168 454 242 c 2,72,-1
 460 284 l 1,73,-1
 501 576 l 1,74,-1
 554 576 l 1,0,-1
EndSplineSet
EndChar

StartChar: uni0E23
Encoding: 3619 3619 470
Width: 508
GlyphClass: 2
Flags: W
AnchorPoint: "Anchor-12" 455 550 basechar 0
AnchorPoint: "Anchor-11" 351 0 basechar 0
LayerCount: 2
Fore
SplineSet
168.5 17.5 m 128,-1,1
 142 44 142 44 142 83 c 0,2,3
 142 129 142 129 173 158 c 128,-1,4
 204 187 204 187 249 187 c 256,5,6
 294 187 294 187 294 145 c 1,7,8
 268 149 268 149 251 149 c 0,9,10
 222 149 222 149 204.5 131.5 c 128,-1,11
 187 114 187 114 187 87 c 0,12,13
 187 63 187 63 200.5 48.5 c 128,-1,14
 214 34 214 34 238 34 c 0,15,16
 272 34 272 34 291 53.5 c 128,-1,17
 310 73 310 73 321 120 c 0,18,19
 337 191 337 191 337 238 c 0,20,21
 337 276 337 276 321 296 c 128,-1,22
 305 316 305 316 269 325 c 0,23,24
 226 336 226 336 190 339 c 128,-1,25
 154 342 154 342 71 342 c 1,26,27
 59 354 59 354 53 374.5 c 128,-1,28
 47 395 47 395 47 419 c 0,29,30
 47 468 47 468 70 505 c 128,-1,31
 93 542 93 542 131.5 562 c 128,-1,32
 170 582 170 582 214 582 c 0,33,34
 239 582 239 582 304 575 c 0,35,36
 352 569 352 569 369 569 c 0,37,38
 436 569 436 569 471 595 c 1,39,40
 483 583 483 583 483 570 c 0,41,42
 483 547 483 547 451 534 c 128,-1,43
 419 521 419 521 372 521 c 0,44,45
 348 521 348 521 294 529 c 0,46,47
 245 538 245 538 208 538 c 0,48,49
 156 538 156 538 128.5 508 c 128,-1,50
 101 478 101 478 101 424 c 0,51,52
 101 401 101 401 109 387 c 1,53,54
 148 387 148 387 198.5 382.5 c 128,-1,55
 249 378 249 378 290 369 c 0,56,57
 339 358 339 358 365 327.5 c 128,-1,58
 391 297 391 297 391 243 c 0,59,60
 391 195 391 195 374 121 c 0,61,62
 360 54 360 54 326 22.5 c 128,-1,63
 292 -9 292 -9 235 -9 c 0,64,0
 195 -9 195 -9 168.5 17.5 c 128,-1,1
EndSplineSet
EndChar

StartChar: uni0E24
Encoding: 3620 3620 471
Width: 615
GlyphClass: 2
Flags: W
AnchorPoint: "Anchor-12" 556 550 basechar 0
AnchorPoint: "Anchor-11" 447 -220 basechar 0
LayerCount: 2
Fore
SplineSet
478 381 m 2,0,1
 480 395 480 395 480 418 c 0,2,3
 480 482 480 482 435.5 512.5 c 128,-1,4
 391 543 391 543 311 543 c 0,5,6
 252 543 252 543 206.5 527.5 c 128,-1,7
 161 512 161 512 137 489.5 c 128,-1,8
 113 467 113 467 113 445 c 256,9,10
 113 423 113 423 135.5 406.5 c 128,-1,11
 158 390 158 390 182 390 c 0,12,13
 192 390 192 390 203.5 392 c 128,-1,14
 215 394 215 394 219 395 c 0,15,16
 237 399 237 399 245 399 c 0,17,18
 252 399 252 399 261 385.5 c 128,-1,19
 270 372 270 372 270 362 c 0,20,21
 270 355 270 355 263 355 c 0,22,23
 193 355 193 355 161.5 322 c 128,-1,24
 130 289 130 289 120 221 c 2,25,-1
 104 114 l 2,26,27
 103 107 103 107 103 94 c 0,28,29
 103 65 103 65 117.5 49.5 c 128,-1,30
 132 34 132 34 159 34 c 0,31,32
 187 34 187 34 202 48.5 c 128,-1,33
 217 63 217 63 217 91 c 0,34,35
 217 113 217 113 205 125 c 128,-1,36
 193 137 193 137 172 137 c 0,37,38
 147 137 147 137 129 128 c 1,39,40
 127 134 127 134 127 138 c 0,41,42
 127 153 127 153 141.5 163.5 c 128,-1,43
 156 174 156 174 181 174 c 0,44,45
 214 174 214 174 237 153 c 128,-1,46
 260 132 260 132 260 94 c 0,47,48
 260 47 260 47 231.5 20 c 128,-1,49
 203 -7 203 -7 156 -7 c 0,50,51
 107 -7 107 -7 78.5 20.5 c 128,-1,52
 50 48 50 48 50 91 c 0,53,54
 50 107 50 107 51 116 c 2,55,-1
 66 221 l 2,56,57
 79 316 79 316 134 358 c 1,58,59
 105 368 105 368 82 392 c 128,-1,60
 59 416 59 416 59 443 c 0,61,62
 59 476 59 476 90 509 c 128,-1,63
 121 542 121 542 178.5 564 c 128,-1,64
 236 586 236 586 312 586 c 0,65,66
 413 586 413 586 473.5 544.5 c 128,-1,67
 534 503 534 503 534 418 c 0,68,69
 534 401 534 401 531 383 c 2,70,-1
 447 -220 l 1,71,-1
 394 -220 l 1,72,-1
 478 381 l 2,0,1
EndSplineSet
Substitution2: "Single Substitution lookup 14 subtable" uni0E24.short
Substitution2: "'aalt' Access All Alternates lookup 0 subtable" uni0E24.short
EndChar

StartChar: uni0E24.short
Encoding: 65543 -1 472
Width: 614
GlyphClass: 2
Flags: W
AnchorPoint: "Anchor-12" 555 550 basechar 0
AnchorPoint: "Anchor-11" 455 -160 basechar 0
LayerCount: 2
Fore
SplineSet
478 381 m 2,0,1
 480 395 480 395 480 418 c 0,2,3
 480 482 480 482 435.5 512.5 c 128,-1,4
 391 543 391 543 311 543 c 0,5,6
 252 543 252 543 206.5 527.5 c 128,-1,7
 161 512 161 512 137 489.5 c 128,-1,8
 113 467 113 467 113 445 c 256,9,10
 113 423 113 423 135.5 406.5 c 128,-1,11
 158 390 158 390 182 390 c 0,12,13
 192 390 192 390 203.5 392 c 128,-1,14
 215 394 215 394 219 395 c 0,15,16
 237 399 237 399 245 399 c 0,17,18
 252 399 252 399 261 385.5 c 128,-1,19
 270 372 270 372 270 362 c 0,20,21
 270 355 270 355 263 355 c 0,22,23
 193 355 193 355 161.5 322 c 128,-1,24
 130 289 130 289 120 221 c 2,25,-1
 104 114 l 2,26,27
 103 107 103 107 103 94 c 0,28,29
 103 65 103 65 117.5 49.5 c 128,-1,30
 132 34 132 34 159 34 c 0,31,32
 187 34 187 34 202 48.5 c 128,-1,33
 217 63 217 63 217 91 c 0,34,35
 217 113 217 113 205 125 c 128,-1,36
 193 137 193 137 172 137 c 0,37,38
 147 137 147 137 129 128 c 1,39,40
 127 134 127 134 127 138 c 0,41,42
 127 153 127 153 141.5 163.5 c 128,-1,43
 156 174 156 174 181 174 c 0,44,45
 214 174 214 174 237 153 c 128,-1,46
 260 132 260 132 260 94 c 0,47,48
 260 47 260 47 231.5 20 c 128,-1,49
 203 -7 203 -7 156 -7 c 0,50,51
 107 -7 107 -7 78.5 20.5 c 128,-1,52
 50 48 50 48 50 91 c 0,53,54
 50 107 50 107 51 116 c 2,55,-1
 66 221 l 2,56,57
 79 316 79 316 134 358 c 1,58,59
 105 368 105 368 82 392 c 128,-1,60
 59 416 59 416 59 443 c 0,61,62
 59 476 59 476 90 509 c 128,-1,63
 121 542 121 542 178.5 564 c 128,-1,64
 236 586 236 586 312 586 c 0,65,66
 413 586 413 586 473.5 544.5 c 128,-1,67
 534 503 534 503 534 418 c 0,68,69
 534 401 534 401 531 383 c 2,70,-1
 455 -160 l 1,71,-1
 401 -160 l 1,72,-1
 478 381 l 2,0,1
EndSplineSet
EndChar

StartChar: uni0E25
Encoding: 3621 3621 473
Width: 618
GlyphClass: 2
Flags: W
AnchorPoint: "Anchor-12" 549 550 basechar 0
AnchorPoint: "Anchor-11" 472 0 basechar 0
LayerCount: 2
Fore
SplineSet
478 543 m 128,-1,1
 535 500 535 500 535 427 c 0,2,3
 535 397 535 397 526.5 352 c 128,-1,4
 518 307 518 307 504 241 c 2,5,-1
 491 177 l 2,6,7
 484 130 484 130 480 62 c 0,8,9
 478 26 478 26 476 15 c 0,10,11
 475 0 475 0 463 0 c 2,12,-1
 418 0 l 1,13,14
 426 59 426 59 426 102 c 0,15,16
 426 214 426 214 383.5 271 c 128,-1,17
 341 328 341 328 263 328 c 256,18,19
 185 328 185 328 142 278 c 128,-1,20
 99 228 99 228 99 143 c 0,21,22
 99 91 99 91 119 61.5 c 128,-1,23
 139 32 139 32 170 32 c 0,24,25
 198 32 198 32 213 47 c 128,-1,26
 228 62 228 62 228 89 c 0,27,28
 228 108 228 108 216.5 119 c 128,-1,29
 205 130 205 130 184 130 c 0,30,31
 168 130 168 130 155.5 123 c 128,-1,32
 143 116 143 116 129 103 c 1,33,34
 127 109 127 109 127 118 c 0,35,36
 127 137 127 137 146.5 152 c 128,-1,37
 166 167 166 167 194 167 c 0,38,39
 228 167 228 167 249.5 145 c 128,-1,40
 271 123 271 123 271 91 c 0,41,42
 271 46 271 46 242.5 18.5 c 128,-1,43
 214 -9 214 -9 168 -9 c 0,44,45
 114 -9 114 -9 80.5 29.5 c 128,-1,46
 47 68 47 68 47 138 c 0,47,48
 47 209 47 209 73.5 262 c 128,-1,49
 100 315 100 315 149.5 344 c 128,-1,50
 199 373 199 373 265 373 c 0,51,52
 334 373 334 373 383 336.5 c 128,-1,53
 432 300 432 300 452 239 c 1,54,55
 480 377 480 377 480 417 c 0,56,57
 480 476 480 476 440.5 508.5 c 128,-1,58
 401 541 401 541 327 541 c 0,59,60
 264 541 264 541 220.5 518.5 c 128,-1,61
 177 496 177 496 128 452 c 0,62,63
 121 445 121 445 112 445 c 0,64,65
 104 445 104 445 93 453.5 c 128,-1,66
 82 462 82 462 78 475 c 1,67,68
 120 522 120 522 181.5 554 c 128,-1,69
 243 586 243 586 328 586 c 0,70,0
 421 586 421 586 478 543 c 128,-1,1
EndSplineSet
EndChar

StartChar: uni0E26
Encoding: 3622 3622 474
Width: 630
GlyphClass: 2
Flags: W
AnchorPoint: "Anchor-12" 571 550 basechar 0
AnchorPoint: "Anchor-11" 462 -220 basechar 0
LayerCount: 2
Fore
SplineSet
491 366 m 2,0,1
 494 390 494 390 494 410 c 0,2,3
 494 485 494 485 451 514 c 128,-1,4
 408 543 408 543 331 543 c 0,5,6
 276 543 276 543 229 528 c 128,-1,7
 182 513 182 513 154.5 491 c 128,-1,8
 127 469 127 469 127 449 c 0,9,10
 127 433 127 433 141 419 c 128,-1,11
 155 405 155 405 172.5 396.5 c 128,-1,12
 190 388 190 388 197 388 c 0,13,14
 207 388 207 388 226 395 c 0,15,16
 250 403 250 403 261 403 c 0,17,18
 268 403 268 403 276 391.5 c 128,-1,19
 284 380 284 380 284 371 c 0,20,21
 284 360 284 360 279 360 c 0,22,23
 158 360 158 360 158 237 c 0,24,25
 158 219 158 219 159 203.5 c 128,-1,26
 160 188 160 188 161 177 c 0,27,28
 164 144 164 144 164 116 c 0,29,30
 164 56 164 56 132.5 24 c 128,-1,31
 101 -8 101 -8 49 -8 c 0,32,33
 12 -8 12 -8 -9.5 13 c 128,-1,34
 -31 34 -31 34 -31 68 c 0,35,36
 -31 111 -31 111 -3.5 135 c 128,-1,37
 24 159 24 159 55 159 c 0,38,39
 72 159 72 159 81 150.5 c 128,-1,40
 90 142 90 142 88 127 c 1,41,-1
 69 127 l 2,42,43
 42 127 42 127 26.5 112.5 c 128,-1,44
 11 98 11 98 11 74 c 0,45,46
 11 55 11 55 22 43.5 c 128,-1,47
 33 32 33 32 54 32 c 0,48,49
 116 32 116 32 116 123 c 0,50,51
 116 149 116 149 113 176 c 0,52,53
 112 185 112 185 111 199.5 c 128,-1,54
 110 214 110 214 110 234 c 0,55,56
 110 318 110 318 155 355 c 1,57,58
 123 366 123 366 96.5 392 c 128,-1,59
 70 418 70 418 70 447 c 0,60,61
 70 477 70 477 103.5 510 c 128,-1,62
 137 543 137 543 197 564.5 c 128,-1,63
 257 586 257 586 332 586 c 0,64,65
 425 586 425 586 486 544.5 c 128,-1,66
 547 503 547 503 547 411 c 0,67,68
 547 390 547 390 544 366 c 2,69,-1
 462 -220 l 1,70,-1
 409 -220 l 1,71,-1
 491 366 l 2,0,1
EndSplineSet
Substitution2: "Single Substitution lookup 14 subtable" uni0E26.short
Substitution2: "'aalt' Access All Alternates lookup 0 subtable" uni0E26.short
EndChar

StartChar: uni0E26.short
Encoding: 65544 -1 475
Width: 629
GlyphClass: 2
Flags: W
AnchorPoint: "Anchor-12" 570 550 basechar 0
AnchorPoint: "Anchor-11" 470 -160 basechar 0
LayerCount: 2
Fore
SplineSet
491 366 m 2,0,1
 494 390 494 390 494 410 c 0,2,3
 494 485 494 485 451 514 c 128,-1,4
 408 543 408 543 331 543 c 0,5,6
 276 543 276 543 229 528 c 128,-1,7
 182 513 182 513 154.5 491 c 128,-1,8
 127 469 127 469 127 449 c 0,9,10
 127 433 127 433 141 419 c 128,-1,11
 155 405 155 405 172.5 396.5 c 128,-1,12
 190 388 190 388 197 388 c 0,13,14
 207 388 207 388 226 395 c 0,15,16
 250 403 250 403 261 403 c 0,17,18
 268 403 268 403 276 391.5 c 128,-1,19
 284 380 284 380 284 371 c 0,20,21
 284 360 284 360 279 360 c 0,22,23
 158 360 158 360 158 237 c 0,24,25
 158 219 158 219 159 203.5 c 128,-1,26
 160 188 160 188 161 177 c 0,27,28
 164 144 164 144 164 116 c 0,29,30
 164 56 164 56 132.5 24 c 128,-1,31
 101 -8 101 -8 49 -8 c 0,32,33
 12 -8 12 -8 -9.5 13 c 128,-1,34
 -31 34 -31 34 -31 68 c 0,35,36
 -31 111 -31 111 -3.5 135 c 128,-1,37
 24 159 24 159 55 159 c 0,38,39
 72 159 72 159 81 150.5 c 128,-1,40
 90 142 90 142 88 127 c 1,41,-1
 69 127 l 2,42,43
 42 127 42 127 26.5 112.5 c 128,-1,44
 11 98 11 98 11 74 c 0,45,46
 11 55 11 55 22 43.5 c 128,-1,47
 33 32 33 32 54 32 c 0,48,49
 116 32 116 32 116 123 c 0,50,51
 116 149 116 149 113 176 c 0,52,53
 112 185 112 185 111 199.5 c 128,-1,54
 110 214 110 214 110 234 c 0,55,56
 110 318 110 318 155 355 c 1,57,58
 123 366 123 366 96.5 392 c 128,-1,59
 70 418 70 418 70 447 c 0,60,61
 70 477 70 477 103.5 510 c 128,-1,62
 137 543 137 543 197 564.5 c 128,-1,63
 257 586 257 586 332 586 c 0,64,65
 425 586 425 586 486 544.5 c 128,-1,66
 547 503 547 503 547 411 c 0,67,68
 547 390 547 390 544 366 c 2,69,-1
 470 -160 l 1,70,-1
 417 -160 l 1,71,-1
 491 366 l 2,0,1
EndSplineSet
EndChar

StartChar: uni0E27
Encoding: 3623 3623 476
Width: 528
GlyphClass: 2
Flags: W
AnchorPoint: "Anchor-12" 462 550 basechar 0
AnchorPoint: "Anchor-11" 385 0 basechar 0
LayerCount: 2
Fore
SplineSet
201.5 16 m 128,-1,1
 173 42 173 42 173 84 c 0,2,3
 173 131 173 131 202 157.5 c 128,-1,4
 231 184 231 184 273 184 c 0,5,6
 297 184 297 184 310.5 173.5 c 128,-1,7
 324 163 324 163 324 149 c 0,8,9
 324 145 324 145 322 139 c 1,10,11
 302 147 302 147 277 147 c 0,12,13
 250 147 250 147 234 131 c 128,-1,14
 218 115 218 115 218 88 c 0,15,16
 218 62 218 62 232.5 48 c 128,-1,17
 247 34 247 34 271 34 c 0,18,19
 306 34 306 34 325.5 54.5 c 128,-1,20
 345 75 345 75 351 118 c 2,21,-1
 389 387 l 2,22,23
 391 398 391 398 391 421 c 0,24,25
 391 479 391 479 357 510.5 c 128,-1,26
 323 542 323 542 261 542 c 0,27,28
 201 542 201 542 159.5 518.5 c 128,-1,29
 118 495 118 495 86 450 c 0,30,31
 80 444 80 444 73 444 c 0,32,33
 65 444 65 444 54 452 c 128,-1,34
 43 460 43 460 37 470 c 1,35,36
 125 586 125 586 263 586 c 0,37,38
 347 586 347 586 395 544.5 c 128,-1,39
 443 503 443 503 443 425 c 0,40,41
 443 407 443 407 440 384 c 2,42,-1
 402 115 l 2,43,44
 393 53 393 53 359 21.5 c 128,-1,45
 325 -10 325 -10 271 -10 c 0,46,0
 230 -10 230 -10 201.5 16 c 128,-1,1
EndSplineSet
EndChar

StartChar: uni0E28
Encoding: 3624 3624 477
Width: 609
GlyphClass: 2
Flags: W
AnchorPoint: "Anchor-12" 564 550 basechar 0
AnchorPoint: "Anchor-11" 487 0 basechar 0
LayerCount: 2
Fore
SplineSet
584 539.5 m 128,-1,1
 555 519 555 519 514 510 c 1,2,3
 541 470 541 470 541 408 c 0,4,5
 541 383 541 383 537 360 c 2,6,-1
 487 0 l 1,7,-1
 434 0 l 1,8,-1
 484 355 l 2,9,10
 487 379 487 379 487 400 c 0,11,12
 487 542 487 542 331 542 c 0,13,14
 228 542 228 542 172 480.5 c 128,-1,15
 116 419 116 419 116 313 c 0,16,17
 116 272 116 272 125 242 c 1,18,19
 200 384 200 384 315 384 c 0,20,21
 354 384 354 384 378.5 362 c 128,-1,22
 403 340 403 340 403 303 c 0,23,24
 403 254 403 254 373.5 225 c 128,-1,25
 344 196 344 196 297 196 c 0,26,27
 269 196 269 196 248.5 210 c 128,-1,28
 228 224 228 224 228 245 c 0,29,30
 228 269 228 269 247 278 c 1,31,32
 260 234 260 234 300 234 c 0,33,34
 328 234 328 234 344.5 251.5 c 128,-1,35
 361 269 361 269 361 298 c 0,36,37
 361 319 361 319 347 331 c 128,-1,38
 333 343 333 343 307 343 c 0,39,40
 260 343 260 343 217 298 c 128,-1,41
 174 253 174 253 142.5 175 c 128,-1,42
 111 97 111 97 95 0 c 1,43,-1
 56 0 l 2,44,45
 40 0 40 0 44 20 c 0,46,47
 49 57 49 57 77 133 c 0,48,49
 90 172 90 172 90 175 c 0,50,51
 90 182 90 182 83 201 c 0,52,53
 61 260 61 260 61 312 c 0,54,55
 61 394 61 394 93 456 c 128,-1,56
 125 518 125 518 187 552 c 128,-1,57
 249 586 249 586 334 586 c 0,58,59
 427 586 427 586 482 545 c 1,60,61
 520 554 520 554 544.5 573 c 128,-1,62
 569 592 569 592 578 618 c 1,63,64
 593 618 593 618 603 609.5 c 128,-1,65
 613 601 613 601 613 587 c 0,66,0
 613 560 613 560 584 539.5 c 128,-1,1
EndSplineSet
EndChar

StartChar: uni0E29
Encoding: 3625 3625 478
Width: 665
GlyphClass: 2
Flags: W
AnchorPoint: "Anchor-12" 605 550 basechar 0
AnchorPoint: "Anchor-11" 528 0 basechar 0
LayerCount: 2
Fore
SplineSet
609 576 m 1,0,-1
 554 185 l 2,1,2
 546 125 546 125 536 96.5 c 128,-1,3
 526 68 526 68 503 48 c 0,4,5
 466 17 466 17 415 4 c 128,-1,6
 364 -9 364 -9 310 -9 c 0,7,8
 182 -9 182 -9 139 48 c 0,9,10
 122 69 122 69 122 116 c 0,11,12
 122 148 122 148 128 185 c 2,13,-1
 169 471 l 2,14,15
 171 491 171 491 171 498 c 0,16,17
 171 519 171 519 159 532 c 128,-1,18
 147 545 147 545 125 545 c 0,19,20
 98 545 98 545 83.5 530.5 c 128,-1,21
 69 516 69 516 69 489 c 0,22,23
 69 469 69 469 82.5 457.5 c 128,-1,24
 96 446 96 446 117 446 c 2,25,-1
 141 446 l 1,26,27
 141 430 141 430 129.5 420 c 128,-1,28
 118 410 118 410 98 410 c 0,29,30
 70 410 70 410 48.5 431.5 c 128,-1,31
 27 453 27 453 27 488 c 0,32,33
 27 531 27 531 55.5 558.5 c 128,-1,34
 84 586 84 586 130 586 c 0,35,36
 172 586 172 586 198.5 563.5 c 128,-1,37
 225 541 225 541 225 501 c 0,38,39
 225 489 225 489 222 474 c 2,40,-1
 181 187 l 2,41,42
 175 131 175 131 175 119 c 0,43,44
 175 88 175 88 185 77 c 0,45,46
 221 35 221 35 317 35 c 0,47,48
 366 35 366 35 406 46 c 128,-1,49
 446 57 446 57 468 76 c 0,50,51
 481 89 481 89 487 110.5 c 128,-1,52
 493 132 493 132 499 178 c 2,53,-1
 508 241 l 1,54,55
 487 216 487 216 454 201 c 128,-1,56
 421 186 421 186 382 186 c 0,57,58
 332 186 332 186 300 211 c 128,-1,59
 268 236 268 236 268 280 c 0,60,61
 268 320 268 320 295 345.5 c 128,-1,62
 322 371 322 371 359 371 c 0,63,64
 388 371 388 371 408 354.5 c 128,-1,65
 428 338 428 338 428 310 c 0,66,67
 428 281 428 281 413.5 265.5 c 128,-1,68
 399 250 399 250 377 250 c 0,69,70
 368 250 368 250 360 256 c 1,71,72
 389 271 389 271 389 302 c 0,73,74
 389 316 389 316 380.5 324.5 c 128,-1,75
 372 333 372 333 357 333 c 0,76,77
 336 333 336 333 323 320 c 128,-1,78
 310 307 310 307 310 284 c 0,79,80
 310 257 310 257 331.5 241.5 c 128,-1,81
 353 226 353 226 389 226 c 0,82,83
 434 226 434 226 468.5 249 c 128,-1,84
 503 272 503 272 519 315 c 1,85,-1
 556 576 l 1,86,-1
 609 576 l 1,0,-1
EndSplineSet
EndChar

